<svg width="24" height="24" viewBox="0 0 24 24" fill="none" xmlns="http://www.w3.org/2000/svg">
<g clip-path="url(#clip0_45_4219)">
<rect width="24" height="24" fill="#E20714"/>
<path fill-rule="evenodd" clip-rule="evenodd" d="M6.43295 15.6016C6.33866 15.6687 6.14495 15.7256 5.93478 15.7256C5.54961 15.7256 5.37586 15.4299 5.38259 15.0856C5.38883 14.7997 5.56732 14.4764 6.04828 14.4764H6.43295V15.6016ZM7.40723 13.7556C7.40723 12.7629 6.69851 12.4365 6.03631 12.4365C5.57855 12.4365 5.16706 12.5659 4.74397 12.7767L4.63595 12.832L4.89327 13.4066L5.03908 13.3383C5.33794 13.2042 5.6575 13.1145 5.94476 13.126C6.29176 13.1403 6.4342 13.2997 6.4342 13.6324V13.8273H5.86593C4.95277 13.8273 4.38437 14.3112 4.36853 15.0629C4.36853 15.7769 4.96362 16.3921 5.79171 16.3921C6.45977 16.3921 7.02543 16.1752 7.40723 15.7931V13.7556Z" fill="white"/>
<path fill-rule="evenodd" clip-rule="evenodd" d="M8.60554 12.1994C8.94718 12.1994 9.21522 11.932 9.21522 11.5926C9.21959 11.4312 9.16047 11.278 9.04796 11.1622C8.93533 11.0439 8.78054 10.9791 8.61427 10.9791C8.27375 10.9791 7.99573 11.2522 7.99573 11.5881C7.99573 11.9315 8.26415 12.1994 8.60554 12.1994Z" fill="white"/>
<path fill-rule="evenodd" clip-rule="evenodd" d="M9.08343 12.5048L8.12512 12.6612V16.3225H9.08343V12.5048Z" fill="white"/>
<path fill-rule="evenodd" clip-rule="evenodd" d="M19.453 15.7217C19.0541 15.6912 18.9708 15.5164 18.9708 15.2241V11.4471L18.0096 11.611V15.1619C18.0096 16.004 18.4668 16.3645 19.2315 16.3645C19.3952 16.3645 19.5981 16.3259 19.5981 16.3259V15.7229C19.5981 15.7229 19.5083 15.7256 19.453 15.7217Z" fill="white"/>
<path fill-rule="evenodd" clip-rule="evenodd" d="M10.4214 9.00126C10.6722 9.00126 10.9692 8.94002 11.3042 8.81891C11.8054 8.63817 12.2024 8.38721 12.5858 8.14461L12.6898 8.07925C13.0953 7.82355 13.4912 7.52619 13.899 7.16946C14.8004 6.38066 15.3419 5.6072 15.6518 4.66199C15.7774 4.27944 15.9552 3.5323 15.7373 2.83169C15.5775 2.32092 15.2685 1.90144 14.8186 1.58326C14.7672 1.5406 14.2065 1.09094 13.148 1.09094C12.1802 1.09094 11.1191 1.46439 9.99428 2.2018L9.95836 2.22537L9.95312 2.22837C9.92057 2.24857 9.88864 2.26853 9.85246 2.29223C9.82665 2.31156 9.79945 2.33039 9.76553 2.34998C9.53565 2.50627 9.31637 2.67478 9.11194 2.85526C8.63696 3.3144 8.09513 4.08299 8.12868 4.73546C8.14265 5.01311 8.25828 5.2385 8.47132 5.40676C8.66403 5.55756 8.90426 5.63402 9.18578 5.63402C9.76178 5.63402 10.3938 5.32007 10.8259 5.0544C10.8523 5.03544 10.8795 5.01748 10.9073 4.99952C10.9827 4.94962 11.0575 4.89923 11.1335 4.84884L11.2069 4.7992C11.821 4.38758 12.4562 3.962 13.1721 3.71341C13.3574 3.64943 13.5197 3.61824 13.6686 3.61824C13.7428 3.61824 13.815 3.62548 13.8836 3.64207C14.1012 3.69183 14.2606 3.81607 14.3563 4.01077C14.5218 4.34879 14.4822 4.88252 14.2565 5.37059C13.9486 6.03578 13.419 6.69137 12.6842 7.31939C12.3103 7.63858 11.9642 7.88567 11.6562 8.05306L11.6285 8.06852C11.4847 8.14748 11.3228 8.23616 11.1517 8.30102L11.1291 8.30988C11.0779 8.32884 11.035 8.34505 10.9954 8.3589C10.2769 8.55136 10.7141 7.91822 10.7141 7.91822C10.8724 7.72938 11.0337 7.57945 11.2043 7.42055C11.3018 7.32999 11.4024 7.23594 11.5032 7.13391L11.5256 7.11171C11.6506 6.98586 11.8225 6.8141 11.8121 6.56701C11.7979 6.24022 11.4655 6.03578 11.1542 6.02717C11.1462 6.0268 11.1387 6.0268 11.1307 6.0268C10.8306 6.0268 10.5462 6.20342 10.3607 6.35135C10.1745 6.50028 9.97657 6.7233 9.84473 6.93347C9.65364 7.23682 9.25126 8.01015 9.64304 8.62844C9.79958 8.87603 10.0616 9.00126 10.4214 9.00126Z" fill="white"/>
<path fill-rule="evenodd" clip-rule="evenodd" d="M15.9311 13.18C16.3572 13.18 16.4203 13.6422 16.4203 13.9297H15.3826C15.399 13.5604 15.5526 13.18 15.9311 13.18ZM16.0411 16.4019C16.2681 16.4019 16.5047 16.3683 16.721 16.3009C17.1359 16.1728 17.4417 15.9506 17.4417 15.9506L17.1708 15.3944C17.1224 15.4309 16.7088 15.7189 16.1386 15.7189C15.8762 15.7189 15.6986 15.6329 15.5825 15.5073C15.4096 15.3208 15.3335 14.9377 15.3536 14.531H17.4206V14.4359C17.4027 13.0825 16.9414 12.4661 15.9311 12.4661C14.8044 12.4661 14.3652 13.5031 14.357 14.4778C14.3497 15.0935 14.5825 15.7136 15.0081 16.067C15.2664 16.2821 15.625 16.4019 16.0411 16.4019Z" fill="white"/>
<path fill-rule="evenodd" clip-rule="evenodd" d="M12.1459 12.5623C12.041 12.5107 11.7902 12.4462 11.5002 12.4462C11.079 12.4462 10.433 12.5698 9.85047 13.1887L9.84998 16.3259H10.8275V13.3728C10.9553 13.2488 11.2261 13.1395 11.4828 13.1287C11.7211 13.1196 11.8755 13.1694 11.8755 13.1694L12.1459 12.5623Z" fill="white"/>
<path fill-rule="evenodd" clip-rule="evenodd" d="M14.0192 13.2113V12.5068H13.3872V11.4526L12.4045 11.61V15.1789C12.4045 15.9782 12.8717 16.3559 13.6546 16.3559C13.8424 16.3559 14.0192 16.3211 14.0192 16.3211V15.7269C14.0088 15.7256 13.9362 15.7256 13.8807 15.7235C13.4686 15.7094 13.3872 15.4821 13.3872 15.2197V13.2113H14.0192Z" fill="white"/>
<path fill-rule="evenodd" clip-rule="evenodd" d="M17.5298 17.2637L17.0823 17.3131V19.1862C17.0823 19.5207 17.269 19.6984 17.6231 19.6984C17.6418 19.6989 17.6599 19.6995 17.678 19.6995C17.83 19.6995 17.9401 19.6731 17.945 19.6719L17.9586 19.6681V19.3002L17.9392 19.3018C17.8333 19.3093 17.7914 19.3093 17.7197 19.305C17.5518 19.2944 17.5298 19.1953 17.5298 19.1001V18.2761H17.9586V17.8654H17.5298V17.2637Z" fill="white"/>
<path fill-rule="evenodd" clip-rule="evenodd" d="M4.83577 18.7648H5.24065C5.83125 18.7648 6.17002 18.4641 6.17002 17.9394C6.17002 17.4129 5.84984 17.1113 5.29254 17.1113H4.36853V19.6766H4.83577V18.7648ZM4.83577 17.5556H5.26086C5.42163 17.5556 5.69068 17.6046 5.69068 17.9325C5.69068 18.1866 5.52603 18.3202 5.21471 18.3202H4.83577V17.5556Z" fill="white"/>
<path fill-rule="evenodd" clip-rule="evenodd" d="M8.3029 20.3152H8.78137L9.75851 17.8885L9.76849 17.8633H9.28977L8.8471 18.9784L8.37699 17.8739L8.37225 17.8633H7.88892L8.61947 19.5269L8.3029 20.3152Z" fill="white"/>
<path fill-rule="evenodd" clip-rule="evenodd" d="M12.0492 17.8436C11.8203 17.8436 11.6131 17.9326 11.4625 18.0948C11.3499 17.9307 11.1663 17.8436 10.9276 17.8436C10.7594 17.8436 10.5955 17.9039 10.4614 18.0125V17.8632H10.014V19.6766H10.4614V18.7756C10.4614 18.4728 10.6164 18.2691 10.8481 18.2691C10.9973 18.2691 11.1497 18.3201 11.1497 18.7V19.6766H11.5966V18.7756C11.5966 18.4776 11.7494 18.2691 11.9687 18.2691C12.1113 18.2691 12.2637 18.3018 12.2637 18.7034V19.6766H12.7105V18.6301C12.7105 18.1076 12.488 17.8436 12.0492 17.8436Z" fill="white"/>
<path fill-rule="evenodd" clip-rule="evenodd" d="M16.0675 17.8436C15.8774 17.8436 15.697 17.9052 15.5552 18.0179V17.8632H15.1077V19.6766H15.5552V18.7708C15.5552 18.4614 15.7187 18.2691 15.9815 18.2691C16.1368 18.2691 16.2946 18.3196 16.2946 18.6933V19.6787H16.744V18.6175C16.744 18.1264 16.497 17.8436 16.0675 17.8436Z" fill="white"/>
<path fill-rule="evenodd" clip-rule="evenodd" d="M19.0815 18.577L19.0037 18.5475C18.8384 18.4841 18.7498 18.437 18.7498 18.3705C18.7498 18.3082 18.8341 18.2662 18.9124 18.2662C19.0484 18.2662 19.1763 18.3165 19.2907 18.416L19.3665 18.4809L19.6061 18.117L19.545 18.0669C19.3624 17.9172 19.1602 17.8445 18.9258 17.8445C18.5671 17.8445 18.2959 18.0707 18.2959 18.3705C18.2959 18.7349 18.5802 18.865 18.8477 18.9581L18.8865 18.9722C18.9027 18.9784 18.9203 18.9839 18.9389 18.9896C19.0116 19.0128 19.088 19.037 19.1424 19.0813C19.1757 19.1085 19.1866 19.1512 19.1713 19.1908C19.1639 19.212 19.1482 19.2309 19.1293 19.2443C19.1001 19.2647 19.0592 19.2756 19.0062 19.2793C18.9167 19.2855 18.8202 19.2703 18.7382 19.2372C18.6953 19.2204 18.5884 19.1727 18.5138 19.1039L18.4396 19.0343L18.197 19.3898L18.2549 19.4398C18.448 19.6122 18.6833 19.6996 18.9554 19.6996C19.4552 19.6996 19.6314 19.3996 19.6314 19.1421C19.6328 18.7866 19.3903 18.6943 19.0815 18.577Z" fill="white"/>
<path fill-rule="evenodd" clip-rule="evenodd" d="M6.4674 19.5259C6.47089 19.5297 6.47426 19.5324 6.479 19.5359L6.49646 19.55C6.50108 19.5534 6.50594 19.5569 6.51081 19.5597L6.52365 19.5692C6.5269 19.5717 6.52814 19.5723 6.52976 19.5723L6.53463 19.5768C6.53463 19.5768 6.54286 19.5821 6.55845 19.5914C6.60236 19.6172 6.64926 19.6374 6.69628 19.6508L6.70838 19.654C6.7115 19.6563 6.71462 19.6568 6.71761 19.6576C6.80505 19.6842 6.9067 19.7029 7.02083 19.7115C7.04503 19.7115 7.06985 19.7129 7.0943 19.7129C7.10403 19.7129 7.11388 19.7129 7.12411 19.7119C7.31008 19.7067 7.50628 19.6739 7.70997 19.6135L7.74165 19.6046V18.3979C7.74165 18.3901 7.74165 18.383 7.74065 18.374V18.3673C7.74065 18.3614 7.73916 18.355 7.73866 18.3487L7.73067 18.293L7.72494 18.2678C7.72332 18.2615 7.72144 18.2543 7.7197 18.2494L7.71745 18.2433C7.71683 18.2403 7.71483 18.2368 7.71483 18.2362L7.71134 18.223C7.71034 18.22 7.70997 18.2181 7.7091 18.2159L7.6935 18.181C7.69163 18.1745 7.68877 18.1696 7.68702 18.1669L7.68515 18.1619C7.65546 18.1025 7.61305 18.0457 7.56104 17.9992C7.50117 17.946 7.43082 17.9039 7.34975 17.8739C7.29486 17.8549 7.23574 17.8409 7.17163 17.8333C7.16839 17.8326 7.1644 17.8326 7.15928 17.8326C7.11837 17.8292 7.0812 17.8268 7.04565 17.8268C6.69952 17.8268 6.45505 17.9914 6.45355 17.9921L6.4316 18.0082L6.61533 18.2956L6.63791 18.286C6.76763 18.2251 6.88911 18.1934 6.99763 18.1934C7.18722 18.1934 7.29037 18.2915 7.3026 18.3601C7.30322 18.3627 7.30422 18.3649 7.30434 18.3673L7.30497 18.3724C7.30659 18.3753 7.30671 18.3775 7.30771 18.3802L7.30946 18.3937C7.31008 18.397 7.31008 18.4001 7.31008 18.4068L7.3117 18.4194V18.4285V18.5377H6.9536C6.53837 18.5377 6.29041 18.7601 6.29041 19.134C6.29041 19.2725 6.33992 19.3967 6.43447 19.4946C6.43834 19.5004 6.44831 19.5095 6.4674 19.5259ZM6.7206 19.1156C6.71699 19.0645 6.73445 19.0155 6.77187 18.9792C6.83436 18.917 6.93065 18.9034 7.00037 18.9034H7.3117V19.298C7.2416 19.3164 7.1629 19.326 7.07634 19.3276C7.06923 19.3276 7.06274 19.3267 7.05887 19.3267C7.05376 19.326 7.05089 19.326 7.0479 19.326C6.97593 19.3232 6.87315 19.308 6.79407 19.2499C6.75141 19.2178 6.72422 19.1694 6.7206 19.1156Z" fill="white"/>
<path fill-rule="evenodd" clip-rule="evenodd" d="M13.9178 17.8445C13.8313 17.8445 13.7405 17.8583 13.6507 17.8838C13.3732 17.964 13.1682 18.1619 13.0751 18.4401C12.9719 18.7457 13.021 19.0965 13.1992 19.3351C13.3784 19.5759 13.6172 19.6919 13.9278 19.6919C13.9986 19.6919 14.0751 19.6858 14.1535 19.6738C14.3784 19.6384 14.5543 19.5423 14.6911 19.3815L14.7027 19.3687L14.4183 19.1049L14.4064 19.1161C14.2897 19.2324 14.1387 19.2964 13.9853 19.2964C13.7405 19.2964 13.5334 19.1394 13.5037 18.9323L13.5001 18.9113H14.757L14.7582 18.8953C14.7875 18.6665 14.7541 18.4986 14.7199 18.397C14.5943 18.0621 14.279 17.8445 13.9178 17.8445ZM13.5109 18.5581C13.5261 18.4055 13.6812 18.2678 13.8579 18.251C14.098 18.227 14.2597 18.3347 14.322 18.5581H13.5109Z" fill="white"/>
<path fill-rule="evenodd" clip-rule="evenodd" d="M5.83986 21.5199C6.00351 21.3975 6.09406 21.2099 6.09406 20.9876C6.09406 20.5546 5.78922 20.3167 5.23554 20.3167H4.36829V22.8818H5.32622C5.8809 22.8818 6.21306 22.6078 6.21306 22.1464C6.21306 21.8655 6.07673 21.6379 5.83986 21.5199ZM4.83553 21.7809H5.25675C5.43349 21.7809 5.72948 21.8248 5.72948 22.1202C5.72948 22.3962 5.42563 22.437 5.24427 22.437H4.83553V21.7809ZM5.23267 21.3426H4.83553V20.7605H5.17542C5.61759 20.7605 5.61759 20.9742 5.61759 21.0448C5.61759 21.3219 5.32273 21.3426 5.23267 21.3426Z" fill="white"/>
<path fill-rule="evenodd" clip-rule="evenodd" d="M9.27392 21.0491C9.08221 21.0491 8.90235 21.1105 8.76127 21.2233V21.0685H8.31287V22.8818H8.76127V21.976C8.76127 21.6658 8.92517 21.4743 9.18823 21.4743C9.34277 21.4743 9.50043 21.5241 9.50043 21.8988V22.8842H9.94934V21.8233C9.94934 21.3309 9.702 21.0491 9.27392 21.0491Z" fill="white"/>
<path fill-rule="evenodd" clip-rule="evenodd" d="M7.93424 21.564C7.93424 21.5583 7.93349 21.552 7.93224 21.5457L7.92389 21.4898L7.90667 21.4217C7.90567 21.4185 7.90443 21.4156 7.90343 21.4122L7.89807 21.4004C7.89595 21.3953 7.89383 21.3899 7.89058 21.3833L7.88859 21.3778C7.88609 21.3723 7.8831 21.3666 7.87836 21.3585C7.85029 21.2996 7.80814 21.243 7.75562 21.1961C7.69625 21.1414 7.62503 21.0994 7.54445 21.0707C7.48907 21.0507 7.42895 21.0371 7.36359 21.0298H7.35411C7.31208 21.0253 7.27528 21.0239 7.24011 21.0239C6.90932 21.0239 6.67383 21.1715 6.64789 21.1889L6.62431 21.2044L6.79582 21.4717L6.80879 21.4932L6.83249 21.4828C6.96246 21.4213 7.08307 21.3904 7.19184 21.3904C7.38143 21.3904 7.48446 21.4877 7.49668 21.5577C7.49755 21.5618 7.4983 21.5648 7.49955 21.5683C7.50042 21.5711 7.50055 21.5741 7.50117 21.5779L7.50392 21.5898C7.50441 21.5926 7.50442 21.5969 7.50479 21.6023C7.50479 21.6058 7.50479 21.6078 7.50541 21.616C7.50629 21.6184 7.50629 21.6219 7.50629 21.6248V21.7331H7.14731C6.73208 21.7331 6.48486 21.9572 6.48486 22.3307C6.48486 22.4691 6.53338 22.5934 6.62818 22.6902C6.6298 22.6928 6.64128 22.7048 6.66248 22.7234L6.69042 22.7463C6.6979 22.7517 6.70601 22.7573 6.71312 22.7616L6.72422 22.7709L6.72796 22.7728C6.72796 22.7728 6.7367 22.7783 6.75303 22.788C6.79707 22.8133 6.84297 22.8335 6.89099 22.8474L6.8946 22.849C6.89997 22.8504 6.90633 22.8526 6.91194 22.8546C7.00125 22.8818 7.1034 22.9001 7.21504 22.9072C7.23886 22.9086 7.26356 22.9091 7.28875 22.9091C7.29799 22.9091 7.30784 22.9091 7.31832 22.9086C7.50279 22.9035 7.70049 22.8701 7.9038 22.8096L7.93511 22.8V21.5938V21.5711L7.93424 21.564ZM7.50629 22.1007V22.4941C7.43706 22.5126 7.35686 22.5223 7.27042 22.5244C7.25982 22.5236 7.25196 22.5229 7.24298 22.5229C7.16926 22.5195 7.06561 22.5041 6.98853 22.4461C6.945 22.4144 6.91843 22.3657 6.91494 22.3121C6.91082 22.2598 6.92916 22.2116 6.96645 22.1747C7.02782 22.113 7.12511 22.1007 7.19408 22.1007H7.50629Z" fill="white"/>
<path fill-rule="evenodd" clip-rule="evenodd" d="M12.5708 20.7323C12.5489 20.7168 12.5202 20.7153 12.5127 20.7153H11.1365C11.0707 20.7153 11.0167 20.7692 11.0167 20.8354C11.0167 20.9014 11.0707 20.9554 11.1365 20.9554L11.4945 20.9361C11.5256 21.0007 11.539 21.0639 11.543 21.1197H11.163C11.1031 21.1197 11.0548 21.1686 11.0548 21.2286C11.0548 21.2399 11.0573 21.2509 11.0603 21.2611C11.0739 21.3051 11.1144 21.3372 11.163 21.3372L11.5229 21.3165C11.5217 21.3194 11.5211 21.3219 11.5211 21.3219C11.4536 21.5711 11.046 21.5583 11.046 21.5583H10.8983H10.7737V21.3989V20.3152H10.3274V22.8818H10.7737V21.9827H10.8471H10.933C10.9402 21.9827 10.9417 21.9843 10.9463 21.9898C11.0628 22.1646 11.1801 22.3389 11.2976 22.5139L11.5464 22.8818H12.1062L11.5551 22.0864C11.5193 22.0339 11.4835 21.9827 11.4484 21.9303L11.4563 21.9276C11.4664 21.925 11.4765 21.9215 11.4869 21.918C11.5985 21.8779 11.6917 21.8249 11.7664 21.7546C11.8899 21.6408 11.9626 21.494 11.9892 21.3079C11.9902 21.3001 11.9904 21.2916 11.9917 21.2847L12.364 21.2598C12.404 21.2568 12.4195 21.2387 12.4299 21.2216C12.4425 21.196 12.4363 21.1743 12.435 21.1686C12.425 21.1372 12.3988 21.1208 12.3559 21.1197H11.9988C11.9975 21.0883 11.9959 21.0553 11.9919 21.0225C11.9878 20.984 11.9808 20.9461 11.9722 20.9093C12.097 20.9014 12.2161 20.8946 12.3117 20.8887L12.5187 20.877C12.536 20.8764 12.5673 20.8694 12.588 20.8422C12.597 20.8288 12.6019 20.8127 12.6019 20.7966C12.6019 20.7715 12.5919 20.7489 12.5708 20.7323Z" fill="white"/>
</g>
<defs>
<clipPath id="clip0_45_4219">
<rect width="24" height="24" fill="white"/>
</clipPath>
</defs>
</svg>
