<svg width="24" height="24" viewBox="0 0 24 24" fill="none" xmlns="http://www.w3.org/2000/svg">
<g clip-path="url(#clip0_45_4150)">
<path fill-rule="evenodd" clip-rule="evenodd" d="M5.89575 12.4749H8.42144L7.1574 9.46954L5.89575 12.4749Z" fill="#F47920"/>
<path fill-rule="evenodd" clip-rule="evenodd" d="M20.3398 12.319C20.3398 15.0774 18.7903 16.4301 16.3462 16.4301C13.9021 16.4301 12.403 15.063 12.403 12.3838V8.10234C12.403 7.54347 12.8467 7.09974 13.4056 7.09974C13.9644 7.09974 14.4058 7.54347 14.4058 8.10234V12.331C14.4058 13.8157 15.1469 14.5833 16.3702 14.5833C17.5934 14.5833 18.3346 13.8421 18.3346 12.3958V8.10234C18.3346 7.54347 18.7759 7.09974 19.3372 7.09974C19.8985 7.09974 20.3398 7.54347 20.3398 8.10234V12.319ZM10.7384 16.3654C10.2706 16.3654 9.95643 16.0919 9.77414 15.6746L9.1625 14.2427H5.15451L4.51649 15.7394C4.34619 16.1303 4.008 16.363 3.59304 16.363C3.07256 16.363 2.6696 15.9456 2.6696 15.4251C2.6696 15.2836 2.72237 15.1397 2.78713 14.9958L5.96042 7.8265C6.18109 7.33 6.58405 7.03258 7.13092 7.03258H7.24845C7.79532 7.03258 8.18629 7.3324 8.40696 7.8265L11.5827 14.9958C11.6474 15.1397 11.6882 15.2692 11.6882 15.3988C11.6882 15.9336 11.2708 16.363 10.7384 16.363V16.3654ZM12 0C5.37278 0 0 5.37278 0 12C0 18.6272 5.37278 24 12 24C18.6272 24 24 18.6272 24 12C24 5.37278 18.6248 0 11.9976 0H12Z" fill="#F47920"/>
</g>
<defs>
<clipPath id="clip0_45_4150">
<rect width="24" height="24" fill="white"/>
</clipPath>
</defs>
</svg>
