<svg width="24" height="24" viewBox="0 0 24 24" fill="none" xmlns="http://www.w3.org/2000/svg">
<g clip-path="url(#clip0_45_4153)">
<path d="M11.6491 0.0079174C5.19075 0.200953 0 5.48432 0 11.9884C0 18.6174 5.37263 23.9889 11.9938 23.9889C14.1886 23.9889 20.1482 23.0695 22.9556 16.8735C21.7516 17.3633 20.4361 17.6344 19.058 17.6344C13.3395 17.6344 8.71894 13.9288 8.71113 8.2125C8.70555 5.27457 9.59374 2.9113 10.9539 1.1684C11.2295 0.813576 11.6837 0.317043 11.9938 0.000154495C11.9771 0.00127029 11.6658 0.0079174 11.6491 0.0079174Z" fill="url(#paint0_linear_45_4153)"/>
<mask id="mask0_45_4153" style="mask-type:luminance" maskUnits="userSpaceOnUse" x="1" y="0" width="23" height="24">
<path d="M1.04443 3.43323e-05H24V24H1.04443V3.43323e-05Z" fill="white"/>
</mask>
<g mask="url(#mask0_45_4153)">
<path d="M13.0706 1.16829C14.8693 3.56951 15.2866 5.86469 15.2866 8.22239C15.2866 13.9387 10.6538 17.6454 4.93973 17.6454C3.5617 17.6454 2.24951 17.3732 1.04443 16.8844C3.90537 23.2579 9.80578 24 12.0006 24C18.6263 24 24 18.6273 24 11.9994C24 5.49313 18.8081 0.209755 12.3476 0.0167198C12.3309 0.0167198 12.0128 0.00115013 11.9939 3.43323e-05C12.3052 0.316925 12.8017 0.805647 13.0706 1.16829Z" fill="url(#paint1_linear_45_4153)"/>
<path d="M10.7576 1.43404C9.4989 3.17374 8.6988 5.4435 8.70995 8.16967C8.72111 11.1625 9.99883 13.6588 12.0086 15.3081C14.0061 13.6588 15.3284 11.2105 15.2894 8.22323C15.2637 5.98695 15.0539 3.89573 13.1256 1.23876C12.8187 0.814711 12.282 0.265683 12.0019 0.00121212C11.9695 0.00121212 11.2486 0.753336 10.7576 1.43404Z" fill="white"/>
</g>
</g>
<defs>
<linearGradient id="paint0_linear_45_4153" x1="-0.044632" y1="0.877181" x2="14.9262" y2="18.9243" gradientUnits="userSpaceOnUse">
<stop stop-color="#EF3B23"/>
<stop offset="1" stop-color="#8B131E"/>
</linearGradient>
<linearGradient id="paint1_linear_45_4153" x1="0.135048" y1="11.9994" x2="20.2353" y2="11.9994" gradientUnits="userSpaceOnUse">
<stop stop-color="#B7212F"/>
<stop offset="1" stop-color="#EF3B23"/>
</linearGradient>
<clipPath id="clip0_45_4153">
<rect width="24" height="24" fill="white"/>
</clipPath>
</defs>
</svg>
