<svg width="24" height="24" viewBox="0 0 24 24" fill="none" xmlns="http://www.w3.org/2000/svg">
<g clip-path="url(#clip0_45_4176)">
<path fill-rule="evenodd" clip-rule="evenodd" d="M12 2.28882e-05C18.627 2.28882e-05 24 5.37228 24 12C24 18.6271 18.627 24 12 24C5.37226 24 0 18.6271 0 12C0 5.37228 5.37226 2.28882e-05 12 2.28882e-05Z" fill="white"/>
<path fill-rule="evenodd" clip-rule="evenodd" d="M21.3705 4.53639C23.024 6.57165 23.9999 9.20033 23.9999 11.9986C23.9999 14.8395 23.024 17.4269 21.3705 19.4614V18.9107C22.8124 16.9603 23.6601 14.5859 23.6601 11.9986C23.6601 9.41262 22.8124 7.03826 21.3705 5.08777V4.53639ZM21.3705 16.1966L21.498 16.2814L21.8799 16.0705L21.3705 15.8582V16.1966ZM21.3705 15.1793C21.7096 15.2214 22.1762 14.8823 22.2183 14.3736L21.9219 14.4157C21.7944 14.7127 21.6249 14.925 21.3705 14.8395V15.1793ZM21.3705 14.1186L21.4133 14.0766L21.498 14.2034L21.7944 13.949C21.3705 13.3129 21.4133 12.7622 21.6669 12.7202C21.9646 12.6774 22.1762 13.1441 22.1335 13.61L22.4733 13.3984C22.3458 12.847 22.0494 12.5079 21.6249 12.5079C21.5401 12.5079 21.4553 12.5499 21.3705 12.5934V14.1186ZM21.3705 11.9986H22.3458L22.5581 11.6602H21.3705V11.9986ZM21.3705 10.6001H22.0067L22.1762 10.2183L21.3705 10.2604V10.6001ZM21.3705 9.79375H22.0067L22.1762 9.45465H21.3705V9.79375ZM19.42 2.5859C20.141 3.17931 20.7771 3.81547 21.3705 4.53639V5.08777C20.8192 4.32411 20.141 3.64592 19.42 3.0518V2.5859ZM21.3705 19.4614C20.7771 20.1824 20.141 20.8612 19.42 21.4126V20.988C20.141 20.3519 20.8192 19.6737 21.3705 18.9107V19.4614ZM21.3705 9.45465V9.79375H20.6069L20.8192 9.45465H21.3705ZM21.3705 10.2604V10.6001H20.5648L20.8192 10.2604H21.3705ZM21.3705 11.6602V11.9986H20.9467C20.9467 12.3384 20.9039 12.6774 20.8619 12.9745H21.1582C21.1582 12.805 21.243 12.6774 21.3705 12.5934V14.1186C21.1582 14.4584 21.1162 14.7127 21.3278 14.8395H21.3705V15.1793C21.201 15.1366 21.0735 15.0518 20.9894 14.8395C20.8192 14.4584 20.9894 14.0338 21.2858 13.6527L21.201 13.3129H20.8192C20.7344 14.0338 20.5228 14.7127 20.2685 15.3916L21.3705 15.8582V16.1966L20.141 15.6887C20.0569 15.8582 19.9714 16.0705 19.8439 16.2393C20.3953 16.1118 21.243 16.3661 21.0314 17.2994C20.9467 17.7232 20.4373 18.063 20.0989 17.8935C19.5896 17.6812 19.6323 17.1298 20.141 16.79C20.183 16.8755 20.2264 16.9603 20.3098 17.045C19.9714 17.2994 19.9287 17.6812 20.2685 17.5957C20.5228 17.5537 20.9467 17.045 20.4373 16.5784C20.2685 16.4089 19.9287 16.4509 19.6744 16.5364C19.5896 16.7059 19.5048 16.8327 19.42 16.9603V16.6212C20.2685 15.2641 20.7344 13.6947 20.6923 11.9986C20.6923 11.787 20.6923 11.5754 20.6496 11.3204H20.9039C20.9039 11.4479 20.9039 11.5754 20.9039 11.6602H21.3705ZM19.42 20.1824H19.6316V19.8853H19.42V20.1824ZM19.42 18.6978V18.1898C19.5476 18.1898 19.6744 18.2746 19.6744 18.4434C19.6744 18.571 19.5476 18.6978 19.42 18.6978ZM19.42 14.5859C19.7171 13.7802 19.8439 12.889 19.8439 11.9986C19.8439 11.1088 19.7171 10.2183 19.42 9.41262V10.8545C19.4621 11.2363 19.5048 11.6174 19.5048 11.9986C19.5048 12.3804 19.4621 12.805 19.42 13.1441V14.5859ZM19.42 8.77647V8.43737C19.4621 8.69169 19.7171 8.77647 20.183 8.77647V8.94601C19.8439 8.98875 19.5896 8.90398 19.42 8.77647ZM19.42 8.30986V7.37735L20.3525 5.76595L19.42 5.9355V5.72392L21.1162 5.42686L19.5896 7.88599C19.5048 8.05624 19.42 8.18305 19.42 8.30986ZM19.42 4.19659L19.6744 3.68795C19.5896 3.73069 19.5048 3.77273 19.42 3.77273V4.19659ZM16.7493 0.974503C17.6811 1.39837 18.615 1.94975 19.42 2.5859V3.0518C18.615 2.37362 17.6811 1.82294 16.7493 1.35633V0.974503ZM19.42 21.4126C18.615 22.0481 17.6811 22.5994 16.7493 23.0233V22.6422C17.6811 22.2176 18.615 21.6242 19.42 20.988V21.4126ZM19.42 3.77273V4.19659L18.615 5.85073L19.42 5.72392V5.9355L18.0209 6.14709L18.9534 4.15456C18.3173 4.49365 17.4695 4.83275 16.7493 4.87548V4.6632C17.5971 4.62116 18.5723 4.15456 19.42 3.77273ZM19.42 7.37735V8.30986C19.42 8.3526 19.42 8.39463 19.42 8.43737V8.77647C19.0816 8.52214 18.9962 8.09758 19.2085 7.71645L19.42 7.37735ZM19.42 9.41262C18.9114 7.92873 17.9362 6.65643 16.7493 5.76595V6.18982C18.1484 7.33462 19.123 8.98875 19.42 10.8545V9.41262ZM19.42 13.1441V14.5859C18.9114 16.0705 17.9362 17.3414 16.7493 18.2746V17.808C18.1484 16.6632 19.123 15.0091 19.42 13.1441ZM19.42 16.6212C18.7419 17.6812 17.8086 18.6137 16.7493 19.2919V19.5462C17.2573 19.2498 17.7246 18.8687 18.1484 18.4862L18.36 18.7832C17.7246 19.0383 17.3848 19.5462 17.7246 19.8433C17.8934 19.9708 18.4028 19.7585 18.615 19.5462C18.8266 19.2919 19.0816 19.4194 18.9114 19.6737C18.7419 19.9287 18.4875 20.0555 18.1484 20.1403V20.3092L18.615 20.2251L18.4875 20.5221L18.7419 20.5642L18.8687 20.2671L19.42 20.1824V19.8853H19.123C19.378 19.5889 19.4621 19.2498 19.165 19.0796C18.8687 18.8687 18.615 19.1651 18.36 19.4194C18.0637 19.7157 17.8934 19.3767 18.1057 19.2498C18.3173 19.0796 18.5723 18.9107 18.7846 18.7412L18.4028 18.2319C18.7846 17.8507 19.123 17.4269 19.42 16.9603V16.6212ZM19.42 18.1898C19.2505 18.1898 19.165 18.2746 19.165 18.4434C19.165 18.571 19.2505 18.6978 19.42 18.6978V18.1898ZM16.7493 20.6483L17.0036 21.2003H17.3848L16.7493 19.9287V20.6483ZM16.7493 16.1966V15.9002H17.4275V8.43737H16.7493V8.09758H17.7246V16.1966H16.7493ZM16.7493 15.2641C16.8761 15.1366 16.9609 14.9677 16.9609 14.7975C16.9609 14.6272 16.8761 14.4584 16.7493 14.3736V15.2641ZM16.7493 14.2461C16.7907 14.2034 16.8761 14.0766 16.8761 13.907C16.8761 13.7802 16.8341 13.6527 16.7493 13.5259V14.2461ZM16.7493 12.3804V9.92196H16.8761L17.0877 10.3451H16.7907V12.4231L16.7493 12.3804ZM16.7493 9.66694V9.11556C16.8761 9.11556 17.0036 9.24307 17.0036 9.41262C17.0036 9.53943 16.8761 9.66694 16.7493 9.66694ZM16.0284 0.720182C16.2407 0.804956 16.4943 0.88973 16.7493 0.974503V1.35633C16.4943 1.27156 16.2407 1.18609 16.0284 1.05998V0.720182ZM16.7493 23.0233C16.4943 23.1088 16.2407 23.1929 16.0284 23.3204V22.9385C16.2407 22.8545 16.4943 22.727 16.7493 22.6422V23.0233ZM16.7493 4.6632V4.87548C16.4516 4.87548 16.2407 4.87548 16.0284 4.79071V4.57913C16.2407 4.6632 16.4943 4.6632 16.7493 4.6632ZM16.7493 5.76595V6.18982C16.4943 6.02028 16.2827 5.85073 16.0284 5.68118V5.25731C16.2407 5.42686 16.4943 5.55367 16.7493 5.76595ZM16.0284 8.09758H16.7493V8.43737H16.0284V8.09758ZM16.7493 9.11556V9.66694C16.5791 9.66694 16.4516 9.53943 16.4516 9.41262C16.4516 9.24307 16.5791 9.11556 16.7493 9.11556ZM16.7493 9.92196H16.6218C16.3668 9.70967 16.2407 9.41262 16.0284 9.1583V9.49669C16.1132 9.6249 16.2407 9.79375 16.3668 9.92196H16.2407C16.1552 9.83648 16.0704 9.79375 16.0284 9.70967V10.3879H16.3668V10.8965C16.2827 10.7697 16.1552 10.6849 16.0284 10.6422V10.8965C16.1552 10.8965 16.2827 10.9392 16.3248 11.024C16.3248 11.024 16.3248 11.024 16.3668 11.024V11.2363C16.3248 11.2783 16.2407 11.3631 16.1552 11.4051L16.0284 11.1936V11.787C16.1552 11.7442 16.2827 11.6602 16.3668 11.5754V12.1688L16.7493 12.3804V9.92196ZM16.7493 13.5259V14.2461C16.7066 14.2888 16.6639 14.2888 16.6218 14.3309C16.6639 14.3309 16.7066 14.3309 16.7493 14.3736V15.2641C16.6218 15.3916 16.4943 15.4336 16.1132 15.4336H16.0284V15.0945H16.1979C16.4102 15.0945 16.4943 14.9677 16.4943 14.7554C16.4943 14.5859 16.3668 14.5004 16.1979 14.5004H16.0284V14.1613H16.1552C16.3248 14.1613 16.4516 14.1186 16.4516 13.949C16.4516 13.7802 16.3248 13.7375 16.1552 13.7375H16.0284V13.3556H16.2407C16.4943 13.3556 16.6218 13.4404 16.7493 13.5259ZM16.0284 15.9002H16.7493V16.1966H16.0284V15.9002ZM16.7493 17.808V18.2746C16.4943 18.4434 16.2407 18.6137 16.0284 18.7412V18.3173C16.2827 18.1898 16.4943 18.0203 16.7493 17.808ZM16.7493 19.2919V19.5462C16.6639 19.5889 16.6218 19.6317 16.5791 19.6317L16.7493 19.9287V20.6483L16.6218 20.4794L16.0284 20.7765V20.4374L16.4943 20.1824L16.2827 19.8433C16.1979 19.8853 16.1132 19.9287 16.0284 19.9708V19.7157C16.2407 19.5889 16.4943 19.4614 16.7493 19.2919ZM15.8589 0.635408C15.9009 0.678144 15.9429 0.678146 16.0284 0.720182V1.05998C15.9429 1.05998 15.9009 1.05998 15.8589 1.01724V0.635408ZM16.0284 23.3204C15.9429 23.3204 15.9009 23.3204 15.8589 23.3624V22.9813C15.9009 22.9813 15.9429 22.9385 16.0284 22.9385V23.3204ZM16.0284 4.57913V4.79071C15.9429 4.79071 15.9009 4.74797 15.8589 4.74797V4.53639C15.9009 4.53639 15.9429 4.57913 16.0284 4.57913ZM16.0284 5.25731V5.68118C15.9857 5.63844 15.9009 5.59641 15.8589 5.59641V5.17254C15.9009 5.21458 15.9429 5.21458 16.0284 5.25731ZM15.8589 8.09758H16.0284V8.43737H15.8589V8.09758ZM16.0284 9.1583V9.49669C15.9857 9.41262 15.9009 9.37058 15.8589 9.32784V9.03079C15.9009 9.07352 15.9857 9.11556 16.0284 9.1583ZM16.0284 9.70967V10.3879H15.8589V9.92196V9.58216C15.9009 9.6249 15.9429 9.66694 16.0284 9.70967ZM16.0284 10.6422V10.8965C15.9857 10.8965 15.9009 10.9392 15.8589 10.9392V10.6422C15.9009 10.6422 15.9857 10.6422 16.0284 10.6422ZM16.0284 11.1936V11.787C15.9857 11.787 15.9009 11.787 15.8589 11.787V11.4906H15.9009L15.8589 11.4479V10.9813L16.0284 11.1936ZM15.8589 13.3556H16.0284V13.7375H15.8589V13.3556ZM15.8589 14.1613H16.0284V14.5004H15.8589V14.1613ZM15.8589 15.0945H16.0284V15.4336H15.8589V15.0945ZM15.8589 15.9002H16.0284V16.1966H15.8589V15.9002ZM16.0284 18.3173V18.7412C15.9429 18.7832 15.9009 18.7832 15.8589 18.826V18.4014C15.9009 18.4014 15.9857 18.3594 16.0284 18.3173ZM16.0284 19.7157V19.9708C15.9857 20.0128 15.9009 20.0128 15.8589 20.0555V19.8012C15.9009 19.7585 15.9857 19.7585 16.0284 19.7157ZM16.0284 20.4374V20.7765L15.9429 20.8185C16.0284 21.1583 15.9857 21.454 15.8589 21.6669V20.4794L16.0284 20.4374ZM15.6459 0.593374C15.7313 0.593374 15.8168 0.635408 15.8589 0.635408V1.01724C15.8168 1.01724 15.7313 0.974503 15.6459 0.974503V0.593374ZM15.8589 23.3624C15.8168 23.3624 15.7313 23.4051 15.6459 23.4051V23.0661C15.7313 23.0233 15.8168 23.0233 15.8589 22.9813V23.3624ZM15.8589 4.53639V4.74797C15.7734 4.70664 15.7313 4.6632 15.6459 4.62116V4.45162C15.7313 4.49365 15.8168 4.49365 15.8589 4.53639ZM15.8589 5.17254V5.59641C15.8168 5.55367 15.7313 5.51163 15.6459 5.4689V5.04503C15.7313 5.08777 15.8168 5.1298 15.8589 5.17254ZM15.6459 8.09758H15.8589V8.43737H15.6459V8.09758ZM15.8589 9.03079V9.32784C15.8168 9.24307 15.7734 9.20033 15.7313 9.1583C15.6886 9.1583 15.6886 9.11556 15.6459 9.11556V8.86054C15.6886 8.86054 15.6886 8.90398 15.6886 8.90398C15.7734 8.94601 15.8168 8.98875 15.8589 9.03079ZM15.8589 9.58216V9.92196L15.6459 9.75171V9.45465C15.7313 9.49669 15.8168 9.53943 15.8589 9.58216ZM15.6459 9.92196H15.8589V10.3879L15.6459 10.3886V9.92196ZM15.8589 10.6422V11.4479L15.6459 11.1508V10.6422C15.6886 10.6422 15.7313 10.6422 15.7734 10.6422C15.8168 10.6422 15.8168 10.6422 15.8589 10.6422ZM15.8589 11.4906V11.787C15.7734 11.787 15.7313 11.787 15.6459 11.7442V11.4906C15.7313 11.4906 15.7734 11.4906 15.8589 11.4906ZM15.6459 13.3556H15.8589V13.7375H15.6459V13.3556ZM15.6459 14.1613H15.8589V14.5004H15.6459V14.1613ZM15.6459 15.0945H15.8589V15.4336H15.6459V15.0945ZM15.6459 15.9002H15.8589V16.1966H15.6459V15.9002ZM15.8589 18.4014V18.826C15.8168 18.8687 15.7313 18.9107 15.6459 18.9528V18.5289C15.7313 18.4862 15.8168 18.4434 15.8589 18.4014ZM15.8589 19.8012V20.0555C15.8168 20.0555 15.7313 20.0976 15.6459 20.1403V19.8853C15.7313 19.8433 15.8168 19.8012 15.8589 19.8012ZM15.8589 20.4794V21.6669C15.8168 21.7517 15.7313 21.8365 15.6459 21.8785V20.2251L15.7734 20.5221L15.8589 20.4794ZM15.3495 0.507898C15.4343 0.507898 15.5618 0.550636 15.6459 0.593374V0.974503C15.5618 0.931767 15.4343 0.88973 15.3495 0.847692V0.507898ZM15.6459 23.4051C15.5618 23.4479 15.4343 23.4899 15.3495 23.5327V23.1508C15.4343 23.1088 15.5618 23.1088 15.6459 23.0661V23.4051ZM15.6459 4.45162V4.62116C15.6459 4.62116 15.6459 4.62116 15.6459 4.57913V4.40888C15.6459 4.40888 15.6459 4.40888 15.6459 4.45162ZM15.6459 5.04503V5.4689C15.5618 5.38482 15.4343 5.34209 15.3495 5.29935V4.91822C15.4343 4.96026 15.5618 5.00299 15.6459 5.04503ZM15.3495 8.09758H15.6459V8.43737H15.3495V8.09758ZM15.6459 8.86054V9.11556C15.5618 9.07352 15.4763 9.03079 15.3923 9.03079H15.3495V8.73443C15.4343 8.77647 15.5618 8.8192 15.6459 8.86054ZM15.6459 9.45465V9.75171L15.3923 9.58216H15.3495V9.28581C15.4343 9.28581 15.5191 9.32784 15.6045 9.41262C15.6045 9.41262 15.6459 9.41262 15.6459 9.45465ZM15.3495 9.92196H15.6459V10.3886H15.3495V9.92196ZM15.6459 10.6422V11.1508L15.6045 11.024C15.4343 11.1508 15.3923 11.2783 15.4763 11.4051C15.5191 11.4479 15.5618 11.4906 15.6459 11.4906V11.7442C15.5191 11.7442 15.4343 11.6602 15.3495 11.6174V10.7697C15.4343 10.6849 15.5191 10.6422 15.6459 10.6422ZM15.3495 13.3556H15.6459V15.4336H15.3495V13.3556ZM15.3495 15.9002H15.6459V16.1966H15.3495V15.9002ZM15.6459 18.5289V18.9528C15.5618 18.9955 15.4343 19.0383 15.3495 19.1223V18.6978C15.4343 18.6557 15.5618 18.6137 15.6459 18.5289ZM15.6459 19.8853V20.1403C15.6459 20.1403 15.6459 20.1403 15.6045 20.1403L15.6459 20.2251V21.8785C15.5618 21.9213 15.4343 21.9213 15.3495 21.9213V21.709C15.6045 21.7517 15.7313 21.3699 15.5618 20.988C15.4763 20.988 15.3923 21.0308 15.3495 21.0308V20.691C15.3923 20.6483 15.3923 20.6483 15.4343 20.6069L15.3495 20.3946V20.0128C15.4343 19.9708 15.5618 19.9287 15.6459 19.8853ZM11.9999 -4.00543e-05C13.144 -4.00543e-05 14.2895 0.169504 15.3495 0.507898V0.847692C14.2895 0.550636 13.144 0.380388 11.9999 0.380388V-4.00543e-05ZM15.3495 23.5327C14.2895 23.829 13.144 23.9986 11.9999 23.9986V23.6602C13.144 23.6602 14.2895 23.4899 15.3495 23.1508V23.5327ZM15.3495 4.91822V5.29935C14.3315 4.79071 13.1874 4.49365 11.9999 4.49365V4.15456C13.1874 4.15456 14.3315 4.40888 15.3495 4.91822ZM15.3495 8.09758H14.3315V15.9002H13.8236V15.4336H13.4411L13.2722 15.1793V14.2888C13.3997 14.1186 13.4838 14.2034 13.6533 13.8643L13.7381 13.61C13.8236 13.5679 13.8656 13.3984 13.8656 13.2281H13.5265C13.5265 13.5679 13.2295 13.6947 13.0599 13.6947V13.0593C13.1874 13.0172 13.2722 13.0172 13.4411 12.805L13.5686 12.5934C13.6533 12.5499 13.6961 12.5079 13.7381 12.4231V12.2536H13.3142L13.2722 12.5499H12.8056V12.1261C13.0172 11.9986 13.3142 11.8717 13.357 11.5754C13.3997 11.5754 13.5686 11.4479 13.6113 11.4479V11.1936H13.2722L13.144 11.4051C13.0599 11.5754 12.6781 11.5327 12.7208 11.5327V11.066C12.9324 10.9813 13.144 10.8545 13.2295 10.6849L13.4411 10.6001V10.2604H13.0599C13.0599 10.3879 12.9745 10.5147 12.8476 10.6001C12.7636 10.6001 12.7208 10.6001 12.6361 10.6001V10.1756C12.8476 10.0488 13.1027 9.96329 13.144 9.66694L13.357 9.58216V9.32784H12.9745C12.9745 9.41262 12.8476 9.53943 12.8056 9.6249H12.5933V9.28581C12.8056 9.1583 12.9324 8.98875 12.9745 8.73443L13.2295 8.69169V8.39463H12.8476C12.7636 8.77647 12.5933 8.77647 12.5086 8.73443V8.39463C12.7208 8.26782 12.7208 8.22509 12.9324 8.0128C13.1027 7.92873 13.2295 7.5469 13.0599 7.58894H12.8904C12.7636 7.58894 12.7636 7.80192 12.6781 7.88599C12.6361 7.88599 12.5086 7.92873 12.4238 7.92873V7.5469C12.6361 7.50486 12.8904 7.33462 12.9324 7.0796H13.0599C13.0599 7.03826 13.0599 6.95349 13.1027 6.86871C12.9745 6.86871 12.8476 6.86871 12.7636 6.86871C12.7208 7.03826 12.5933 7.12303 12.4665 7.16577C12.297 7.03826 12.2542 7.03826 12.2115 6.82597C12.2115 6.52892 12.5086 6.2746 12.297 5.9355L12.2542 5.72392C12.2542 5.38482 12.1267 5.34209 11.9999 5.21458V16.1966H15.3495V15.9002H14.5866V8.43737H15.3495V8.09758ZM15.3495 8.73443V9.03079H15.0952L14.9256 8.73443H15.3495ZM15.3495 9.28581V9.58216H15.1372L14.9256 9.24307C15.0525 9.24307 15.1372 9.24307 15.2647 9.24307C15.3068 9.24307 15.3068 9.24307 15.3495 9.28581ZM15.3495 9.92196V10.3886L15.1372 10.3879L14.9684 9.92196H15.3495ZM15.3495 10.7697V11.6174C15.2227 11.4906 15.1372 11.3631 15.1372 11.1936C15.0952 11.024 15.18 10.8545 15.3495 10.7697ZM15.2647 13.3556H15.3495V15.4336H15.2647V13.3556ZM15.3495 18.6978V19.1223C14.3315 19.5889 13.1874 19.8433 11.9999 19.8433V19.5049C13.1874 19.5049 14.3315 19.2071 15.3495 18.6978ZM15.3495 20.0128V20.3946L15.3068 20.3092C14.3315 20.691 13.3142 20.9033 12.2115 20.9033V21.454C12.5506 21.2851 12.8904 21.1156 13.1874 21.1583C13.7809 21.1583 13.9077 21.5394 13.7381 21.9633C13.5686 22.3451 13.0172 22.3031 12.6781 22.2604C12.7208 22.1756 12.7636 22.0481 12.8056 21.9213C13.1874 22.0053 13.6533 21.8365 13.5686 21.5815C13.4411 21.2851 12.9324 21.454 12.6361 21.6669C12.5086 21.7517 12.381 21.7937 12.2115 21.8785V22.5994L11.9999 22.4299V20.691C13.1874 20.691 14.2895 20.4374 15.3495 20.0128ZM15.3495 20.691C14.5866 21.0308 14.6713 21.6669 15.1372 21.8785C15.18 21.8785 15.2647 21.9213 15.3495 21.9213V21.709C15.3068 21.709 15.2227 21.6669 15.18 21.6669C14.9256 21.4967 14.9684 21.2003 15.3495 21.0308V20.691ZM11.9999 2.79818L12.8056 1.56862L13.4838 3.68795C13.6961 4.32411 14.5018 4.53639 15.0525 3.77273L14.9256 3.64592C14.459 4.24003 14.0779 4.1966 13.8656 3.51911L13.0172 0.762918L11.9999 2.45839V2.79818ZM11.9999 23.9986C10.6001 23.9986 9.20098 23.7442 7.92938 23.2776V22.8965C9.20098 23.3624 10.6001 23.6602 11.9999 23.6602V23.9986ZM7.92938 0.720182C9.20098 0.25428 10.6001 -4.00543e-05 11.9999 -4.00543e-05V0.380388C10.6001 0.380388 9.20098 0.635408 7.92938 1.10201V0.720182ZM11.9999 2.45839L11.7029 2.92499L10.7696 0.720182C10.3037 2.03522 9.96465 3.81546 8.69234 4.28207L8.81985 4.36684C9.75236 4.24003 10.3885 2.71271 10.6856 1.56862L11.5326 3.56114L11.9999 2.79818V2.45839ZM11.9999 4.15456V4.49365C10.516 4.49365 9.11621 4.96026 7.92938 5.72392V5.29935C9.11621 4.57913 10.516 4.15456 11.9999 4.15456ZM11.9999 5.21458C11.9572 5.17254 11.9151 5.08777 11.9151 4.96026C11.8731 4.87548 11.7456 4.83275 11.7029 4.91822C11.4485 5.1298 11.1522 4.91822 11.2362 5.59641L11.3638 5.9355C11.0247 6.18982 11.1942 6.44414 11.2783 6.78324C11.2783 6.86871 11.2783 6.95348 11.2783 7.03826L11.1942 7.16577C11.0667 7.12303 10.9399 7.03826 10.8972 6.86871C10.7696 6.86871 10.6856 6.86871 10.5581 6.86871C10.5581 6.95349 10.5581 7.03826 10.6001 7.0796H10.7276C10.7696 7.33462 10.9399 7.58894 11.1522 7.58894V7.97077C11.1087 7.97077 11.0247 7.97077 10.9826 7.97077C10.8972 7.84396 10.8551 7.63097 10.7276 7.63097H10.5581C10.3885 7.63097 10.5581 7.92873 10.7276 8.0128C10.7696 8.22509 10.9399 8.30986 11.1522 8.39463V8.73443C11.0247 8.77647 10.8124 8.77647 10.7276 8.39463H10.4313V8.69169L10.6428 8.73443C10.6856 8.98875 10.8551 9.1583 11.0667 9.28581V9.58216L10.8972 9.6249C10.8124 9.53943 10.7696 9.41262 10.7696 9.32784H10.3885V9.58216H10.5581C10.6001 9.87852 10.7696 10.0488 11.0247 10.1756V10.6001C10.9399 10.6001 10.8551 10.6001 10.8124 10.6001C10.6856 10.5147 10.6428 10.4299 10.6428 10.3451H10.2617V10.6001L10.4313 10.6422C10.5581 10.8117 10.7276 11.024 10.8972 11.066L10.9399 11.5327C10.9399 11.5327 10.5581 11.5754 10.5581 11.4051V11.1936H10.219C10.219 11.2783 10.219 11.3631 10.219 11.4479C10.2617 11.4479 10.3037 11.4906 10.3465 11.4906C10.474 11.7442 10.6428 11.9565 10.8551 12.1261L10.8124 12.5499H10.6001L10.5581 12.2536H10.1342V12.4231C10.1762 12.5079 10.2617 12.5499 10.3465 12.5499L10.3885 12.6774C10.516 12.9318 10.6428 13.0593 10.8124 13.0593V13.6947C10.6428 13.6947 10.4313 13.5679 10.3885 13.2709H10.0915V13.5259L10.2617 13.61C10.3465 13.9918 10.516 14.1613 10.7276 14.2888V15.1793L10.516 15.4757H10.1762V15.9002H9.66759V8.09758H7.92938V8.43737H9.37123V15.9002H7.92938V16.1966H11.9999V5.21458ZM11.9999 19.5049V19.8433C10.516 19.8433 9.11621 19.4194 7.92938 18.6978V18.3173C9.11621 19.0383 10.516 19.5049 11.9999 19.5049ZM11.9999 20.691C11.2362 20.691 10.474 20.5642 9.75236 20.3946L9.70963 20.0976H9.41327C9.15895 19.5889 8.81985 19.3346 8.43802 19.2498V19.5462C8.77712 19.5462 8.94736 19.8012 9.07417 20.1824C8.69234 20.0555 8.31051 19.8853 7.92938 19.6737V19.9287C8.05689 20.0128 8.14097 20.0555 8.22574 20.0976L8.14097 20.3519L7.92938 20.3092V20.6069C8.35325 20.6069 8.56483 20.7765 8.5235 20.988C8.48076 21.2003 8.22574 21.2431 7.92938 21.2003V21.5394C8.35325 21.4967 8.65031 21.3271 8.73508 21.0308C8.81985 20.7337 8.69234 20.5221 8.48076 20.4374L8.5235 20.2251C8.77712 20.3092 9.03214 20.4374 9.28576 20.4794L8.90393 21.7517L9.03214 22.1328L9.58282 20.6069C10.3465 20.8185 11.1087 20.9033 11.9151 20.9033L11.9572 21.6242C11.1522 21.9213 10.6856 21.9213 10.6428 21.6669C10.6001 21.454 10.9399 21.3271 11.4065 21.4967C11.4485 21.4126 11.5326 21.3271 11.6181 21.2851C11.2362 21.0728 10.8972 21.0728 10.6001 21.2431C10.0915 21.454 10.219 21.7937 10.5581 22.0053C10.9826 22.2176 11.4906 22.1328 11.9572 21.9633V22.3451L11.9999 22.4299V20.691ZM7.92938 15.4336V14.7127L8.01416 15.0091L8.39599 13.3556H8.9887V15.4336H8.60757V13.6947L8.22574 15.4336H7.92938ZM7.92938 11.3631V10.9392H8.35325V10.3879H7.92938V9.96329H8.90393L9.03214 10.3879H8.73508V12.5499L8.35325 12.2536V11.3631H7.92938ZM7.92938 5.00299C8.09893 4.79071 8.14097 4.49365 8.09893 4.15456H7.92938V5.00299ZM7.92938 23.2776C7.25049 23.0233 6.57231 22.727 5.93615 22.3451V21.9213C6.57231 22.3031 7.25049 22.6422 7.92938 22.8965V23.2776ZM5.93615 1.65339C6.57231 1.3136 7.25049 0.974504 7.92938 0.720182V1.10201C7.25049 1.35633 6.57231 1.69543 5.93615 2.07656V1.65339ZM7.92938 4.15456V5.00299C7.7171 5.29935 7.33527 5.42686 6.95344 5.25731L5.93615 4.79071V4.28207L7.08095 4.83275C7.7171 5.17254 8.01416 4.91822 7.92938 4.15456ZM7.92938 5.29935C7.16642 5.76596 6.48753 6.35937 5.93615 7.03826V7.58894C6.48753 6.86871 7.16642 6.18982 7.92938 5.72392V5.29935ZM7.92938 8.09758V8.43737H6.52957V15.9002H7.92938V16.1966H6.23251V8.09758H7.92938ZM7.92938 9.96329H6.86866L6.99617 10.3879H7.20846V10.9392C6.86866 11.066 6.82593 11.1936 7.03891 11.5327C7.12298 11.7022 7.29323 11.829 7.50551 11.829C7.63302 11.7022 7.59099 11.5754 7.59099 11.3631H7.92938V10.9392H7.59099V10.3879H7.92938V9.96329ZM7.92938 14.7127L7.63303 13.3556H6.99617V15.4336H7.42074V13.6947L7.80187 15.4336H7.92938V14.7127ZM7.92938 18.3173V18.6978C7.16642 18.2319 6.48753 17.6812 5.93615 16.9603V16.4089C6.48753 17.1718 7.16642 17.808 7.92938 18.3173ZM7.92938 19.6737V19.9287C7.88665 19.9287 7.80187 19.8853 7.7171 19.8433L7.84461 19.6317C7.88665 19.6317 7.92938 19.6737 7.92938 19.6737ZM7.92938 20.3092H7.80187C7.54755 19.8853 7.20846 19.6317 6.82593 19.6317C6.4455 19.6317 6.14914 19.9708 6.57231 20.8185L6.86866 20.691C6.61504 20.4374 6.48753 20.1403 6.69912 19.9708C6.86866 19.7585 7.12298 19.9287 7.378 20.3092L7.33527 20.3946L7.378 20.6483C7.59099 20.6069 7.80187 20.6069 7.92938 20.6069V20.3092ZM7.92938 21.2003V21.5394C7.84461 21.5394 7.75984 21.5394 7.63303 21.4967V21.1156C7.7171 21.1583 7.84461 21.2003 7.92938 21.2003ZM5.93615 17.7232C6.1057 17.7232 6.23251 17.5957 6.23251 17.4689C6.23251 17.2994 6.1057 17.2146 5.93615 17.2146V17.7232ZM5.93615 22.3451C5.89412 22.3031 5.85208 22.2604 5.80934 22.2604V21.8365C5.85208 21.8785 5.89412 21.9213 5.93615 21.9213V22.3451ZM5.80934 1.73746C5.85208 1.73746 5.89412 1.69543 5.93615 1.65339V2.07656C5.89412 2.1193 5.85208 2.1193 5.80934 2.16203V1.73746ZM5.93615 4.28207V4.79071L5.80934 4.70664V4.24003L5.93615 4.28207ZM5.93615 7.03826V7.58894C5.89412 7.67441 5.85208 7.75848 5.80934 7.80192V7.20781C5.85208 7.16577 5.89412 7.07959 5.93615 7.03826ZM5.93615 16.4089V16.9603C5.89412 16.9175 5.85208 16.8327 5.80934 16.79V16.1966C5.85208 16.2814 5.89412 16.3241 5.93615 16.4089ZM5.93615 17.2146V17.7232C5.89412 17.7232 5.85208 17.6812 5.80934 17.6812V17.2573C5.85208 17.2146 5.89412 17.2146 5.93615 17.2146ZM5.80934 18.3173V18.063C5.85208 18.1051 5.89412 18.1471 5.93615 18.1898L5.80934 18.3173ZM5.80934 22.2604C5.55502 22.0908 5.3007 21.9213 5.04638 21.7517V21.3271C5.3007 21.4967 5.55502 21.6669 5.80934 21.8365V22.2604ZM5.04638 2.24681C5.3007 2.07656 5.55502 1.90771 5.80934 1.73746V2.16203C5.55502 2.33158 5.3007 2.50113 5.04638 2.66997V2.24681ZM5.80934 4.24003V4.70664L5.04638 4.36684V3.8575L5.80934 4.24003ZM5.80934 7.20781V7.80192C5.51229 8.26782 5.25727 8.73443 5.04638 9.20033V8.39463C5.25727 7.97077 5.51229 7.58894 5.80934 7.20781ZM5.80934 16.1966V16.79C5.51229 16.4089 5.25727 16.027 5.04638 15.6032V14.7975C5.25727 15.3068 5.51229 15.7727 5.80934 16.1966ZM5.80934 17.2573V17.6812C5.72457 17.6391 5.68254 17.5537 5.68254 17.4689C5.68254 17.3414 5.72457 17.2994 5.80934 17.2573ZM5.80934 18.063C5.51229 17.808 5.25727 17.5109 5.04638 17.1718V17.4689L5.34204 17.8507L5.04638 18.063V18.4862L5.51229 18.1051C5.59776 18.1898 5.68254 18.2746 5.76661 18.3594L5.80934 18.3173V18.063ZM5.04638 6.44414V5.97824L5.21523 6.06301L5.04638 5.51163V4.79071L5.55503 6.61369L5.04638 6.44414ZM5.04638 21.7517C4.45157 21.3271 3.90089 20.8185 3.34951 20.3092V19.8012C3.85815 20.3519 4.45157 20.8612 5.04638 21.3271V21.7517ZM3.34951 3.68795C3.90089 3.17931 4.45157 2.66997 5.04638 2.24681V2.66997C4.45157 3.13728 3.85815 3.64592 3.34951 4.19659V3.68795ZM5.04638 3.8575L4.49501 3.60388L5.04638 5.51163V4.79071L4.91887 4.32411L5.04638 4.36684V3.8575ZM5.04638 5.97824V6.44414L3.47702 5.89347C4.11317 6.91075 4.8334 8.39463 4.28272 9.1583L4.11317 9.20033C4.53704 8.22509 3.94293 7.07959 3.34951 6.02028V5.38482L5.04638 5.97824ZM5.04638 8.39463C4.49501 9.45465 4.15591 10.6849 4.15591 11.9986C4.15591 13.3129 4.49501 14.5432 5.04638 15.6032V14.7975C4.70659 13.907 4.49501 12.9745 4.49501 11.9986C4.49501 11.024 4.70659 10.0915 5.04638 9.20033V8.39463ZM5.04638 17.1718V17.4689L4.74863 17.1298C4.62182 17.6812 4.32476 17.808 3.81612 17.5537C3.81612 17.9775 4.23998 18.1898 4.74863 18.2746L5.04638 18.063V18.4862L4.28272 19.1223L4.19725 18.7832L4.49501 18.4862C3.43429 18.1898 3.43429 17.6391 3.68931 17.0023C4.0277 17.4689 4.3675 17.4269 4.49501 16.79C4.28272 16.4937 4.11317 16.1546 3.94293 15.8155L3.34951 16.027V15.0518C3.47702 15.1793 3.51976 15.3916 3.60383 15.6032L3.81612 15.5184C3.64657 15.0945 3.47702 14.67 3.34951 14.2461V12.9318C3.43429 13.6947 3.60383 14.4157 3.90089 15.0945C4.11318 14.8395 4.19725 14.5432 4.0277 14.2461L4.28272 14.1186C4.41023 14.4584 4.3675 14.8823 4.11317 15.3916L4.23998 15.6452L4.15591 15.7307C4.41023 16.2393 4.70659 16.748 5.04638 17.1718ZM3.34951 20.3092C3.2227 20.1403 3.09519 20.0128 2.92565 19.8433V19.2919C3.09519 19.4614 3.2227 19.6317 3.34951 19.8012V20.3092ZM2.92565 4.15456C3.09519 4.02705 3.2227 3.8575 3.34951 3.68795V4.19659C3.2227 4.36684 3.09519 4.53639 2.92565 4.70664V4.15456ZM3.34951 5.38482V6.02028C3.2227 5.76595 3.05316 5.4689 2.92565 5.21458L3.34951 5.38482ZM3.34951 12.9318V14.2461C3.34951 14.1613 3.30748 14.0766 3.30748 13.949L2.92565 14.0338V13.6527L3.26474 13.61L3.17997 13.0172L2.92565 13.0593V12.7202L3.09519 12.6774C3.09519 12.4652 3.09519 12.2536 3.09519 11.9986H3.30748C3.30748 12.2956 3.34951 12.6347 3.34951 12.9318ZM3.34951 15.0518V16.027L3.30748 16.0705C3.2227 15.5604 3.09519 15.2214 2.92565 15.0945V14.7127C3.09519 14.7554 3.26474 14.8823 3.34951 15.0518ZM2.92565 16.2814L3.09519 16.0705C3.05316 15.985 3.01112 15.9423 2.92565 15.9002V16.2814ZM2.92565 10.6849V10.3451H3.34951L3.17997 10.6849H2.92565ZM2.92565 9.92196V9.53943H3.34951L3.2227 9.92196H2.92565ZM2.92565 19.8433C2.58655 19.4194 2.24746 18.9528 1.90836 18.4862V17.808C2.20542 18.3173 2.54452 18.826 2.92565 19.2919V19.8433ZM1.90836 5.51163C2.24746 5.04503 2.58655 4.57913 2.92565 4.15456V4.70664C2.54452 5.17254 2.20542 5.68118 1.90836 6.18982V5.51163ZM2.92565 5.21458V9.92196H1.90836V9.66694L1.99314 9.53943H2.92565V5.21458ZM2.92565 10.3451V10.6849H1.90836V10.4299L1.99314 10.3451H2.92565ZM2.92565 12.7202V13.0593H2.58655L2.67133 13.6947L2.92565 13.6527V14.0338L1.90836 14.1613V13.8643L2.28949 13.7802L2.20542 13.1441C2.11995 13.1441 1.99314 13.1013 1.90836 13.1013V12.7202C1.9504 12.7202 1.99314 12.7202 1.99314 12.7202C2.11995 12.6774 2.16198 12.5499 2.11995 12.4231C2.07791 12.2956 1.99314 12.2108 1.90836 12.2108V11.829C2.20542 11.787 2.50178 11.9986 2.58655 12.7202H2.92565ZM2.92565 14.7127V15.0945C2.88361 15.0518 2.84087 15.0518 2.7568 15.0518C2.37497 15.0518 2.41701 15.5604 2.62859 15.7727C2.7568 15.8155 2.84087 15.8155 2.92565 15.9002V16.2814L2.88361 16.3241L2.50178 16.2393L2.11995 16.4509C2.07791 16.4937 1.99314 16.5364 1.90836 16.5364V16.0705L1.9504 16.027L2.11995 16.1546L2.28949 15.985L1.90836 15.7727V15.4336L2.20542 15.6452C2.11995 15.0945 2.2895 14.7554 2.71336 14.7127C2.79884 14.7127 2.88361 14.7127 2.92565 14.7127ZM1.90836 18.4862C0.720836 16.6212 0.000610352 14.3736 0.000610352 11.9986C0.000610352 9.6249 0.720836 7.37735 1.90836 5.51163V6.18982C0.93312 7.88599 0.381041 9.87852 0.381041 11.9986C0.381041 14.1186 0.93312 16.1118 1.90836 17.808V18.4862ZM1.90836 9.66694L1.78085 9.92196H1.90836V9.66694ZM1.90836 10.4299L1.73882 10.6849H1.90836V10.4299ZM1.90836 11.829C1.69608 11.8717 1.4838 12.1261 1.4838 12.4652C1.4838 12.7622 1.61131 12.9745 1.90836 13.1013V12.7202C1.82289 12.7202 1.73882 12.6347 1.73882 12.5079C1.69608 12.3804 1.73882 12.2108 1.86563 12.2108C1.86563 12.1688 1.90836 12.1688 1.90836 12.2108V11.829ZM1.90836 13.8643H1.78085C1.73882 13.6527 1.65334 13.4404 1.52653 13.2281L1.35699 13.3129C1.61131 13.8222 1.39902 14.1613 1.1454 13.907C0.848346 13.6527 1.05993 13.1441 1.1454 12.805L1.01789 12.7622C0.805609 13.2281 0.678099 13.6527 1.01789 14.1613C1.27291 14.5432 1.52653 14.4157 1.78085 14.2034L1.90836 14.1613V13.8643ZM1.90836 15.4336L1.61131 15.2641L1.4838 15.4757L1.90836 15.7727V15.4336ZM1.90836 16.0705L1.65334 16.2814L1.78085 16.4509C1.82289 16.4937 1.86563 16.5364 1.90836 16.5364V16.0705Z" fill="#0E88D3"/>
</g>
<defs>
<clipPath id="clip0_45_4176">
<rect width="24" height="24" fill="white"/>
</clipPath>
</defs>
</svg>
