<svg width="24" height="24" viewBox="0 0 24 24" fill="none" xmlns="http://www.w3.org/2000/svg">
<path d="M10.4317 21.2928L13.2416 17.583L11.1293 17.2929L9.94104 18.725C9.68255 19.0368 9.25127 18.8495 9.02656 18.6895L2.93846 14.3468C2.70806 14.1825 2.90254 13.8941 3.14147 13.8547L9.24167 12.8506L9.97055 11.609L0.446042 13.177C0.0912013 13.2346 -0.178663 13.6399 0.145244 13.9055L9.07812 21.2395C9.39385 21.4987 10.0705 21.7714 10.4317 21.2928Z" fill="#FFB600"/>
<path d="M16.373 2.88488L23.703 16.2404C24.4507 17.6019 23.6994 19.0198 22.4177 18.8434L13.9207 17.6765L14.7634 16.2387L20.8952 17.0308C21.5327 17.1183 21.4659 16.6803 21.1971 16.1893L16.026 5.40823C15.9168 5.20983 15.5477 5.10636 15.4226 5.32076L9.69821 15.0721C9.52861 15.3612 9.48133 15.5535 9.84968 15.604L12.271 15.9169L11.1289 17.2929L8.05485 16.8705C7.48171 16.7916 7.23104 16.2756 7.57059 15.6972L14.9444 3.13519C15.2761 2.57057 15.9097 2.04151 16.373 2.88488Z" fill="#019EEC"/>
<path d="M14.3048 16.1797L14.8992 15.3943L17.5214 11.9326C18.1049 11.1628 17.9826 10.2907 17.1901 10.4205L12.565 11.182L11.9755 12.4009L14.4559 11.9923C14.9906 11.9045 15.0966 12.5118 14.6795 13.0146L12.9988 15.0398L12.2706 15.9169L10.2596 18.3407L11.914 19.3352L14.3048 16.1797Z" fill="#FFB500"/>
</svg>
