<svg width="24" height="24" viewBox="0 0 24 24" fill="none" xmlns="http://www.w3.org/2000/svg">
<g clip-path="url(#clip0_45_4160)">
<path fill-rule="evenodd" clip-rule="evenodd" d="M21.7857 11.7446L15.9401 6.01064L14.5372 6.02195H12.2033V5.33821L14.5372 5.32092L15.9699 5.30163L22.2393 11.6821L21.7857 11.7446ZM19.8744 11.7812L15.9401 7.95943H14.5372L12.2086 7.97073L12.2073 7.283L14.5372 7.26239L15.9712 7.24642L20.3273 11.7147L19.8744 11.7812ZM14.5372 20.2202L12.3803 22.3632L12.3103 21.9082L14.5372 19.6182L18.0152 16.0279V12.2634H18.688L18.7216 16.0619L14.5372 20.2202ZM14.5372 17.6422L16.0795 16.0279V12.2634H16.7542L16.7885 16.0619L14.5372 18.2813L12.3453 20.439L12.2832 19.988L14.5372 17.6422ZM9.67867 13.2019L8.43945 11.8936L9.67867 10.6711L12.2238 8.16894L14.5372 10.6159L15.8721 12.0279L14.5372 13.3462L12.0845 15.7539L9.67867 13.2019ZM9.67867 18.7888L8.24337 18.7995L1.97793 12.425L2.42754 12.3585L8.27308 18.0898H9.67867L12.0072 18.0851V18.7649L9.67867 18.7888ZM4.33094 12.3272L8.27044 16.141L9.67867 16.1397L12.0072 16.135V16.8194L9.67867 16.844L8.23545 16.8613L3.88265 12.3904L4.33094 12.3272ZM11.926 4.11905L9.67867 6.46358L8.13377 8.07117V11.8344H7.45705L7.42734 8.04456L9.67867 5.82241L11.8679 3.66079L11.926 4.11905ZM9.67867 3.88161L11.8369 1.7426L11.899 2.19421L9.67867 4.48686L6.20066 8.07117V11.8344H5.52263L5.49424 8.04456L9.67867 3.88161ZM16.0966 4.13967V0L11.9392 0.0132999L9.67867 2.40173L4.39036 8.00931H0.417847V12.0725L8.09614 20.0692V24H12.0059L14.5372 21.4506L19.743 16.2015H23.5821V11.7446L16.0966 4.13967Z" fill="#CE0F3E"/>
</g>
<defs>
<clipPath id="clip0_45_4160">
<rect width="24" height="24" fill="white"/>
</clipPath>
</defs>
</svg>
