<svg width="24" height="24" viewBox="0 0 24 24" fill="none" xmlns="http://www.w3.org/2000/svg">
<rect width="24" height="24" fill="#03428E"/>
<path d="M11.6206 10.448C10.7459 10.4479 9.88446 10.6624 9.11186 11.0726C8.33926 11.4828 7.67907 12.0763 7.18915 12.801C7.7672 12.2881 8.48114 11.9532 9.24506 11.8365C10.009 11.7197 10.7904 11.8262 11.4952 12.1431C12.2 12.46 12.7983 12.9738 13.218 13.6227C13.6377 14.2716 13.861 15.0279 13.861 15.8007C13.861 16.5735 13.6377 17.3298 13.218 17.9787C12.7983 18.6276 12.2 19.1414 11.4952 19.4583C10.7904 19.7752 10.009 19.8817 9.24506 19.765C8.48114 19.6483 7.7672 19.3133 7.18915 18.8004C7.70669 19.5653 8.41331 20.1832 9.24032 20.5942C10.0673 21.0051 10.9866 21.1951 11.9088 21.1457C12.8309 21.0963 13.7246 20.8091 14.503 20.3121C15.2813 19.8151 15.9179 19.1252 16.3507 18.3094C16.7835 17.4936 16.9979 16.5798 16.9731 15.6566C16.9482 14.7334 16.6849 13.8324 16.2088 13.0411C15.7327 12.2498 15.0599 11.5952 14.256 11.1408C13.452 10.6864 12.5441 10.4477 11.6206 10.448Z" fill="#F37024"/>
<path d="M12.2141 5.20596C11.7246 5.93036 11.42 6.76363 11.327 7.63293C11.2339 8.50223 11.3551 9.3811 11.6801 10.1927C11.577 9.42471 11.6981 8.64325 12.0291 7.94256C12.36 7.24186 12.8865 6.65186 13.5452 6.24367C14.2039 5.83548 14.9666 5.62655 15.7414 5.64205C16.5161 5.65755 17.2699 5.89684 17.9117 6.33105C18.5535 6.76526 19.056 7.37586 19.3587 8.08923C19.6613 8.8026 19.7511 9.58828 19.6173 10.3516C19.4835 11.1148 19.1317 11.8231 18.6044 12.3909C18.0772 12.9588 17.3969 13.362 16.6456 13.552C17.5691 13.5523 18.477 13.3136 19.281 12.8592C20.0849 12.4048 20.7577 11.7502 21.2338 10.9589C21.7099 10.1676 21.9732 9.26656 21.998 8.34341C22.0229 7.42025 21.8085 6.50636 21.3757 5.69058C20.9428 4.87479 20.3063 4.18487 19.528 3.68787C18.7496 3.19087 17.8559 2.9037 16.9338 2.85428C16.0116 2.80486 15.0923 2.99486 14.2653 3.40583C13.4383 3.81679 12.7317 4.43473 12.2141 5.19958" fill="#F37024"/>
<path d="M8.65477 17.5941C9.50317 17.3816 10.2864 16.9639 10.9355 16.3778C11.5847 15.7917 12.08 15.0551 12.3778 14.2327C11.9416 14.8713 11.3301 15.3702 10.617 15.6694C9.90388 15.9686 9.11949 16.0553 8.35823 15.9191C7.59697 15.783 6.89128 15.4297 6.32609 14.9019C5.7609 14.374 5.36029 13.6941 5.17246 12.9439C4.98464 12.1937 5.01762 11.4053 5.26742 10.6734C5.51722 9.9415 5.97321 9.29739 6.5805 8.81859C7.18779 8.33979 7.92051 8.04668 8.69048 7.97455C9.46045 7.90243 10.2349 8.05434 10.9205 8.41203C10.2322 7.79661 9.39649 7.36969 8.49445 7.17275C7.59242 6.97581 6.65478 7.01553 5.77264 7.28807C4.8905 7.56062 4.09386 8.0567 3.46011 8.72813C2.82636 9.39956 2.37707 10.2235 2.15588 11.1199C1.93468 12.0163 1.94912 12.9547 2.19778 13.8438C2.44644 14.733 2.92087 15.5427 3.57496 16.1943C4.22906 16.846 5.04059 17.3173 5.9307 17.5626C6.82081 17.8079 7.75922 17.8187 8.65477 17.5941Z" fill="#F37024"/>
</svg>
