<svg width="24" height="24" viewBox="0 0 24 24" fill="none" xmlns="http://www.w3.org/2000/svg">
<g clip-path="url(#clip0_45_4161)">
<path fill-rule="evenodd" clip-rule="evenodd" d="M4.94084 19.6656C4.85906 19.6523 4.68185 19.6114 4.62754 19.5566C4.60045 19.5433 4.58665 19.5299 4.57285 19.5156C4.50477 19.366 4.46386 19.2569 4.45044 19.0794C4.45044 18.4663 4.45044 17.8535 4.45044 17.2403C4.46383 17.1442 4.47763 17.0494 4.49133 16.9541C4.51852 16.8856 4.54571 16.8313 4.5867 16.7766C4.62759 16.75 4.66847 16.7225 4.72291 16.7082C4.77759 16.6949 4.8319 16.6816 4.9 16.6816H7.17568C7.23036 16.6816 7.28467 16.6959 7.35277 16.7082C7.39366 16.7225 7.43465 16.7358 7.48898 16.7623C7.52987 16.9257 7.57086 17.0894 7.61178 17.2665C7.61178 17.4165 7.61178 17.5798 7.62558 17.7436C7.29847 17.7436 6.97137 17.7436 6.64427 17.7436C6.64427 17.5798 6.64427 17.4165 6.64427 17.2527C6.24919 17.2527 5.85397 17.2527 5.45889 17.2527V19.0786H6.64427C6.64427 18.8609 6.64427 18.6429 6.64427 18.4249H7.62558C7.62558 18.7653 7.62558 19.1742 7.50278 19.5013C7.4209 19.5289 7.35277 19.5697 7.28467 19.6102C7.2029 19.6235 7.12138 19.6379 7.03947 19.6645C6.33108 19.6645 5.63599 19.6645 4.94089 19.6645L4.94084 19.6656ZM8.92001 19.6656C8.81089 19.638 8.71532 19.6114 8.62 19.5971C8.62 19.5828 8.62 19.5695 8.62 19.5695C8.56531 19.5286 8.52483 19.4877 8.48392 19.4467C8.45673 19.3783 8.44293 19.3104 8.42923 19.2424C8.42923 18.384 8.42923 17.5256 8.42923 16.6806H9.41041C9.41041 17.4709 9.41041 18.275 9.42411 19.0788H10.6911C10.6911 18.275 10.6911 17.4709 10.6911 16.6806H11.6861C11.6723 17.5118 11.6723 18.3432 11.6723 19.1744C11.6723 19.2694 11.5499 19.5015 11.4952 19.5695C11.4133 19.5971 11.3318 19.6237 11.2638 19.6513C10.4731 19.6513 9.69653 19.6512 8.92004 19.6645L8.92001 19.6656ZM12.5854 19.6656C12.5854 18.671 12.5854 17.676 12.5854 16.6814H15.3106C15.3652 16.6957 15.4196 16.708 15.4876 16.7223C15.5148 16.7366 15.5423 16.7498 15.5833 16.7631C15.5966 16.7764 15.6104 16.804 15.6238 16.8316C15.6376 16.8858 15.6647 16.9408 15.6919 16.9951C15.6919 17.0359 15.7057 17.0769 15.7194 17.1178C15.7057 17.3359 15.7057 17.554 15.7057 17.7853C15.6785 17.8804 15.6104 17.9901 15.5286 18.0443C15.4742 18.0576 15.4333 18.071 15.3924 18.0853C15.4195 18.0996 15.4605 18.1128 15.5014 18.1261C15.5423 18.167 15.5965 18.2079 15.6513 18.2489C15.6646 18.2897 15.6784 18.3307 15.7056 18.3714C15.7193 18.4399 15.7327 18.5075 15.7465 18.5895C15.7327 18.8074 15.7327 19.0255 15.7327 19.2435C15.7193 19.2711 15.7056 19.312 15.6918 19.3527C15.6376 19.4477 15.5556 19.5297 15.4604 19.5841C15.3376 19.6117 15.2285 19.6393 15.1195 19.6659C14.2749 19.6659 13.4301 19.6656 12.5854 19.6656ZM13.58 19.0794C13.58 18.8343 13.58 18.6028 13.58 18.3709H14.6293C14.6701 18.3852 14.7111 18.3985 14.7521 18.4118C14.8335 18.4936 14.8201 18.7527 14.8201 18.8479C14.7926 18.9021 14.7654 18.957 14.7383 19.0251C14.6974 19.0394 14.6565 19.0517 14.6293 19.0793C14.2751 19.0793 13.9209 19.0794 13.58 19.0794ZM15.9629 18.8617C15.9495 17.0355 15.9358 15.2098 15.9358 13.3839C15.9358 13.2878 15.9086 13.1249 15.8539 13.0431C15.8539 12.9614 15.7453 12.9068 15.7453 12.8388C15.6634 12.7846 15.5406 12.607 15.4316 12.607C15.3635 12.5385 15.1726 12.4846 15.0774 12.4571C14.8865 12.4438 14.696 12.4304 14.5051 12.4161C14.437 12.4161 14.3689 12.4294 14.3008 12.4437C14.178 12.4846 14.0147 12.5122 13.919 12.607C13.81 12.607 13.6467 12.825 13.592 12.9069C13.551 13.0298 13.5239 13.1659 13.4966 13.3022V13.4929V14.5693C13.4828 14.8284 13.4828 15.0871 13.4828 15.3597C13.4558 15.4822 13.4424 15.6049 13.4286 15.7277C13.3468 15.8773 13.2649 16.0272 13.1968 16.1773C13.1425 16.2049 13.0878 16.2457 13.0335 16.2862C12.9654 16.3005 12.8973 16.3138 12.8426 16.3271C10.8258 16.3271 8.80911 16.3271 6.79243 16.3271C6.71086 16.2862 6.64243 16.2452 6.57432 16.2179C6.49295 16.2179 6.26101 15.918 6.26101 15.85C6.20673 15.6866 6.15203 15.523 6.09772 15.3596C6.07022 14.2422 6.05683 13.1249 6.04303 12.0076C5.86593 12.0076 5.56605 11.8713 5.44364 11.7485C5.36176 11.7485 5.02096 11.3806 5.02096 11.3263C4.91222 11.3263 4.72132 10.7267 4.69423 10.6311C4.66664 10.5221 4.65324 10.4268 4.63955 10.3317C4.63955 9.35046 4.51676 8.31485 4.66664 7.36083C4.66664 7.30666 4.68044 7.25184 4.69423 7.21085C4.74851 7.0337 4.80323 6.85667 4.91222 6.69332C4.91222 6.63915 5.03463 6.46141 5.07565 6.44782C5.07565 6.43453 5.07565 6.42018 5.07565 6.42018C5.15742 6.32511 5.23895 6.22927 5.33452 6.14791C5.4026 6.09271 5.47073 6.03868 5.55263 5.9978C5.74314 5.91602 5.89302 5.8342 6.09772 5.80701H6.45191C6.629 5.80701 6.96953 5.95692 7.07852 6.06599C7.11951 6.09359 7.16039 6.12018 7.21511 6.14778C7.2285 6.16107 7.2422 6.17536 7.26939 6.18865C7.31028 6.24282 7.35127 6.29764 7.39218 6.35192C7.41937 6.39281 7.46026 6.43372 7.50118 6.47471C7.51457 6.36574 7.52837 6.27013 7.55546 6.17486C7.58265 6.06579 7.62353 5.95681 7.66458 5.86154C7.66458 5.67059 7.92345 5.35734 8.03257 5.22129C8.05966 5.19369 8.08685 5.16607 8.12774 5.13949C8.18242 5.01673 8.42763 4.90766 8.53675 4.83959C8.63191 4.7987 8.74093 4.75778 8.84992 4.73059C9.12272 4.7173 9.61312 4.67641 9.83123 4.89424C9.94023 4.89424 10.1311 5.1257 10.2397 5.19377C10.3082 5.28986 10.3763 5.38473 10.4444 5.4799C10.4444 5.43901 10.4444 5.41139 10.4577 5.38481C10.4715 5.32961 10.4853 5.27586 10.5124 5.23476C10.5669 5.1258 10.6215 5.01681 10.6758 4.92144C10.6896 4.89384 10.7033 4.86725 10.7305 4.83965C10.8257 4.73068 10.9214 4.62166 11.0304 4.52639C11.071 4.5131 11.0847 4.45788 11.139 4.45788C11.18 4.41699 11.2347 4.37608 11.289 4.34889C11.4256 4.26711 11.5617 4.21277 11.7117 4.18518H12.243C12.4473 4.25366 12.6382 4.32132 12.8015 4.45788C12.8972 4.45788 12.9924 4.62122 13.0605 4.66221C13.0605 4.40318 13.0605 4.14426 13.0605 3.88564C13.0743 3.79058 13.0877 3.69469 13.1015 3.59952C13.1424 3.40857 13.2786 3.21775 13.3876 3.06789C13.4014 3.04029 13.4148 3.02703 13.4285 3.01374C13.5509 2.93196 13.7418 2.6729 13.9054 2.6729C14.028 2.55044 14.3141 2.50956 14.4777 2.46857C14.5458 2.45426 14.614 2.45428 14.6821 2.45428C14.9545 2.45428 15.2544 2.48186 15.4861 2.61812C15.5676 2.65901 15.6494 2.69989 15.7452 2.74047C15.8538 2.83553 15.9627 2.945 16.0717 3.05417C16.0717 3.12265 16.2218 3.31302 16.2356 3.3537C16.2626 3.43548 16.2898 3.51737 16.3173 3.61275C16.3173 3.69452 16.3307 3.77641 16.3445 3.85788V5.42512C16.3988 5.43841 16.4535 5.45269 16.5216 5.47927C16.7125 5.56105 16.903 5.65653 17.1077 5.7521C17.1486 5.76539 17.1891 5.77968 17.2301 5.80626C17.38 5.92902 17.5709 5.99711 17.7071 6.13337C17.7614 6.13337 17.857 6.24232 17.9114 6.26951C17.9932 6.35128 18.0885 6.43316 18.1841 6.51514C18.2657 6.59691 18.3475 6.67839 18.4293 6.77356C18.4293 6.84204 18.5927 6.95081 18.6202 7.04639C18.7017 7.16885 18.7835 7.29162 18.8788 7.42778C18.9607 7.56404 19.0425 7.70051 19.1244 7.85016C19.1649 7.97293 19.3149 8.20461 19.3149 8.32707C19.3287 8.36796 19.3424 8.40886 19.3696 8.44985C19.4239 8.68138 19.4786 8.92686 19.5329 9.17208C19.5467 9.37642 19.5605 9.59452 19.5876 9.81246C19.5605 10.0577 19.5467 10.3029 19.5329 10.548C19.492 10.7256 19.4515 10.9026 19.4239 11.0799C19.3968 11.1616 19.2606 11.4475 19.2606 11.5702C19.1244 11.8021 19.0016 12.0473 18.8788 12.2925V12.32C18.7426 12.4972 18.6064 12.6743 18.4836 12.8652C18.3203 13.0151 18.1703 13.1651 18.0204 13.3284C17.9932 13.3427 17.9661 13.3692 17.9523 13.3968C17.9252 13.4111 17.9115 13.4245 17.8981 13.4511C17.8434 13.4787 17.7891 13.5051 17.7481 13.546C17.7481 13.5869 17.2711 13.8594 17.2302 13.9003C17.1892 13.9135 17.1621 13.9278 17.1348 13.9544C17.0396 13.9544 16.9305 14.0635 16.8621 14.0769C16.7397 14.1178 16.6306 14.1719 16.5216 14.2268C16.4669 14.2401 16.4265 14.2534 16.3854 14.281C16.3854 15.8069 16.3854 17.3332 16.3988 18.8594C16.2492 18.8594 16.0993 18.8594 15.9627 18.8594L15.9629 18.8617ZM13.58 17.8124C13.58 17.5944 13.58 17.3897 13.58 17.1856H14.5884C14.6293 17.1989 14.6701 17.2132 14.7246 17.2408C14.7246 17.4178 14.7246 17.595 14.7383 17.7855C14.3432 17.7855 13.9618 17.7991 13.58 17.8124ZM6.80623 15.8911C6.77904 15.8635 6.75154 15.8503 6.73815 15.837C6.72435 15.8094 6.71096 15.796 6.71096 15.7827C6.64248 15.7827 6.58817 15.4694 6.54728 15.3876C6.53348 15.3335 6.52009 15.2926 6.52009 15.2515C6.50629 14.1749 6.50629 13.0985 6.50629 12.0221C6.54728 12.0088 6.60197 11.9945 6.6563 11.9945C6.73818 11.9403 6.88808 11.9126 6.95619 11.8448C7.05156 11.8448 7.1062 11.695 7.20139 11.695C7.43291 11.5451 7.6509 11.1362 7.75989 10.8909C7.77369 10.8092 7.80089 10.7409 7.82797 10.6728C7.86886 10.6043 7.89646 10.3595 7.89646 10.2639C7.95074 10.2639 7.96454 10.4004 8.03267 10.4004V10.427C8.10075 10.4679 8.31875 10.7132 8.40066 10.7132C8.40066 10.7807 8.79574 10.8904 8.82295 10.9175C8.98625 10.9175 9.16335 10.9174 9.34057 10.9317C9.38146 10.9174 9.42235 10.9175 9.47704 10.9175C9.61325 10.8224 9.85844 10.7813 9.98124 10.6586C10.0902 10.6044 10.2264 10.4681 10.3083 10.3723C10.3354 10.5633 10.3764 10.7541 10.4173 10.9584C10.4307 11.0402 10.4578 11.1356 10.4854 11.2312C10.6078 11.5172 10.7306 11.817 10.8668 12.1168C10.9077 12.1168 11.0439 12.4572 11.112 12.4848C11.1258 12.498 11.1391 12.5257 11.1667 12.5533C11.1938 12.6074 11.2348 12.6622 11.2757 12.7303C11.3847 12.8527 11.4938 12.9755 11.6162 13.0983C11.6433 13.1392 11.9161 13.4116 11.957 13.4116C11.9704 13.4382 11.9979 13.4659 12.0251 13.4935C12.0794 13.5211 12.1341 13.5475 12.1884 13.5884C12.2565 13.6293 12.325 13.6835 12.4065 13.7384C12.4203 13.7517 12.434 13.765 12.4612 13.7926C12.5154 13.8202 12.5702 13.8611 12.6383 13.9016H12.6792C12.6925 13.9149 12.7063 13.9293 12.7336 13.9559C12.7745 13.9692 12.8292 13.9835 12.8835 14.0101C12.9382 14.0377 12.9925 14.0642 13.0606 14.1061V15.3596C13.0335 15.482 13.0063 15.6048 12.9788 15.7275C12.9382 15.7817 12.8973 15.8365 12.8697 15.891C10.8396 15.891 8.8229 15.8911 6.80623 15.8911ZM16.3855 13.8334C16.3718 13.6701 16.3718 13.5063 16.3718 13.3565C16.358 13.2747 16.3446 13.193 16.3446 13.1113C16.3038 13.0023 16.2628 12.8931 16.2356 12.7841C16.1947 12.7432 15.8813 12.3346 15.8266 12.3346C15.7453 12.2805 15.6633 12.2255 15.5814 12.1847C15.4724 12.1438 15.3635 12.1029 15.2681 12.0619C15.1864 12.0343 15.1045 12.021 15.0363 12.0077C14.9412 11.9934 14.8593 11.9935 14.7774 11.9935C14.8458 11.9802 14.9274 11.9801 15.0093 11.9801C15.0093 11.5983 15.0093 11.2307 15.023 10.8627C14.914 10.8627 14.805 10.8627 14.696 10.8627V11.9935C14.5189 11.9935 14.328 11.9935 14.1642 12.0344C14.0828 12.062 14.0009 12.0886 13.919 12.1162C13.8238 12.1703 13.7285 12.2253 13.6329 12.2796C13.6195 12.2796 13.6057 12.2796 13.6057 12.2796C13.5376 12.3338 13.4696 12.3885 13.4015 12.4566C13.3334 12.5383 13.2649 12.6204 13.2106 12.7156C13.1696 12.8117 13.1287 12.9066 13.1016 13.0156C13.0878 13.2199 13.0744 13.4246 13.0606 13.6426C12.8973 13.5475 12.7337 13.4517 12.5702 13.3561C12.5156 13.3152 12.2704 13.0836 12.216 13.0836C12.0933 12.9746 11.9705 12.8657 11.8615 12.7704C11.8209 12.7162 11.7934 12.6752 11.7661 12.6341C11.7118 12.6341 11.3981 12.1433 11.3572 12.1024C11.33 12.0482 11.1667 11.8301 11.1667 11.7483C11.0577 11.5712 10.9758 11.3397 10.8939 11.1351C10.853 10.9717 10.8125 10.8079 10.7849 10.6581C10.7578 10.5489 10.744 10.4401 10.7306 10.3449C10.7306 10.0178 10.7306 9.69065 10.7306 9.37735C10.7987 9.06404 10.8258 8.60079 11.0031 8.32807C11.0031 8.19181 11.1667 7.94652 11.221 7.83756C11.2757 7.75578 11.33 7.67394 11.3847 7.59236C11.3847 7.4973 11.5481 7.38783 11.5481 7.33345C11.5618 7.30585 11.5752 7.27925 11.6028 7.26494C11.6571 7.19645 11.7118 7.14209 11.7661 7.08782C11.7661 7.01933 11.8615 6.95136 11.9023 6.92417C11.9023 6.91088 11.9023 6.89653 11.9161 6.88324C11.957 6.84235 11.9979 6.80145 12.0389 6.77406C12.1341 6.67899 12.2431 6.59706 12.3522 6.5157C12.3656 6.50139 12.3793 6.48806 12.4065 6.47477C12.5155 6.42059 12.6383 6.24293 12.7745 6.24293C12.8697 6.16115 13.1016 5.99773 13.2377 5.99773C13.2377 6.06622 13.4424 6.35192 13.5376 6.35192C13.5786 6.4061 13.7285 6.55625 13.7966 6.55625C13.8647 6.62474 14.0281 6.66521 14.1099 6.7199C14.328 6.78839 14.6279 6.81498 14.8593 6.81498C15.0364 6.80169 15.3226 6.76078 15.4863 6.665C15.5953 6.665 15.6906 6.51545 15.7858 6.51545C15.8267 6.46025 15.8677 6.41935 15.9224 6.37888C16.0314 6.25652 16.2085 6.0518 16.2493 5.88855C16.2493 5.87424 16.2627 5.86097 16.2765 5.84769C16.3718 5.87529 16.467 5.91616 16.5626 5.95674C16.726 6.03852 16.9031 6.12039 17.0802 6.21566C17.1487 6.25655 17.2302 6.29742 17.312 6.3518C17.3939 6.42029 17.4754 6.48805 17.5572 6.55613C17.6391 6.62461 17.721 6.69269 17.8162 6.77406C17.8705 6.77406 17.9933 6.93795 18.0205 6.99223C18.0752 7.04641 18.1295 7.10119 18.1842 7.15588C18.3204 7.36022 18.4566 7.56457 18.6065 7.76912C18.6065 7.82329 18.7156 7.93257 18.7156 8.00065C18.8246 8.17779 18.9198 8.45036 18.9879 8.64089C19.0289 8.89992 19.0836 9.15887 19.1379 9.4179C19.1379 9.59505 19.1379 9.77207 19.1516 9.94922C19.1516 10.331 19.0565 10.7533 18.9745 11.1213C18.879 11.3118 18.8246 11.557 18.7157 11.7207C18.6613 11.8158 18.6065 11.9116 18.5522 12.007C18.5522 12.0755 18.3613 12.3068 18.3342 12.3339C18.2524 12.429 18.1842 12.5248 18.1161 12.6337C18.1023 12.6337 18.0886 12.647 18.0752 12.6613C18.0752 12.7155 17.8162 12.9204 17.7754 12.9885C17.7616 12.9885 17.7482 12.9885 17.7482 12.9885C17.7344 13.0018 17.7211 13.015 17.7211 13.0293C17.5573 13.1383 17.4074 13.2608 17.2578 13.3835C17.0398 13.4925 16.8217 13.615 16.6171 13.7378C16.5356 13.7654 16.4536 13.7925 16.3855 13.8334ZM6.15202 11.6124C6.15202 11.5981 6.15202 11.5982 6.15202 11.5982C6.04303 11.5716 5.94771 11.5439 5.85213 11.5163C5.78405 11.4754 5.72972 11.4346 5.67504 11.4073C5.42984 11.2164 5.11654 10.8076 5.11654 10.4672C5.10274 10.4396 5.08935 10.412 5.07565 10.3854C5.07565 9.40424 5.07565 8.43668 5.07565 7.46927C5.07565 7.44167 5.08935 7.4284 5.10274 7.41511C5.11654 7.35992 5.12993 7.30615 5.14373 7.25146C5.15742 7.18298 5.17082 7.12909 5.18461 7.0744C5.2255 6.97934 5.27978 6.89713 5.33449 6.81536C5.33449 6.70639 5.56602 6.5159 5.62071 6.46111C5.70248 6.40693 5.7978 6.35205 5.893 6.29777C5.93399 6.28346 5.98868 6.27013 6.04301 6.25684C6.11109 6.24253 6.17922 6.22926 6.24732 6.22926C6.32909 6.22926 6.42441 6.24355 6.51999 6.25684C6.54718 6.28342 6.77899 6.33863 6.77899 6.37931C6.80618 6.39362 6.9833 6.48829 6.9833 6.52917C7.03758 6.55677 7.07847 6.66531 7.11951 6.66531C7.1466 6.7062 7.17419 6.74711 7.21508 6.80201C7.39218 7.07442 7.46029 7.4286 7.4875 7.7557C7.4737 8.61404 7.4737 9.48613 7.4737 10.3584C7.40562 10.4269 7.36471 10.6717 7.35129 10.7806C7.2966 10.8624 7.25561 10.9441 7.21508 11.0397C7.16039 11.0397 7.03761 11.2849 6.9833 11.3121C6.87418 11.3806 6.76519 11.4482 6.66999 11.5299C6.61531 11.5442 6.56101 11.5576 6.50619 11.5842C6.38378 11.5842 6.26102 11.5981 6.15202 11.6124ZM9 10.5089C9 10.4945 9 10.4945 9 10.4945C8.67289 10.4536 8.37301 10.2221 8.22351 9.94946C8.20971 9.92187 8.19592 9.9086 8.19592 9.89531C8.14164 9.89531 8.01882 9.55441 8.01882 9.50013C7.97793 9.45924 7.97793 9.39098 7.97793 9.33629C7.96454 9.28212 7.95074 9.22742 7.93694 9.18643C7.93694 8.27371 7.93694 7.3606 7.93694 6.46117C7.95074 6.40699 7.96454 6.36615 7.97793 6.32516C7.97793 6.25667 7.99163 6.16125 8.03262 6.12077C8.04601 6.05228 8.05971 5.98425 8.0869 5.91607C8.15498 5.79371 8.23677 5.67096 8.31868 5.54809C8.35957 5.49391 8.40056 5.45301 8.45489 5.41202C8.45489 5.34353 8.6592 5.26206 8.70009 5.23476C8.80908 5.19388 8.91807 5.16626 9.02719 5.13968C9.17707 5.15297 9.32708 5.16624 9.49038 5.19384C9.49038 5.20815 9.81748 5.33011 9.81748 5.3986C9.85837 5.43949 10.0355 5.58913 10.0355 5.65721C10.1311 5.65721 10.2807 6.12081 10.3083 6.21597C10.3083 6.99264 10.3083 7.78287 10.3217 8.57314C10.3353 8.7232 10.3487 8.87312 10.3625 9.03657C10.3487 9.24111 10.2945 9.48631 10.2263 9.69055C10.1716 9.77232 10.1173 9.86764 10.0765 9.96332C10.0084 10.0451 9.94025 10.1267 9.87214 10.2222C9.81745 10.2498 9.77646 10.2907 9.73555 10.3313C9.59935 10.3855 9.46326 10.4399 9.34047 10.4946C9.21793 10.4946 9.109 10.4956 9 10.5089ZM10.7578 7.82421C10.7578 7.21099 10.7578 6.61156 10.7578 6.01215C10.7987 5.75322 10.8396 5.45333 11.003 5.24899C11.003 5.12622 11.3029 4.88096 11.371 4.81288C11.5752 4.66303 11.7661 4.59483 12.0251 4.59483C12.2565 4.59483 12.6655 4.79909 12.7607 5.00373C12.9382 5.08551 13.0063 5.42611 13.0878 5.58945C13.0197 5.61705 12.9516 5.65793 12.8835 5.69851C12.7473 5.69851 12.5836 5.91644 12.4612 5.91644C12.2841 6.03921 12.1203 6.1617 11.957 6.29827C11.9432 6.29827 11.9298 6.29827 11.9298 6.29827C11.9023 6.32587 11.8751 6.3524 11.848 6.39329C11.7661 6.46178 11.6843 6.52936 11.6028 6.61134C11.5618 6.65223 11.5209 6.70644 11.48 6.76133C11.3166 6.87029 11.1801 7.12931 11.0577 7.27885C10.9758 7.40162 10.9077 7.52437 10.8396 7.64683C10.8125 7.70203 10.7849 7.75623 10.7578 7.82421ZM14.5459 6.3936C14.5459 6.37929 14.5459 6.37931 14.5459 6.37931C14.4779 6.36602 14.4232 6.35174 14.3689 6.35174C14.3008 6.32516 14.2461 6.31081 14.1918 6.29752C14.0552 6.21574 13.7966 6.1066 13.7284 5.95674C13.6601 5.92914 13.5648 5.6977 13.551 5.6977C13.5376 5.64352 13.5239 5.58872 13.5105 5.53424C13.5105 4.93451 13.5105 4.34892 13.5105 3.76279C13.5239 3.70862 13.5376 3.66775 13.551 3.62666C13.551 3.55817 13.7148 3.27241 13.7966 3.27241C13.8099 3.24481 13.8237 3.23154 13.8375 3.21825C13.8918 3.16408 13.9599 3.12319 14.0281 3.08199C14.1641 3.0135 14.2733 2.94583 14.4231 2.93213C14.4369 2.91884 14.4503 2.90455 14.4778 2.90455C14.5188 2.90455 14.7502 2.85034 14.7911 2.8902H14.982C15.1453 2.93109 15.4453 3.01308 15.5543 3.16304H15.5814C15.6361 3.24481 15.7042 3.32644 15.7723 3.42171C15.8133 3.42171 15.9085 3.69441 15.9085 3.7354V5.53393C15.8676 5.62899 15.8404 5.72452 15.8134 5.83359C15.7587 5.90207 15.7042 5.97001 15.6633 6.05158C15.6225 6.07918 15.5953 6.10575 15.5678 6.14766C15.4454 6.20183 15.3363 6.25664 15.2273 6.32472C15.1321 6.33801 15.0364 6.35128 14.9546 6.37888C14.8184 6.37888 14.6822 6.37929 14.5459 6.3936Z" fill="#2E3192"/>
<path fill-rule="evenodd" clip-rule="evenodd" d="M13.8702 8.91502L14.8587 7.40518L15.8472 8.91502L14.8587 10.4251L13.8702 8.91502Z" fill="#2E3192"/>
<path fill-rule="evenodd" clip-rule="evenodd" d="M15.8412 9.26294L17.5775 9.26394L16.7528 10.7276L15.0164 10.7265L15.8412 9.26294Z" fill="#2E3192"/>
<path fill-rule="evenodd" clip-rule="evenodd" d="M13.8751 9.26294L12.1388 9.26394L12.9636 10.7276L14.6999 10.7265L13.8751 9.26294Z" fill="#2E3192"/>
<path fill-rule="evenodd" clip-rule="evenodd" d="M12.0005 0C18.6103 0 24.0001 5.38995 24.0001 12.0017C24.0001 18.6116 18.6103 24 12.0005 24C5.39224 24 -0.00012207 18.6116 -0.00012207 12.0017C-0.00012207 5.38995 5.39224 0 12.0005 0ZM12.0005 0.486144C18.3437 0.486144 23.5148 5.65726 23.5148 12.0017C23.5148 18.3421 18.3437 23.5131 12.0005 23.5131C5.65878 23.5131 0.486323 18.3421 0.486323 12.0017C0.486323 5.65726 5.65878 0.486144 12.0005 0.486144Z" fill="#2E3192"/>
</g>
<defs>
<clipPath id="clip0_45_4161">
<rect width="24" height="24" fill="white"/>
</clipPath>
</defs>
</svg>
