<svg width="24" height="24" viewBox="0 0 24 24" fill="none" xmlns="http://www.w3.org/2000/svg">
<g clip-path="url(#clip0_45_4216)">
<path d="M5.36431 0.0321503C3.58158 0.183775 2.44355 0.677958 1.46249 1.71125C0.644008 2.5873 0.268402 3.4802 0.094614 5.00205C-0.0287194 6.14204 -0.0343255 17.9013 0.094614 19.0301C0.268402 20.5463 0.649614 21.4505 1.49052 22.3321C2.32583 23.2138 3.25643 23.6799 4.6131 23.8989C5.20734 23.9944 5.72871 24 12.0355 24C18.3479 24 18.8637 23.9944 19.4299 23.8989C20.781 23.6687 21.6892 23.2082 22.5245 22.3321C23.2645 21.5516 23.6793 20.6755 23.8755 19.4681C23.9596 18.9571 23.9708 18.1372 23.9933 12.3755C24.0101 6.69238 23.9989 5.75456 23.9204 5.04698C23.7466 3.48581 23.3822 2.59291 22.5525 1.71125C21.6331 0.745346 20.7081 0.30732 19.144 0.105154C18.3255 -0.00154305 17.9611 -0.00716019 11.9346 0.00407219C8.44204 0.00968742 5.48764 0.0209198 5.36431 0.0321503ZM10.9704 6.89455C11.5029 7.14164 11.8225 7.52351 11.9458 8.07385L11.9963 8.30409H11.5366H11.0769L11.0096 8.10754C10.8246 7.60774 10.1351 7.38873 9.59128 7.6639C9.36704 7.77621 9.17083 8.04015 9.06431 8.36586C8.92977 8.76458 8.96901 9.58447 9.13719 9.91018C9.38386 10.3931 9.80992 10.6065 10.3425 10.5223C10.6508 10.4661 10.9592 10.1573 11.0489 9.79787L11.1105 9.53955H11.559C11.9907 9.53955 12.0075 9.54516 12.0075 9.66871C12.0075 10.0674 11.6319 10.7694 11.2731 11.0333C10.7349 11.432 9.75946 11.477 9.09234 11.14C7.86461 10.5167 7.57871 8.44448 8.57098 7.34381C9.1428 6.70923 10.1575 6.52391 10.9704 6.89455ZM6.44068 6.97878C7.07416 7.2708 7.41613 7.7706 7.53946 8.59611C7.69643 9.69117 7.26477 10.702 6.46871 11.0951C6.15477 11.2523 6.13234 11.2523 4.93264 11.2692L3.71052 11.2916V9.03413V6.77662L4.90461 6.79908C6.07068 6.82154 6.09871 6.82154 6.44068 6.97878ZM15.259 6.90016C15.7579 7.08548 15.943 7.36627 15.943 7.92222C15.943 8.29286 15.8084 8.56803 15.5337 8.74212L15.3655 8.84881L15.5281 8.9162C15.7355 9.00044 16.0158 9.29246 16.0943 9.50024C16.1896 9.74733 16.1672 10.2696 16.0495 10.5223C15.9205 10.8031 15.7523 10.9603 15.3992 11.1232C15.1357 11.2411 15.0348 11.2523 13.8183 11.2692L12.512 11.2916V9.03413V6.77662L13.7902 6.79908C14.6423 6.81593 15.1301 6.84962 15.259 6.90016ZM6.58083 12.8977C6.95643 13.0831 7.09098 13.2965 7.11901 13.7345C7.14704 14.1669 7.07416 14.3691 6.78825 14.6105L6.57522 14.7959L6.81068 14.9194C6.93961 14.9868 7.1078 15.1384 7.18628 15.2507C7.30961 15.4304 7.32643 15.5203 7.32643 15.919C7.32643 16.3402 7.30961 16.4019 7.15825 16.621C6.96204 16.8961 6.60886 17.0927 6.1828 17.1769C6.01461 17.205 5.39234 17.2331 4.7981 17.2331H3.71052V14.9812V12.7293L5.01674 12.7517C6.24446 12.7686 6.33416 12.7742 6.58083 12.8977ZM10.8022 14.9138C11.2339 16.1043 11.5926 17.1151 11.6039 17.1601C11.6207 17.2218 11.531 17.2331 11.1329 17.2218L10.6452 17.205L10.477 16.7108L10.3145 16.2222H9.5128H8.71113L8.53174 16.7277L8.35234 17.2331H7.87583C7.44416 17.2331 7.39931 17.2218 7.42734 17.132C7.43855 17.0814 7.79734 16.0987 8.2178 14.9587C8.63825 13.8131 8.99143 12.8472 9.00825 12.8079C9.02507 12.763 9.18204 12.7405 9.52401 12.7405H10.0173L10.8022 14.9138ZM13.8126 14.2511L14.6984 15.7337V14.2343V12.7405H15.1469H15.5954V14.9868V17.2331H15.1357H14.6704L13.7734 15.7393L12.8764 14.2399L12.8596 15.7393L12.8484 17.2331H12.3999H11.9514V14.9868V12.7349L12.4392 12.7517L12.9269 12.7686L13.8126 14.2511ZM17.2884 13.6559L17.3052 14.5768L18.1405 13.6559L18.9758 12.7405H19.5589C19.8784 12.7405 20.1363 12.7573 20.1363 12.7798C20.1363 12.7967 19.7775 13.1785 19.3402 13.6222C18.8973 14.0658 18.5329 14.4533 18.5217 14.4814C18.5105 14.5094 18.9086 15.1272 19.4019 15.8516C19.9008 16.576 20.3045 17.1825 20.3045 17.1994C20.3045 17.2162 20.041 17.2331 19.7214 17.2331H19.1384L18.9142 16.8793C18.7964 16.6883 18.4993 16.2391 18.2639 15.8741L17.8322 15.2226L17.5575 15.5147L17.2772 15.8123V16.5199V17.2331H16.8007H16.3242V14.9868V12.7405H16.8007H17.2772L17.2884 13.6559Z" fill="#2C4190"/>
<path d="M4.70859 9.03412L4.69177 10.438H5.21874C5.89147 10.438 6.16617 10.3257 6.3848 9.94387C6.67632 9.44407 6.60905 8.39393 6.25586 7.97275C6.07086 7.75374 5.66723 7.63019 5.13465 7.63019H4.72541L4.70859 9.03412Z" fill="#26358F"/>
<path d="M13.5212 8.09065V8.61292L14.1547 8.58484C14.5752 8.56799 14.8275 8.52868 14.8835 8.47814C15.0125 8.37706 15.0629 8.05134 14.9788 7.85479C14.8891 7.63578 14.6817 7.57401 14.0482 7.57401H13.5212V8.09065Z" fill="#26358F"/>
<path d="M13.5212 9.8877V10.4942H14.1379C14.8891 10.4942 15.0573 10.4324 15.1526 10.1067C15.2255 9.86524 15.1526 9.55076 14.9956 9.41599C14.934 9.37106 14.6705 9.33175 14.2108 9.3149L13.5212 9.28682V9.8877Z" fill="#26358F"/>
<path d="M4.69177 14.0321V14.5375H5.28601C5.79617 14.5375 5.90268 14.5207 6.02601 14.4252C6.30071 14.2062 6.27268 13.7233 5.97556 13.5885C5.89708 13.5548 5.57753 13.5267 5.26359 13.5267H4.69177V14.0321Z" fill="#26358F"/>
<path d="M4.70859 15.8348L4.69177 16.4582L5.37571 16.4357C6.00359 16.4189 6.06526 16.4076 6.1998 16.2841C6.31753 16.1718 6.34556 16.0932 6.34556 15.8573C6.34556 15.335 6.13253 15.2115 5.24117 15.2115H4.72541L4.70859 15.8348Z" fill="#26358F"/>
<path d="M9.24371 14.6274C9.09795 15.0542 8.98022 15.4248 8.98022 15.4473C8.98022 15.4753 9.22129 15.4922 9.51841 15.4922C10.0005 15.4922 10.051 15.481 10.023 15.3911C10.0061 15.3406 9.8828 14.9699 9.74826 14.5712L9.50719 13.8468L9.24371 14.6274Z" fill="#26358F"/>
</g>
<defs>
<clipPath id="clip0_45_4216">
<rect width="24" height="24" fill="white"/>
</clipPath>
</defs>
</svg>
