<svg width="24" height="24" viewBox="0 0 24 24" fill="none" xmlns="http://www.w3.org/2000/svg">
<path d="M13.7869 7.84884L13.8313 7.93588L13.8543 7.99049C14.6265 9.58021 14.1086 10.8585 13.8415 11.6828L13.8313 11.7673C13.6657 12.4021 13.5855 13.0284 13.5659 13.6266C13.5753 14.9202 13.8586 16.1123 14.1692 17.0305L14.1419 17.0731L14.1632 17.1278L14.1692 17.1457C14.0181 17.3983 13.8927 17.7123 13.8244 18.1057L13.7997 18.3403L12.582 15.6609L12.5573 15.6814L12.559 15.6609L11.3507 18.4188L11.3208 18.1057C11.2551 17.7123 11.1305 17.3983 10.9735 17.1457L10.982 17.1278C11.4957 15.8324 11.7884 14.1104 11.4241 12.246C11.9096 11.6708 12.925 9.65957 13.7869 7.84884Z" fill="#550044"/>
<path d="M16.0783 2.51806C16.0783 2.51806 16.0613 2.51806 15.9708 2.65886C15.8778 2.80051 15.7123 2.73054 15.7123 2.73054C15.7993 2.70067 15.7925 2.66739 15.871 2.57865C15.9495 2.48734 16.0783 2.51806 16.0783 2.51806ZM16.2413 1.87211L16.3855 2.16735C16.3855 2.16735 16.5152 2.46601 16.2413 2.46601C15.9725 2.46601 16.0894 2.17588 16.0894 2.17588L16.2413 1.87211ZM16.2413 2.86877L16.1056 2.7075C16.1056 2.7075 15.9913 2.53769 16.2413 2.53769C16.4794 2.53769 16.3727 2.70067 16.3727 2.70067L16.2413 2.86877ZM16.7601 1.86016C16.6757 1.91392 16.7354 2.2049 16.639 2.33033C16.5716 2.41396 16.4342 2.42591 16.4342 2.42591C16.5169 2.28682 16.4495 2.24586 16.47 2.0769C16.5169 1.84565 16.7601 1.86016 16.7601 1.86016ZM15.7054 1.86016C15.7054 1.86016 15.958 1.84565 15.9998 2.0769C16.022 2.24586 15.958 2.28682 16.0408 2.42591C16.0408 2.42591 15.8966 2.41396 15.8309 2.33033C15.7336 2.2049 15.7976 1.91392 15.7054 1.86016ZM16.4009 2.51806C16.4009 2.51806 16.5357 2.48734 16.6125 2.57865C16.6885 2.66739 16.6816 2.70067 16.7712 2.73054C16.7712 2.73054 16.5972 2.80051 16.5152 2.65886C16.4171 2.51806 16.4009 2.51806 16.4009 2.51806Z" fill="#550044"/>
<path d="M12.5651 16.5944L11.5557 18.8949C11.5557 18.8949 10.7937 21.1093 12.5651 21.1093C14.3767 21.1093 13.5371 18.8514 13.5371 18.8514L12.5651 16.5944Z" fill="#550044"/>
<path d="M12.5567 24L13.4706 22.7013C13.4706 22.7013 14.1652 21.4486 12.5567 21.4486C10.9055 21.4486 11.676 22.7269 11.676 22.7269L12.5567 24Z" fill="#550044"/>
<path d="M16.0409 16.4927C16.0409 16.4927 14.394 16.4057 14.0996 18.1541C13.9563 19.4367 14.394 19.7566 13.8462 20.8531C13.8462 20.8531 14.7857 20.7388 15.2217 20.1099C15.8924 19.1491 15.4803 16.9202 16.0409 16.4927Z" fill="#550044"/>
<path d="M9.05188 16.4927C9.05188 16.4927 10.6919 16.4057 10.9863 18.1541C11.1323 19.4367 10.6919 19.7566 11.2381 20.8531C11.2381 20.8531 10.3045 20.7388 9.87277 20.1099C9.19524 19.1491 9.60824 16.9202 9.05188 16.4927Z" fill="#550044"/>
<path d="M13.6401 21.3018C13.6401 21.3018 14.5062 21.0884 15.031 21.7685C15.5541 22.4418 15.5089 22.6927 16.0781 22.9444C16.0781 22.9444 14.9884 23.4521 14.3765 22.3795C13.7639 21.3018 13.6401 21.3018 13.6401 21.3018Z" fill="#550044"/>
<path d="M11.5112 21.3018C11.5112 21.3018 10.6519 21.0884 10.1228 21.7685C9.59546 22.4418 9.63813 22.6927 9.06897 22.9444C9.06897 22.9444 10.1672 23.4521 10.7773 22.3795C11.39 21.3018 11.5112 21.3018 11.5112 21.3018Z" fill="#550044"/>
<path d="M12.9309 0.662298C13.5257 0.815895 13.5811 1.38505 13.588 1.48916C13.3968 1.38079 13.1221 1.31252 12.8191 1.31252C12.4974 1.31252 12.2158 1.35604 12.0247 1.47124L11.9658 1.50537C12.0512 0.832108 12.6348 0.645232 12.6348 0.645232V0.074366C12.8063 -0.0928832 12.9309 0.074366 12.9309 0.074366V0.662298Z" fill="#550044"/>
<path d="M12.7193 1.60567C12.7193 1.60567 13.3209 1.51437 13.4557 2.00076C13.6025 2.49226 13.4856 2.5136 13.9028 3.00254C14.3244 3.49235 14.1145 3.82087 13.9959 3.79527C13.879 3.77394 13.5538 3.37715 13.3951 3.47272C13.2356 3.56232 13.064 3.91388 12.7193 3.88914C12.3703 3.8661 12.1314 3.39763 11.9727 3.442C11.808 3.49235 11.5136 3.75431 11.4598 3.77394C11.3711 3.80807 10.9948 3.65362 11.2951 3.16723C11.5998 2.67487 11.6638 3.04862 11.9428 2.37536C12.2286 1.69783 12.3012 1.62786 12.7193 1.60567Z" fill="#550044"/>
<path d="M8.75766 2.51806C8.75766 2.51806 8.7423 2.51806 8.65185 2.65886C8.55884 2.80051 8.39074 2.73054 8.39074 2.73054C8.47777 2.70067 8.46753 2.66739 8.55201 2.57865C8.62881 2.48734 8.75766 2.51806 8.75766 2.51806ZM8.91638 1.87211L9.06144 2.16735C9.06144 2.16735 9.18944 2.46601 8.91638 2.46601C8.65185 2.46601 8.76619 2.17588 8.76619 2.17588L8.91638 1.87211ZM8.91638 2.86877L8.78497 2.7075C8.78497 2.7075 8.66892 2.53769 8.91638 2.53769C9.1553 2.53769 9.05205 2.70067 9.05205 2.70067L8.91638 2.86877ZM9.43946 1.86016C9.35413 1.91392 9.41556 2.2049 9.31573 2.33033C9.25002 2.41396 9.10837 2.42591 9.10837 2.42591C9.19541 2.28682 9.128 2.24586 9.14677 2.0769C9.19541 1.84565 9.43946 1.86016 9.43946 1.86016ZM8.38306 1.86016C8.38306 1.86016 8.63393 1.84565 8.67916 2.0769C8.70305 2.24586 8.63393 2.28682 8.71926 2.42591C8.71926 2.42591 8.57761 2.41396 8.50935 2.33033C8.41292 2.2049 8.46924 1.91392 8.38306 1.86016ZM9.07936 2.51806C9.07936 2.51806 9.20992 2.48734 9.29098 2.57865C9.36949 2.66739 9.35839 2.70067 9.44799 2.73054C9.44799 2.73054 9.27989 2.80051 9.18944 2.65886C9.09557 2.51806 9.07936 2.51806 9.07936 2.51806Z" fill="#550044"/>
<path d="M11.3119 11.712L11.3101 11.683C11.0396 10.8587 10.5183 9.5804 11.2931 7.99068L11.3119 7.93521C11.3904 7.78332 11.4672 7.62375 11.5431 7.43176C11.6489 7.16297 11.4603 6.81737 11.3272 6.60063L13.6849 4.31546L14.7917 4.70713L14.7413 4.8522C14.0493 6.40608 12.1037 10.6803 11.3119 11.712Z" fill="#550044"/>
<path d="M16.7583 3.54556C16.673 3.19058 16.271 2.9508 16.1908 3.0805C16.1908 3.0805 15.9997 3.26908 16.0594 3.54556C16.1277 3.81691 16.2096 4.22053 16.0825 4.42874C15.9707 4.62585 15.3674 5.15149 15.0372 5.36567L14.9254 5.42711C14.7769 5.75564 14.5823 6.17035 14.3656 6.6337L14.4424 6.86921L14.4765 6.97075L14.4851 7.00062C14.5508 6.98014 14.8358 6.89225 15.1959 6.71903L15.1728 6.60639C15.1344 6.47327 15.1327 6.41183 15.1012 6.24885L15.1472 6.22325C15.2701 6.17888 15.3973 6.11061 15.509 6.01419C15.9161 5.66945 16.382 4.97742 16.6098 4.22053C16.7327 3.80582 16.7327 3.85446 16.7327 3.85446C16.7327 3.83995 16.7873 3.68635 16.7583 3.54556ZM15.259 7.00574C15.0158 7.13118 14.6352 7.26088 14.561 7.28563L14.6583 7.6389C14.6583 7.77713 14.6736 7.92561 14.7095 8.0775C14.8784 8.74906 15.5321 9.52898 15.5875 9.97185C15.6422 10.4164 15.736 10.9856 15.8862 11.1119C16.0364 11.2399 16.2062 10.5239 16.2207 10.2884C16.242 10.0563 16.4093 10.3721 16.4656 10.1852L16.4699 10.1536C16.5083 9.96588 15.8862 9.7261 15.6976 8.84804C15.5602 8.15771 15.3333 7.29843 15.259 7.00574Z" fill="#550044"/>
<path d="M10.4417 6.99219L10.4144 7.12701V7.13128L10.3726 7.34888C10.3359 7.45725 10.3086 7.54087 10.3086 7.54087C10.0756 7.91718 9.32217 9.07598 9.08068 9.10755C8.78544 9.15022 8.48848 8.77391 8.48848 8.77391C7.90226 8.45392 7.35187 8.92409 7.24862 9.08878C7.14281 9.262 7.47646 9.262 7.85362 9.3388C8.23676 9.42755 8.57467 9.72023 9.25049 9.44717C9.80515 9.21848 10.4648 8.55802 10.7865 8.15526C10.8334 8.12368 10.8761 8.05371 10.9102 7.97009C10.9307 7.91377 10.9964 7.61511 11.045 7.40861L11.0706 7.27549C10.7574 7.15091 10.4417 6.99219 10.4417 6.99219ZM13.2824 4.18053C12.3173 4.08751 11.3036 4.34351 10.9418 4.83928C10.8633 4.93912 10.766 5.29581 10.6806 5.66956C10.3743 5.52193 10.1243 5.347 10.1243 5.347C9.79661 5.13282 9.19503 4.60804 9.07898 4.41177C8.95013 4.20357 9.03716 3.79995 9.10031 3.5303C9.15919 3.25212 8.97317 3.06695 8.97317 3.06695C8.89637 2.93384 8.49275 3.17362 8.40571 3.5303C8.37158 3.66854 8.43131 3.82043 8.43131 3.83749C8.43131 3.83749 8.42705 3.78886 8.55419 4.20357C8.78544 4.96216 9.24452 5.6542 9.6507 5.99467C9.73944 6.07061 10.0185 6.2464 10.527 6.429C10.5032 6.56212 10.4869 6.66367 10.4758 6.71913C10.6175 6.80958 11.1235 6.99816 11.1235 6.99816C11.1704 6.73108 11.2481 6.29589 11.2609 6.20288L11.2635 6.1841L13.3208 4.18223L13.2824 4.18053Z" fill="#550044"/>
</svg>
