<svg width="24" height="24" viewBox="0 0 24 24" fill="none" xmlns="http://www.w3.org/2000/svg">
<g clip-path="url(#clip0_45_4169)">
<path d="M11.9988 3.69183C11.8102 3.11931 11.6057 2.55134 11.4149 1.98109C11.2922 1.61986 11.09 1.38813 10.7356 1.24954C10.5607 1.17911 10.3539 1.16776 10.1699 1.19729C9.99724 1.22456 9.83367 1.29498 9.69281 1.39721C9.60193 1.46083 9.52696 1.54262 9.46108 1.62895C9.38838 1.7221 9.38156 1.81525 9.33612 1.89249C9.32931 1.88568 9.32249 1.88113 9.31567 1.87659C9.34748 1.78798 9.38383 1.69711 9.427 1.61305C9.68599 1.08824 10.0927 0.633859 10.6107 0.354415C10.747 0.279443 10.8878 0.218102 11.0332 0.163577C11.1945 0.104508 11.3604 0.0704318 11.5262 0.0386253C11.6512 0.0136344 11.8375 0.0022719 11.967 0C12.4577 0 12.8666 0.0908772 13.3074 0.306707C13.705 0.50209 14.0617 0.81107 14.3184 1.17457C14.4797 1.40176 14.6137 1.65167 14.7046 1.91521C15.1544 3.22609 15.6111 4.53698 16.0677 5.84787C16.0996 5.94328 16.1359 6.03643 16.1677 6.13412C17.5286 6.1682 18.8917 6.18637 20.2549 6.21364C20.3366 6.21364 20.4184 6.21364 20.5025 6.22273C20.5116 6.22273 20.5161 6.23181 20.5229 6.23636C20.5116 6.24772 20.5002 6.25908 20.4889 6.27271C20.4434 6.34768 20.4184 6.40675 20.3662 6.48399C20.3298 6.53625 20.2594 6.67029 20.2253 6.73163C20.214 6.7498 20.1981 6.80206 20.1867 6.8225C20.1731 6.84749 20.1185 6.91565 20.1004 6.94291C20.0595 7.0088 19.9981 7.11785 19.9595 7.19055C19.9504 7.20872 19.9322 7.26098 19.9232 7.28143C19.8982 7.32233 19.8641 7.36549 19.8368 7.40411C19.5097 8.03797 19.103 8.715 18.7327 9.32614C18.8531 9.31932 18.9712 9.31477 19.0916 9.31477C19.0939 9.31932 19.0962 9.32159 19.0916 9.33295C17.9557 9.31251 16.822 9.30115 15.6861 9.25571C15.1749 9.22618 14.6887 9.01262 14.2752 8.70818C13.7936 8.35377 13.4414 7.85849 13.2483 7.29506C12.8439 6.11822 12.435 4.94138 12.026 3.76681C12.0192 3.74863 12.0101 3.72819 11.9942 3.69638" fill="#D62A23"/>
<path d="M2.05701 11.623C2.07291 11.6275 2.082 11.6253 2.09109 11.6253C2.0979 11.6253 2.10244 11.6253 2.10926 11.6253C2.13652 11.6048 2.23421 11.5526 2.26829 11.5548C2.27284 11.5503 2.27965 11.5435 2.2842 11.5389C2.29101 11.5389 2.29783 11.5389 2.30464 11.5367C2.35917 11.5048 2.42278 11.4708 2.48185 11.4481C2.48867 11.4458 2.49321 11.439 2.49775 11.4344C2.50911 11.4322 2.52275 11.4367 2.5341 11.4321C3.06118 11.18 3.59054 10.921 4.12216 10.6915C4.12898 10.6892 4.13352 10.6802 4.13806 10.6756C4.14488 10.6756 4.15169 10.6756 4.15851 10.6733C4.21304 10.6415 4.27665 10.6074 4.33572 10.5847C4.34253 10.5802 4.34708 10.5734 4.35162 10.5688C4.36525 10.5688 4.37661 10.5688 4.39024 10.5688C4.54246 10.487 4.69695 10.4257 4.84689 10.3416C4.85825 10.3371 4.87189 10.3394 4.88325 10.3416C4.88779 10.3371 4.8946 10.3303 4.89915 10.3257C4.90596 10.3257 4.91278 10.3257 4.9196 10.3235C4.97412 10.2917 5.03773 10.2576 5.0968 10.2349C5.10362 10.2303 5.10816 10.2235 5.11271 10.219C5.11952 10.219 5.12634 10.219 5.13315 10.2167C5.1377 10.2167 5.14451 10.2167 5.15133 10.2167C5.17632 10.194 5.23539 10.1667 5.26947 10.1622C5.26947 10.1508 5.27401 10.1372 5.27628 10.1235C5.95104 10.637 6.62806 11.1504 7.30509 11.6616C7.57771 11.8706 7.81172 12.1183 8.00029 12.4091C8.27746 12.8407 8.42967 13.3451 8.45239 13.8563C8.46602 14.1925 8.41377 14.5219 8.31608 14.8445C7.94803 16.0509 7.58907 17.2596 7.21648 18.4659C7.21648 18.4659 7.21648 18.4705 7.21648 18.4728C7.03246 19.0703 6.85525 19.6473 6.68486 20.2244C6.56672 20.6242 6.6167 20.9946 6.89615 21.3172C7.02337 21.4648 7.19149 21.5762 7.37779 21.6375C7.44822 21.6625 7.53228 21.6693 7.60725 21.6784C7.80718 21.7011 7.96621 21.6875 8.15478 21.608C8.16614 21.6102 8.17522 21.6125 8.18658 21.6171C8.08435 21.6761 7.97984 21.7329 7.87306 21.7806C7.22557 22.0692 6.53491 22.0987 5.86243 21.8874C5.36943 21.7329 4.92868 21.4308 4.58108 21.0514C4.2403 20.6788 4.02447 20.2335 3.91769 19.7473C3.89043 19.6269 3.87452 19.4997 3.86544 19.377C3.84499 19.0862 3.86998 18.7931 3.93359 18.5114C3.95858 18.4046 3.99039 18.2978 4.0222 18.1933C4.4425 16.8165 4.85825 15.4375 5.27856 14.0607C5.25584 14.0426 5.23312 14.0244 5.2104 14.0062C4.16533 13.2156 3.12253 12.4227 2.07064 11.6253" fill="#D62A23"/>
<path d="M9.25885 2.05151C9.25885 2.0765 9.30202 2.14466 9.31111 2.15829C9.3929 2.24008 9.47468 2.32187 9.55647 2.40366C9.55647 2.41048 9.55647 2.41729 9.55875 2.42411C9.8132 2.66493 10.0245 2.93755 10.2789 3.18065C10.2789 3.18746 10.2789 3.19428 10.2789 3.20109C10.3607 3.28288 10.4425 3.36467 10.5243 3.44646C10.5243 3.45328 10.5243 3.46009 10.5243 3.46691C10.6061 3.5487 10.6879 3.63048 10.7697 3.71227C10.7697 3.71908 10.7697 3.7259 10.7697 3.73272C11.0241 3.97354 11.2354 4.24617 11.4899 4.48926C11.4899 4.49608 11.4899 4.50289 11.4899 4.50971C11.5421 4.56196 11.5921 4.61194 11.6443 4.66419C11.6512 4.6392 11.6557 4.62103 11.6602 4.59604C11.6671 4.59604 11.6739 4.5915 11.6898 4.59831C11.3785 5.49798 11.0582 6.39538 10.7515 7.29732C10.7106 7.41773 10.6629 7.53587 10.6084 7.64947C10.4493 7.97662 10.229 8.26742 9.96314 8.51279C9.611 8.83767 9.16571 9.07849 8.69997 9.18981C8.58637 9.21708 8.42734 9.25116 8.31147 9.2557C7.11873 9.30114 5.92598 9.30568 4.73097 9.33294C4.57875 9.33522 4.42426 9.3443 4.27204 9.34658C4.26295 9.34658 4.25614 9.35566 4.24705 9.36021C4.2266 9.34203 4.21297 9.34203 4.18344 9.34203C3.59502 9.35566 3.0066 9.36475 2.42045 9.37384C2.27732 9.37384 2.16827 9.39201 2.03195 9.43063C1.84339 9.48062 1.64119 9.63056 1.5185 9.78278C1.2686 10.0872 1.20271 10.5098 1.33902 10.8778C1.38673 11.0051 1.45944 11.1255 1.55486 11.2232C1.58439 11.255 1.62528 11.28 1.65936 11.3004C1.65936 11.3118 1.65936 11.3231 1.65936 11.3345C1.57985 11.2709 1.5026 11.205 1.4299 11.1346C1.11184 10.8233 0.86647 10.4484 0.718797 10.0304C0.568852 9.60102 0.532502 9.13983 0.593843 8.68999C0.668815 8.14701 0.909636 7.62675 1.26632 7.20872C1.66391 6.74298 2.22279 6.40901 2.82257 6.28633C2.93844 6.26361 3.05658 6.23862 3.17472 6.23408C4.72415 6.18637 6.27585 6.16592 7.82756 6.13638C7.85028 6.07504 7.87073 6.01598 7.89345 5.95464C8.33646 4.65511 8.79084 3.35786 9.24749 2.05606" fill="#D62A23"/>
<path d="M9.25879 2.0516C9.27469 2.00617 9.2906 1.95618 9.3065 1.91075C9.3065 1.90393 9.31331 1.89939 9.32013 1.8744C9.32695 1.87894 9.33376 1.88576 9.34058 1.8903C9.38602 1.81306 9.39283 1.72218 9.46326 1.62676C9.53142 1.54043 9.60639 1.45864 9.69499 1.39503C9.83585 1.29279 9.99716 1.22236 10.1721 1.1951C10.3561 1.16557 10.5606 1.17693 10.7378 1.24736C11.0922 1.38821 11.2944 1.61768 11.4171 1.97891C11.6102 2.54915 11.8124 3.11713 12.001 3.68965C12.0032 3.71009 12.001 3.71691 11.9964 3.72372C11.8965 4.01225 11.7965 4.30078 11.6988 4.58931C11.6829 4.5825 11.6761 4.58477 11.6693 4.58704C11.6647 4.61203 11.6602 4.63021 11.6534 4.6552C11.6011 4.60295 11.5511 4.55296 11.4989 4.50071C11.4989 4.49389 11.4989 4.48708 11.4989 4.48026C11.2444 4.23717 11.0331 3.96454 10.7787 3.72372C10.7787 3.71691 10.7787 3.71009 10.7787 3.70328C10.6969 3.62149 10.6151 3.5397 10.5333 3.45791C10.5333 3.45109 10.5333 3.44428 10.5333 3.43746C10.4515 3.35567 10.3697 3.27389 10.288 3.1921C10.288 3.18528 10.288 3.17847 10.288 3.17165C10.0335 2.92856 9.82222 2.65593 9.56777 2.41511C9.56777 2.40829 9.56777 2.40148 9.5655 2.39466C9.48371 2.31287 9.40192 2.23109 9.32013 2.1493C9.30877 2.13567 9.27015 2.06978 9.26788 2.04252" fill="#AD1F1E"/>
<path d="M2.05691 11.6231C2.05691 11.6231 2.04328 11.614 2.03873 11.6118C1.93195 11.5322 1.82745 11.4505 1.72067 11.3709C1.69795 11.355 1.69568 11.3459 1.66842 11.33C1.66842 11.3187 1.66842 11.3073 1.66842 11.296C1.63434 11.2755 1.59344 11.2482 1.56391 11.2187C1.47076 11.121 1.39579 11.0006 1.34808 10.8734C1.21176 10.5076 1.27765 10.0828 1.52756 9.77833C1.65024 9.62612 1.85017 9.47617 2.04101 9.42619C2.17732 9.38984 2.28637 9.37167 2.4295 9.3694C3.01792 9.36031 3.60407 9.35122 4.19249 9.33759C4.22203 9.33759 4.23566 9.33758 4.2561 9.35576C4.5878 9.61703 4.92859 9.86921 5.2671 10.1214C5.26483 10.1373 5.26255 10.1487 5.26028 10.16C5.2262 10.1668 5.16713 10.1941 5.14214 10.2145C5.1376 10.2145 5.13078 10.2145 5.12397 10.2145C5.11715 10.2145 5.11034 10.2145 5.10352 10.2168C5.09898 10.2214 5.09443 10.2282 5.08762 10.2327C5.03082 10.2554 4.96494 10.2895 4.91041 10.3213C4.90359 10.3236 4.89678 10.3213 4.88996 10.3236C4.88542 10.3281 4.8786 10.3327 4.87406 10.3395C4.8627 10.3395 4.8468 10.3372 4.83771 10.3395C4.69004 10.4236 4.53328 10.4849 4.38106 10.5667C4.36743 10.5667 4.35607 10.5667 4.34244 10.5667C4.33789 10.5712 4.33335 10.578 4.32653 10.5826C4.26974 10.6053 4.20385 10.6394 4.14933 10.6712C4.14251 10.6735 4.13569 10.6712 4.12888 10.6735C4.12433 10.678 4.11979 10.6848 4.11298 10.6894C3.58135 10.9188 3.052 11.1778 2.52492 11.43C2.51356 11.4345 2.49993 11.43 2.48857 11.4323C2.48403 11.4368 2.47948 11.4436 2.47267 11.4459C2.4136 11.4709 2.34998 11.5027 2.29546 11.5345C2.28864 11.5368 2.28183 11.5345 2.27501 11.5368C2.27047 11.5413 2.26365 11.5459 2.25911 11.5527C2.22503 11.5504 2.12961 11.6027 2.10008 11.6231C2.09326 11.6231 2.08872 11.6231 2.0819 11.6231C2.07281 11.6231 2.06145 11.6254 2.04782 11.6208" fill="#AD1F1E"/>
<path d="M15.8383 21.6125C15.8383 21.6125 15.8588 21.6012 15.8701 21.6034C15.9792 21.6421 16.0882 21.6784 16.2041 21.6852C16.3472 21.692 16.5631 21.6648 16.6971 21.6125C17.1174 21.4535 17.4128 21.0196 17.3969 20.5697C17.3923 20.4675 17.381 20.3675 17.3514 20.2698C17.1674 19.6769 16.9902 19.0839 16.8016 18.466C16.7994 18.4478 16.7971 18.4341 16.7903 18.4182C16.4199 17.2028 16.0542 15.9828 15.6839 14.7673C15.6566 14.6742 15.6316 14.581 15.6157 14.4856C15.5339 14.0176 15.5566 13.5291 15.7043 13.0747C15.8906 12.5113 16.2382 12.016 16.7107 11.6594C17.7286 10.8892 18.7486 10.1167 19.7664 9.34429C19.6756 9.34429 19.587 9.34429 19.4984 9.3352C19.5847 9.3352 19.6642 9.3352 19.7437 9.3352C19.7505 9.3352 19.7551 9.33974 19.7619 9.34202C19.7733 9.3352 19.7869 9.33066 19.796 9.32157C20.2776 8.96943 20.7502 8.60138 21.225 8.24242C21.5794 7.97434 21.7657 7.59493 21.6885 7.14737C21.6339 6.82931 21.4681 6.58621 21.2068 6.40446C21.091 6.32267 20.9524 6.27723 20.8161 6.24997C20.8115 6.24315 20.807 6.23861 20.8024 6.23179C20.757 6.24088 20.707 6.24543 20.6616 6.23861C20.6525 6.23861 20.6457 6.23179 20.6389 6.22952C20.6457 6.22725 20.6525 6.22271 20.6616 6.22271C20.7047 6.21816 20.7593 6.21816 20.8024 6.22271C20.9501 6.24088 21.0978 6.26133 21.2432 6.29314C21.6021 6.37265 21.952 6.53623 22.2496 6.75433C22.7063 7.0883 23.0675 7.56539 23.2561 8.09929C23.3879 8.46734 23.4446 8.80358 23.4333 9.19434C23.4128 9.80321 23.2038 10.353 22.8335 10.8347C22.679 11.0369 22.4882 11.2163 22.286 11.3708C21.1069 12.266 19.9255 13.1588 18.7441 14.0539C19.1894 15.5079 19.6415 16.9574 20.0663 18.4182C20.1186 18.6 20.1459 18.7931 20.1572 18.9817C20.1822 19.3838 20.1231 19.7859 19.98 20.1631C19.7551 20.7583 19.3166 21.2672 18.7736 21.5989C18.6282 21.6875 18.4715 21.7602 18.3147 21.8261C18.1625 21.8897 17.9989 21.9283 17.8376 21.9647C17.6945 21.9987 17.5445 22.0056 17.3969 22.0169C17.2719 22.026 17.1151 22.0169 16.9902 22.0033C16.7289 21.9715 16.4745 21.9101 16.2314 21.8102C16.0928 21.7534 15.9588 21.6852 15.8293 21.6103" fill="#D62A23"/>
<path d="M19.5005 9.33297C19.4232 9.33297 19.346 9.32843 19.271 9.32616C19.212 9.32616 19.1529 9.32616 19.0938 9.32616C19.0984 9.3148 19.0961 9.31025 19.0938 9.30798C18.9734 9.30798 18.853 9.31026 18.7349 9.31934C19.1052 8.7082 19.5119 8.0289 19.839 7.39732C19.8663 7.36096 19.9003 7.31553 19.9253 7.2769C19.9367 7.25646 19.9526 7.20421 19.9617 7.18603C20.0003 7.1156 20.0616 7.00428 20.1025 6.93839C20.1184 6.91113 20.1752 6.84297 20.1889 6.81571C20.2002 6.79526 20.2161 6.74301 20.2275 6.72484C20.2616 6.66349 20.332 6.52945 20.3684 6.4772C20.4229 6.39768 20.4479 6.33862 20.491 6.26592C20.5024 6.25456 20.5138 6.2432 20.5251 6.22956C20.5319 6.22502 20.5342 6.2182 20.5387 6.2182C20.5706 6.2182 20.5978 6.2182 20.641 6.22956C20.6478 6.23184 20.6546 6.23865 20.6637 6.23865C20.7091 6.24547 20.7591 6.24092 20.8046 6.23183C20.8091 6.23865 20.8136 6.24319 20.8182 6.25001C20.9545 6.27727 21.0931 6.32271 21.209 6.4045C21.4725 6.58625 21.6361 6.82935 21.6906 7.14741C21.7678 7.5927 21.5815 7.97438 21.2271 8.24246C20.7523 8.60142 20.2798 8.96947 19.7981 9.32161C19.7868 9.32843 19.7754 9.33524 19.764 9.34206C19.7572 9.33979 19.7527 9.33524 19.7459 9.33524C19.6663 9.33297 19.5846 9.33524 19.4982 9.33524" fill="#AD1F1E"/>
<path d="M8.17519 21.6126C8.17519 21.6126 8.15474 21.608 8.14338 21.6035C7.95482 21.6807 7.79578 21.6966 7.59586 21.6739C7.52088 21.6648 7.4391 21.658 7.36639 21.633C7.18237 21.5717 7.01425 21.4603 6.88475 21.3127C6.60758 20.9878 6.55533 20.6197 6.67347 20.2199C6.84386 19.6428 7.02107 19.0658 7.20509 18.4683C7.21191 18.466 7.21872 18.4637 7.22326 18.4592C8.27061 17.7344 9.31795 17.0052 10.363 16.2782C10.6357 16.0873 10.9401 15.9465 11.2627 15.8601C11.7512 15.7306 12.2737 15.7329 12.7621 15.8647C13.1007 15.9555 13.4096 16.1123 13.6959 16.3122C14.7228 17.0302 15.752 17.7458 16.7834 18.4592C16.7879 18.4637 16.7948 18.466 16.8016 18.4705C16.9901 19.0862 17.1674 19.6792 17.3514 20.2744C17.3809 20.3721 17.3923 20.4721 17.3968 20.5743C17.4104 21.0219 17.1151 21.4581 16.6971 21.6171C16.563 21.6671 16.3472 21.6966 16.2041 21.6898C16.0859 21.683 15.9792 21.6466 15.8701 21.608C15.8587 21.6035 15.8497 21.6148 15.8383 21.6171C15.7997 21.5876 15.7588 21.5671 15.727 21.5444C15.0091 21.0423 14.2911 20.5448 13.5709 20.045C13.5709 20.8628 13.5755 21.6807 13.5709 22.4986C13.5687 22.8871 13.3846 23.2665 13.1166 23.5391C12.8508 23.8118 12.4736 23.9799 12.0942 23.9981C11.7739 24.014 11.4694 23.9322 11.1945 23.7731C10.7492 23.5164 10.4562 23.0234 10.4425 22.5168C10.4198 21.6989 10.4425 20.8651 10.4425 20.045C9.72235 20.5448 9.0067 21.0491 8.28651 21.5467C8.24789 21.5717 8.21381 21.5944 8.17746 21.6171" fill="#48337E"/>
</g>
<defs>
<clipPath id="clip0_45_4169">
<rect width="24" height="24" fill="white"/>
</clipPath>
</defs>
</svg>
