<svg width="24" height="24" viewBox="0 0 24 24" fill="none" xmlns="http://www.w3.org/2000/svg">
<g clip-path="url(#clip0_45_4175)">
<rect width="24" height="24" fill="#3E1126"/>
<path d="M17.6716 13.8551C17.6719 15.0015 17.3323 16.1222 16.6956 17.0755C16.059 18.0289 15.154 18.7721 14.095 19.2111C13.036 19.6501 11.8706 19.7652 10.7462 19.5419C9.62175 19.3186 8.5888 18.7668 7.77794 17.9565C6.96708 17.1461 6.41472 16.1135 6.19072 14.9892C5.96671 13.8649 6.08112 12.6995 6.51947 11.6402C6.95782 10.581 7.70043 9.67547 8.65339 9.03825C9.60635 8.40104 10.7269 8.06071 11.8732 8.0603C13.4106 8.0599 14.8851 8.67017 15.9725 9.75689C17.0599 10.8436 17.6711 12.3178 17.6716 13.8551Z" fill="#C41D1D"/>
<path d="M9.94163 16.5234C8.43349 16.8387 7.34474 16.0602 6.47639 15.4291L6.29425 15.2959C5.76012 14.8981 5.13142 14.6467 4.47031 14.5663H4.42287C3.46931 14.4311 1.99332 14.3837 0.255097 15.5842L0 15.2337C1.85863 13.9582 3.43819 14.0046 4.46317 14.1393H4.50501C5.23684 14.2315 5.93353 14.507 6.53047 14.9403L6.71261 15.075C7.51872 15.653 8.5238 16.3755 9.85336 16.0954C10.5136 15.9571 11.2161 15.5959 12.0676 14.9592L12.0931 14.9393C12.9532 14.229 13.7519 13.4475 14.4808 12.6031L15.2941 11.673C16.1349 10.7077 18.245 8.30576 19.6843 6.85426C21.02 5.49816 22.4485 4.65328 23.9128 4.34717L24 4.7594C22.6158 5.05123 21.2643 5.85377 19.9878 7.14864C18.5598 8.59504 16.4532 10.9797 15.6119 11.949L14.7956 12.8812C14.0531 13.7501 13.2374 14.5537 12.3574 15.2832L12.3298 15.3051C11.4181 15.9816 10.6687 16.3683 9.94418 16.5194L9.94163 16.5234Z" fill="#FFE401"/>
<path d="M9.77014 15.6969C8.70537 15.9214 7.93345 15.4454 6.96153 14.7485L6.77939 14.6118C6.10112 14.1274 5.31132 13.8225 4.48352 13.7256C3.76872 13.6773 3.05089 13.7006 2.34071 13.7949L2.28357 13.3776C3.02193 13.2768 3.76872 13.2524 4.51209 13.3047C5.41715 13.4085 6.2812 13.7397 7.02377 14.2674L7.20591 14.4026C8.11814 15.0551 8.7819 15.4709 9.6829 15.2817C10.2099 15.1704 10.8262 14.849 11.565 14.2965L11.5757 14.2858C12.3933 13.6033 13.1512 12.8523 13.841 12.0409C14.0803 11.771 14.3558 11.4552 14.6547 11.1124C15.9624 9.6134 17.7934 7.55222 19.0934 6.24664C19.6832 5.66397 20.3234 5.1347 21.0066 4.66504L21.2383 5.0186C20.5797 5.47118 19.9622 5.98078 19.3929 6.54153C18.1031 7.83844 16.2777 9.89401 14.9736 11.3884C14.6746 11.7327 14.3991 12.0486 14.1619 12.3184C13.4524 13.1475 12.6745 13.9155 11.8364 14.6143L11.8216 14.625C11.0201 15.2337 10.3615 15.5714 9.76861 15.6969H9.77014Z" fill="#FFE401"/>
<path d="M9.60235 14.8765C8.82023 15.0423 8.27585 14.6535 7.45393 14.0602L7.27179 13.925C6.46537 13.347 5.52276 12.9882 4.53613 12.8837L4.55807 12.4602C5.62798 12.5671 6.65078 12.9543 7.52331 13.5826L7.70596 13.7194C8.98145 14.6316 9.35644 14.9051 11.0692 13.623C11.8428 12.9717 12.5618 12.2583 13.2191 11.4898L14.0273 10.5654C15.3568 9.03785 17.1787 6.94911 18.5124 5.63843L18.8078 5.93944C17.4853 7.23227 15.6706 9.31335 14.3446 10.8347L13.5349 11.7613C12.8635 12.5533 12.1245 13.2855 11.3263 13.9495C10.5967 14.4969 10.0661 14.776 9.61204 14.8617L9.60235 14.8765Z" fill="#FFE401"/>
</g>
<defs>
<clipPath id="clip0_45_4175">
<rect width="24" height="24" fill="white"/>
</clipPath>
</defs>
</svg>
