<svg width="24" height="24" viewBox="0 0 24 24" fill="none" xmlns="http://www.w3.org/2000/svg">
<path fill-rule="evenodd" clip-rule="evenodd" d="M12.9958 13.0393C13.0167 13.0603 13.0167 13.0813 13.0378 13.0813C18.8953 4.57846 29.2667 12.5775 20.8058 20.4084L22.4014 21.8991L21.8555 22.4449L14.5284 21.8571L14.3604 17.91C12.9538 22.2561 4.66088 24.0825 2.62439 15.3697L0.440918 15.8105L3.82104 10.079L4.30398 9.53319L8.01998 11.7377C3.50613 8.27349 6.90727 -0.271312 16.5019 3.17179L16.7747 1.99612L17.2577 1.51318L21.0368 7.8956L20.4909 8.48349L13.4367 11.1287L14.2555 8.90341C11.2533 7.79065 9.93058 11.1918 12.9958 13.1444C12.9958 13.1023 12.9958 13.0813 12.9958 13.0393ZM9.21673 12.4515L11.2532 13.6692L10.6443 14.2151L8.83881 14.152C9.00674 16.8394 13.1427 16.9233 12.9958 13.1444C11.4842 13.1862 10.2245 12.9133 9.21673 12.4515ZM13.0588 13.1023C13.6676 13.8162 14.0875 14.5089 14.3184 15.2018L14.8013 14.6769L16.4389 16.2725C18.6644 14.2151 16.145 11.0658 13.0588 13.1023Z" fill="white"/>
<path fill-rule="evenodd" clip-rule="evenodd" d="M12.6179 13.6903C18.7694 21.4372 4.95483 27.6307 2.22547 16.0206L0 16.3775L3.82099 10.0791L10.6443 14.257L8.29288 14.74C8.90178 17.6582 12.4918 17.2382 12.6179 13.6903C12.5968 13.7111 12.5758 13.7111 12.5549 13.7321C1.74257 13.9422 4.03098 -0.54416 16.103 3.75973L16.7118 2.1012L20.4279 8.48355L12.9958 11.7168L13.8776 9.49128C10.8123 8.37856 9.48963 11.7588 12.5549 13.7321C18.0135 4.80947 28.9517 13.2073 20.4279 21.0593L21.7506 22.4451L14.1504 22.4869L14.3184 15.2649L15.998 16.9233C18.2864 14.8028 15.7041 11.6537 12.6179 13.6903Z" fill="#F4B035"/>
</svg>
