<svg width="24" height="24" viewBox="0 0 24 24" fill="none" xmlns="http://www.w3.org/2000/svg">
<path d="M12.0029 1.19666C13.8719 2.96349 15.7414 4.72933 17.6109 6.49517C17.441 6.67011 17.2675 6.84156 17.0956 7.01401C15.4015 5.41413 13.7069 3.81426 12.0144 2.2124C10.3617 3.87108 8.69054 5.51082 7.03684 7.16851C6.86041 6.99856 6.67949 6.83259 6.50305 6.66164C7.92698 5.24119 9.35939 3.82971 10.7813 2.40678C11.1995 2.01503 11.5987 1.60285 12.0029 1.19666Z" fill="#013CC8"/>
<path d="M7.43213 7.47945C8.9682 5.95135 10.5197 4.43919 12.0573 2.91309C13.6253 4.38686 15.1878 5.86662 16.7552 7.34039C16.5828 7.51284 16.4098 7.68529 16.2379 7.85873C14.8508 6.54694 13.4638 5.23514 12.0693 3.93182C10.7041 5.28149 9.33303 6.62419 7.9709 7.97685C7.78799 7.81437 7.61106 7.64542 7.43213 7.47945Z" fill="#013CC8"/>
<path d="M8.31824 8.32479C9.55577 7.09971 10.8078 5.88909 12.0418 4.66003C13.3067 5.83128 14.5602 7.01399 15.8222 8.18773C15.6492 8.36017 15.4763 8.53262 15.3038 8.70606C14.2243 7.6958 13.1398 6.69152 12.0612 5.68026C10.9877 6.72491 9.92159 7.77804 8.85252 8.82767C8.6731 8.66171 8.49816 8.49026 8.31824 8.32479Z" fill="#013CC8"/>
<path d="M15.9647 8.58647C16.6081 7.97393 17.2257 7.33448 17.8566 6.70898C19.7221 8.47981 21.5931 10.2442 23.4631 12.01C23.2917 12.1809 23.1198 12.3514 22.9508 12.5248C21.2542 10.9334 19.5652 9.33357 17.8776 7.7327C16.2029 9.37145 14.5522 11.0346 12.8856 12.6818C12.7116 12.5094 12.5317 12.3439 12.3528 12.177C13.5584 10.9818 14.7645 9.78712 15.9647 8.58647Z" fill="#013CC8"/>
<path d="M3.48686 9.41776C4.32168 8.57147 5.17495 7.74512 6.01425 6.90332C7.88077 8.67215 9.75476 10.4345 11.6208 12.2043C11.4493 12.3763 11.2779 12.5477 11.1059 12.7192C9.41285 11.1208 7.71829 9.52292 6.02921 7.92006C5.03539 8.90391 4.03859 9.88426 3.05275 10.8761C2.37044 11.5295 1.72202 12.2173 1.03672 12.8677C0.862776 12.6987 0.68385 12.5363 0.508911 12.3688C1.08606 11.7832 1.67966 11.214 2.2588 10.6304C2.66649 10.2247 3.0677 9.8115 3.48686 9.41776Z" fill="#013CC8"/>
<path d="M13.2833 12.9879C14.8239 11.4708 16.3629 9.95166 17.906 8.43701C18.0595 8.54068 18.1801 8.68621 18.3182 8.80882C19.7486 10.1555 21.1735 11.5082 22.6094 12.8489C22.4365 13.0233 22.2625 13.1968 22.0886 13.3707C20.7055 12.0574 19.3115 10.7556 17.9284 9.44229C16.5588 10.791 15.1867 12.1376 13.8216 13.4918C13.6382 13.3283 13.4623 13.1564 13.2833 12.9879Z" fill="#013CC8"/>
<path d="M6.06791 8.61487C7.63039 10.0956 9.20086 11.5679 10.7653 13.0462C10.5914 13.2171 10.4224 13.3931 10.244 13.5585C8.85596 12.2497 7.46692 10.9424 6.07887 9.6341C4.71325 10.9858 3.33916 12.3285 1.97304 13.6801C1.80308 13.5087 1.60871 13.3612 1.4552 13.1743C2.56664 12.0419 3.71695 10.9484 4.83735 9.82499C5.25402 9.42776 5.65124 9.0116 6.06791 8.61487Z" fill="#013CC8"/>
<path d="M15.6862 12.3499C16.4233 11.6252 17.1624 10.9015 17.9006 10.1779C19.164 11.3516 20.42 12.5333 21.6814 13.709C21.5045 13.8785 21.3246 14.045 21.1516 14.2184C20.0761 13.2066 18.9901 12.2059 17.9145 11.1941C16.842 12.2392 15.7769 13.2919 14.7058 14.3385C14.5239 14.1726 14.3465 14.0021 14.1705 13.8301C14.6874 13.3487 15.1773 12.8393 15.6862 12.3499Z" fill="#013CC8"/>
<path d="M2.32654 14.0285C3.56307 12.8024 4.81705 11.5948 6.0501 10.3647C7.31653 11.5335 8.56652 12.7202 9.83196 13.8904C9.66101 14.0669 9.48607 14.2393 9.31263 14.4133C8.2301 13.402 7.14807 12.3898 6.06156 11.383C5.00545 12.4411 3.92292 13.4728 2.8673 14.5314C2.68539 14.3654 2.50347 14.2 2.32654 14.0285Z" fill="#013CC8"/>
<path d="M0 12.8702C2.03298 14.6605 4.07044 16.4458 6.10043 18.2395C7.96944 16.5161 9.83745 14.7916 11.702 13.0631C11.6825 13.3961 11.7309 13.728 11.7214 14.0609C9.85041 15.7784 7.98389 17.5004 6.11688 19.2224C4.12228 17.462 2.13715 15.6907 0.143539 13.9288C0.0946961 13.8805 0.02492 13.8346 0.0343896 13.7559C0.0264152 13.4608 0.00598082 13.1658 0 12.8702Z" fill="#013CC8"/>
<path d="M12.28 12.9575C14.3015 14.7288 16.3445 16.4762 18.3755 18.2366C20.1842 16.4847 21.9949 14.7343 23.7981 12.9775C23.7941 13.3079 23.827 13.6373 23.835 13.9673C22.0323 15.7286 20.2091 17.4691 18.4024 19.2259C16.3779 17.4526 14.3454 15.6883 12.3189 13.9169C12.3069 13.597 12.3015 13.277 12.28 12.9575Z" fill="#013CC8"/>
<path d="M18.4618 20.1435C20.2824 18.3278 22.0767 16.4867 23.8799 14.6536C23.8938 14.9696 23.8933 15.2865 23.9073 15.603C22.1046 17.4456 20.2969 19.2832 18.4971 21.1283C16.4652 19.3535 14.4392 17.5717 12.4057 15.7984C12.4012 15.4515 12.3718 15.1061 12.3618 14.7592C14.3933 16.5565 16.4298 18.3472 18.4618 20.1435Z" fill="#013CC8"/>
<path d="M0.0567627 14.6685C2.09124 16.4941 4.12272 18.3237 6.16168 20.1439C8.03717 18.3576 9.88823 16.5454 11.7493 14.7442C11.7358 15.0507 11.7951 15.3572 11.7642 15.6638C11.6361 15.8442 11.4562 15.9822 11.3007 16.1387C9.59766 17.8089 7.87868 19.4621 6.17863 21.1352C4.29866 19.4631 2.42168 17.788 0.543202 16.1138C0.391688 15.9723 0.222232 15.8482 0.0866667 15.6907C0.0821811 15.3503 0.0617467 15.0094 0.0567627 14.6685Z" fill="#013CC8"/>
<path d="M18.55 21.8166C20.3542 19.9805 22.1524 18.1389 23.9492 16.2953C23.9766 16.6272 23.9925 16.9597 24 17.2926C22.1928 19.1282 20.3826 20.9613 18.5739 22.7959C16.5504 21.0461 14.5169 19.3076 12.4919 17.5592C12.458 17.2263 12.467 16.8919 12.4506 16.5584C14.4791 18.3163 16.522 20.0577 18.55 21.8166Z" fill="#013CC8"/>
<path d="M6.21361 21.813C8.0881 20.0143 9.94066 18.1936 11.7967 16.377C11.8191 16.7119 11.8311 17.0473 11.8286 17.3832C9.9601 19.1884 8.0901 20.9927 6.22707 22.8034C4.20207 21.0236 2.17158 19.2492 0.143085 17.4739C0.128133 17.138 0.133615 16.8021 0.124146 16.4667C0.929562 17.1988 1.7599 17.9031 2.57528 18.6242C3.78889 19.6863 5.001 20.7499 6.21361 21.813Z" fill="#013CC8"/>
</svg>
