<svg width="24" height="24" viewBox="0 0 24 24" fill="none" xmlns="http://www.w3.org/2000/svg">
<g clip-path="url(#clip0_45_4183)">
<path d="M24 12C24 18.6353 18.6353 24 12 24C5.36471 24 0 18.6353 0 12C0 5.36471 5.36471 0 12 0C18.6353 0 24 5.36471 24 12Z" fill="#0B509D"/>
<path d="M19.7647 11.5765V6.77647C19.7647 5.85882 19.1294 5.08235 18.2823 4.94118L16.5882 4.65882C14.1176 4.44706 10.0235 4.44706 7.5529 4.65882L5.7176 4.87059C4.79996 5.08235 4.23525 5.85882 4.23525 6.77647V11.5765C4.23525 11.5765 3.9529 16.7294 10.8705 20.5412C11.5764 20.9647 12.4235 20.9647 13.1294 20.5412C13.6235 20.2588 14.1176 19.9765 14.4705 19.6235L9.03525 14.4706C8.7529 14.2588 8.68231 13.8353 8.82349 13.5529C8.96466 13.2 9.24702 12.9882 9.59996 12.9882H10.7294C11.5764 12.9882 12.2117 12.4941 12.5647 11.7882H8.61172C8.1176 11.7882 7.76466 11.4353 7.76466 10.9412C7.76466 10.4471 8.1176 10.0941 8.61172 10.0941H12.5647C12.2117 9.38824 11.5058 8.89412 10.7294 8.89412H8.61172C8.1176 8.89412 7.76466 8.54118 7.76466 8.04706C7.76466 7.55294 8.1176 7.2 8.61172 7.2H10.7294H15.1058C15.6 7.2 15.9529 7.55294 15.9529 8.04706C15.9529 8.54118 15.6 8.89412 15.1058 8.89412H13.7647C14.047 9.24706 14.1882 9.67059 14.3294 10.0941H15.1058C15.6 10.0941 15.9529 10.4471 15.9529 10.9412C15.9529 11.4353 15.6 11.7882 15.1058 11.7882H14.2588C13.9058 13.1294 12.9176 14.1882 11.5058 14.5412L15.7411 18.5647C19.9764 15.2471 19.7647 11.5765 19.7647 11.5765Z" fill="white"/>
</g>
<defs>
<clipPath id="clip0_45_4183">
<rect width="24" height="24" fill="white"/>
</clipPath>
</defs>
</svg>
