<svg width="24" height="24" viewBox="0 0 24 24" fill="none" xmlns="http://www.w3.org/2000/svg">
<g clip-path="url(#clip0_45_4180)">
<path d="M7.86342 0.561401H7.98156C8.47572 1.8105 9.16727 2.96739 9.67584 4.20929C7.99741 3.91538 6.29448 4.15166 4.60452 4.07098C3.77179 4.03352 2.9477 3.82606 2.20862 3.43419C2.95635 2.8968 3.85247 2.63891 4.65063 2.19373C5.71387 1.63473 6.865 1.23566 7.86342 0.561401ZM0 6.37612C1.74903 6.74927 3.56001 6.74062 5.29319 7.19877C6.4155 7.43361 7.55511 7.91913 8.28411 8.83831C8.712 9.44629 8.87768 10.2055 8.84887 10.9417C7.54502 11.5915 6.21092 12.1808 4.88978 12.7974C4.40715 13.0178 3.949 13.3621 3.39576 13.3492C2.31379 11.0008 1.07765 8.72449 0 6.37612Z" fill="#DE4019"/>
<path d="M14.6074 1.73556C14.678 1.48056 14.9805 1.63183 15.1433 1.68658C18.0824 2.84347 20.9941 4.07096 23.9389 5.21201C24.0959 5.39642 23.9057 5.63846 23.864 5.8344C22.697 8.62938 21.5459 11.4316 20.4379 14.2511C20.3818 14.3533 20.3155 14.4513 20.242 14.5421C20.1195 14.0868 20.1181 13.6071 19.9769 13.1575C19.6239 12.1692 18.9583 11.2544 17.9959 10.7876C17.1704 10.2833 16.1835 10.2516 15.2658 10.0398C15.5741 9.51254 16.0149 9.07889 16.4428 8.64955C16.6546 8.40751 16.9975 8.44497 17.2857 8.40175C17.2698 8.32827 17.2381 8.18132 17.2237 8.1064C16.7785 7.92055 16.3593 7.59639 15.8694 7.5647C14.8811 7.83267 13.9187 8.20725 12.9217 8.45074C12.7762 7.98106 12.5832 7.5258 12.4693 7.04604C13.1364 5.26099 13.8928 3.50476 14.6074 1.73556Z" fill="#0084C4"/>
<path d="M11.5733 13.5524C11.6799 13.2887 12.0084 13.3233 12.2403 13.2988C12.9636 13.293 13.7329 13.2023 14.4029 13.5336C15.8637 14.1459 16.8866 15.5016 17.4096 16.9596C15.4013 19.0818 13.5082 21.3092 11.507 23.4385C10.9207 23.1 10.4827 22.5741 9.96113 22.152C8.05363 20.4087 6.10722 18.7087 4.20836 16.9553C4.72126 16.2796 5.33212 15.6846 5.90408 15.0593C6.53656 15.6313 7.25692 16.1845 8.12567 16.3128C8.93535 16.4079 9.75655 16.3862 10.5677 16.3113C10.8962 15.3893 11.1958 14.4542 11.5733 13.5524Z" fill="#68B92E"/>
</g>
<defs>
<clipPath id="clip0_45_4180">
<rect width="24" height="24" fill="white"/>
</clipPath>
</defs>
</svg>
