<svg width="24" height="24" viewBox="0 0 24 24" fill="none" xmlns="http://www.w3.org/2000/svg">
<g clip-path="url(#clip0_45_4184)">
<rect width="24" height="24" fill="#853A93"/>
<path fill-rule="evenodd" clip-rule="evenodd" d="M19.4188 16.0189L17.8226 13.4236L16.2572 16.0189H19.4188ZM19.4158 7.96981H16.2376L17.8214 10.5131L19.4158 7.96981ZM11.9751 3.93013L10.4005 6.51154H13.5627L11.9751 3.93013ZM4.56847 7.96981L6.13995 10.5288L7.70344 7.96981H4.56847ZM4.56674 16.0406L7.70613 16.0213L6.14042 13.4489L4.56674 16.0406ZM1.88184 6.51154H8.62683L11.7996 1.32774L12.0001 1L12.2007 1.32774L15.3733 6.51154H22.1182L21.9173 6.83771L18.7453 11.9879L21.9181 17.1751L22.1176 17.5013H15.3732L12.2007 22.673L12.0001 23L11.7996 22.673L8.62696 17.5013H1.88249L2.08185 17.1751L5.25459 11.9879L2.08272 6.83771L1.88184 6.51154ZM9.50952 8.01847L6.95379 11.9892L9.50952 15.9945H14.4903L17.0462 11.9892L14.4903 8.01847H9.50952ZM11.9976 20.061L13.5629 17.5013H10.4037L11.9976 20.061ZM11.8169 10.2987C12.3148 10.2987 12.7677 10.4901 13.0959 10.7989V10.7981C13.4235 11.106 13.627 11.5316 13.627 12.0004C13.627 12.4684 13.4235 12.8936 13.0959 13.2018V13.2027C12.7684 13.5107 12.3154 13.702 11.8169 13.702C11.3184 13.702 10.8656 13.5107 10.5381 13.2027H10.539C10.2105 12.894 10.0068 12.4683 10.0068 12.0003C10.0068 11.5327 10.21 11.1074 10.538 10.7989C10.5382 10.7986 10.5388 10.798 10.5388 10.798C10.867 10.4896 11.3196 10.2987 11.8169 10.2987Z" fill="white"/>
</g>
<defs>
<clipPath id="clip0_45_4184">
<rect width="24" height="24" fill="white"/>
</clipPath>
</defs>
</svg>
