<svg width="24" height="24" viewBox="0 0 24 24" fill="none" xmlns="http://www.w3.org/2000/svg">
<path d="M23.9157 10.4593C23.806 10.1466 23.6019 9.87569 23.3316 9.68394C23.0613 9.49219 22.7382 9.38909 22.4068 9.38886H22.3914C22.1759 9.38873 21.9626 9.43229 21.7644 9.5169C21.5662 9.60151 21.3872 9.72541 21.2382 9.88113C21.0895 9.72537 20.9107 9.60143 20.7126 9.51681C20.5146 9.4322 20.3014 9.38866 20.0861 9.38886H20.0716C19.6889 9.38843 19.3189 9.52613 19.0296 9.77666V9.65433C19.0254 9.59498 18.9989 9.53942 18.9554 9.49884C18.9119 9.45826 18.8546 9.43569 18.7951 9.43566H17.7258C17.6631 9.43572 17.603 9.46063 17.5587 9.50493C17.5143 9.54922 17.4894 9.60929 17.4893 9.67196V15.4798C17.4891 15.5109 17.4952 15.5417 17.507 15.5705C17.5188 15.5993 17.5362 15.6255 17.5582 15.6476C17.5802 15.6696 17.6063 15.6871 17.6351 15.6991C17.6638 15.711 17.6947 15.7172 17.7258 15.7172H18.7951C18.852 15.7172 18.907 15.6966 18.9499 15.6592C18.9928 15.6218 19.0206 15.5701 19.0283 15.5137V11.3446C19.0283 11.3306 19.0283 11.3166 19.0303 11.3025C19.0377 11.2083 19.0791 11.12 19.147 11.0542C19.2148 10.9883 19.3042 10.9494 19.3987 10.9448H19.5963C19.6788 10.9502 19.7576 10.9806 19.8224 11.0319C19.8687 11.0696 19.9059 11.1173 19.931 11.1715C19.9562 11.2257 19.9687 11.2849 19.9676 11.3446L19.971 15.4931C19.9712 15.5559 19.9963 15.6161 20.0408 15.6605C20.0853 15.7048 20.1456 15.7297 20.2084 15.7296H21.2778C21.3385 15.7294 21.3967 15.7058 21.4404 15.6637C21.4841 15.6215 21.5099 15.5642 21.5122 15.5035V11.3383C21.5109 11.2723 21.5262 11.2071 21.5568 11.1486C21.5873 11.0901 21.632 11.0403 21.6868 11.0036C21.7462 10.9659 21.8139 10.9433 21.884 10.9378H22.0812C22.1829 10.9434 22.2784 10.9883 22.3476 11.0631C22.4167 11.1379 22.454 11.2367 22.4516 11.3385L22.4559 15.4811C22.4557 15.5122 22.4618 15.5431 22.4736 15.5718C22.4854 15.6006 22.5028 15.6268 22.5247 15.6489C22.5467 15.6709 22.5728 15.6884 22.6015 15.7004C22.6302 15.7123 22.661 15.7185 22.6922 15.7185H23.7613C23.7924 15.7185 23.8233 15.7123 23.852 15.7004C23.8808 15.6885 23.9069 15.671 23.9289 15.6489C23.951 15.6269 23.9684 15.6007 23.9803 15.5719C23.9922 15.5431 23.9983 15.5123 23.9983 15.4811V11.0265C24.0074 10.8346 23.9799 10.6427 23.9171 10.4611" fill="#00B2F1"/>
<path d="M16.6752 9.45104H16.0647V8.45609C16.0656 8.42397 16.0592 8.39206 16.0459 8.3628C16.0326 8.33355 16.0128 8.30772 15.988 8.2873C15.9631 8.26687 15.934 8.25239 15.9027 8.24497C15.8715 8.23754 15.8389 8.23736 15.8076 8.24444C15.1292 8.43054 15.2649 9.36986 14.028 9.45014H13.9068C13.8893 9.45035 13.872 9.45231 13.855 9.45601C13.8027 9.46791 13.7561 9.49722 13.7227 9.53913C13.6893 9.58105 13.6711 9.63307 13.6711 9.68666V10.7551C13.671 10.7862 13.677 10.8171 13.6889 10.8458C13.7007 10.8746 13.7181 10.9008 13.74 10.9229C13.762 10.9449 13.7881 10.9624 13.8168 10.9744C13.8455 10.9863 13.8763 10.9925 13.9074 10.9925H14.553V15.5266C14.553 15.5573 14.559 15.5878 14.5707 15.6162C14.5825 15.6446 14.5997 15.6704 14.6214 15.6922C14.6432 15.7139 14.669 15.7312 14.6974 15.7429C14.7259 15.7546 14.7563 15.7607 14.7871 15.7606H15.844C15.8747 15.7606 15.905 15.7545 15.9334 15.7427C15.9617 15.7309 15.9874 15.7137 16.0091 15.6919C16.0307 15.6702 16.0479 15.6444 16.0596 15.616C16.0712 15.5876 16.0772 15.5572 16.0771 15.5266V10.9925H16.6761C16.7072 10.9925 16.738 10.9863 16.7667 10.9743C16.7954 10.9623 16.8215 10.9448 16.8434 10.9228C16.8653 10.9007 16.8827 10.8746 16.8945 10.8458C16.9063 10.817 16.9123 10.7862 16.9122 10.7551V9.68666C16.9123 9.65561 16.9062 9.62485 16.8944 9.59615C16.8826 9.56744 16.8652 9.54135 16.8433 9.51937C16.8213 9.4974 16.7953 9.47997 16.7666 9.46809C16.7379 9.45621 16.7072 9.45011 16.6761 9.45014" fill="#00B2F1"/>
<path d="M12.8273 9.45126H11.7584C11.7273 9.4512 11.6965 9.45727 11.6677 9.46913C11.639 9.48099 11.6128 9.49841 11.5908 9.52038C11.5688 9.54235 11.5514 9.56844 11.5394 9.59717C11.5275 9.62589 11.5214 9.65669 11.5214 9.68779V11.8984C11.5205 11.9639 11.4939 12.0265 11.4474 12.0727C11.4009 12.1189 11.3382 12.145 11.2727 12.1455H10.8233C10.7567 12.1454 10.6929 12.1189 10.6458 12.0717C10.5988 12.0246 10.5724 11.9607 10.5724 11.8941L10.5685 9.68733C10.5686 9.65627 10.5625 9.62551 10.5506 9.5968C10.5388 9.56809 10.5214 9.542 10.4994 9.52003C10.4775 9.49806 10.4514 9.48063 10.4227 9.46875C10.394 9.45688 10.3633 9.45078 10.3322 9.45081H9.26218C9.23114 9.45081 9.20041 9.45693 9.17174 9.46882C9.14307 9.48071 9.11702 9.49814 9.09509 9.52011C9.07316 9.54208 9.05579 9.56816 9.04395 9.59685C9.03211 9.62555 9.02605 9.65629 9.02611 9.68733V12.1109C9.01776 12.3203 9.05285 12.5291 9.12916 12.7242C9.20548 12.9193 9.32137 13.0965 9.46953 13.2446C9.61769 13.3927 9.79492 13.5086 9.99005 13.5848C10.1852 13.6611 10.394 13.6961 10.6033 13.6877C10.6033 13.6877 11.2948 13.6877 11.3161 13.6916C11.3775 13.6973 11.4346 13.7256 11.4763 13.7711C11.518 13.8165 11.5413 13.8758 11.5417 13.9375C11.5421 13.9992 11.5196 14.0588 11.4786 14.1048C11.4375 14.1509 11.3808 14.18 11.3195 14.1865C11.314 14.1865 11.3088 14.1886 11.3021 14.1895L9.73795 14.1954C9.70686 14.1953 9.67606 14.2014 9.64733 14.2133C9.61859 14.2252 9.59248 14.2426 9.57047 14.2645C9.54847 14.2865 9.531 14.3126 9.51908 14.3413C9.50715 14.37 9.501 14.4008 9.50097 14.4319V15.5012C9.50121 15.564 9.52627 15.6241 9.57067 15.6684C9.61507 15.7127 9.67521 15.7376 9.73795 15.7378H11.4859C11.6953 15.7462 11.9042 15.7112 12.0994 15.6349C12.2946 15.5586 12.4719 15.4428 12.6201 15.2946C12.7683 15.1464 12.8842 14.9692 12.9605 14.774C13.0369 14.5788 13.0719 14.3699 13.0636 14.1605V9.68779C13.0636 9.65671 13.0576 9.62592 13.0457 9.5972C13.0338 9.56848 13.0164 9.54238 12.9944 9.5204C12.9724 9.49843 12.9463 9.48101 12.9176 9.46914C12.8889 9.45728 12.8583 9.4512 12.8273 9.45126Z" fill="#0C2756"/>
<path d="M2.5698 9.45173H0.232116C0.20167 9.45167 0.171512 9.45761 0.143367 9.46922C0.115221 9.48083 0.0896426 9.49788 0.0680931 9.51938C0.0465436 9.54089 0.0294461 9.56644 0.0177812 9.59456C0.00611639 9.62268 0.000113448 9.65283 0.000113506 9.68328V15.494C-0.00176557 15.5539 0.0197476 15.6122 0.0600985 15.6565C0.10045 15.7008 0.156468 15.7277 0.216287 15.7314H1.30598C1.33722 15.7316 1.36817 15.7255 1.39706 15.7137C1.42594 15.7018 1.45219 15.6843 1.47429 15.6622C1.49638 15.6402 1.51389 15.6139 1.52579 15.5851C1.53769 15.5562 1.54376 15.5252 1.54364 15.494L1.54748 13.8686H2.57047C2.76387 13.878 2.9571 13.8469 3.13774 13.7771C3.31838 13.7074 3.48243 13.6007 3.61935 13.4637C3.75626 13.3268 3.86302 13.1628 3.93275 12.9821C4.00248 12.8015 4.03364 12.6083 4.02423 12.4149V10.9064C4.03352 10.713 4.00228 10.5197 3.93253 10.3391C3.86277 10.1584 3.75603 9.99437 3.61916 9.85739C3.48228 9.7204 3.31829 9.61354 3.1377 9.54364C2.95711 9.47374 2.76323 9.44259 2.5698 9.45173ZM2.47663 12.0707C2.47651 12.1371 2.45008 12.2008 2.40312 12.2477C2.35615 12.2947 2.2925 12.3211 2.22608 12.3212H1.54771V10.9984H2.22608C2.259 10.9984 2.29159 11.0048 2.322 11.0174C2.35241 11.03 2.38004 11.0485 2.40331 11.0717C2.42658 11.095 2.44504 11.1226 2.45762 11.153C2.4702 11.1835 2.47666 11.2161 2.47663 11.249V12.0707Z" fill="#0C2756"/>
<path d="M6.7436 9.45714H5.26022C5.1993 9.45518 5.14009 9.47741 5.09552 9.51898C5.05094 9.56054 5.02463 9.61806 5.02234 9.67896V10.6818C5.02469 10.7464 5.05259 10.8075 5.09991 10.8515C5.14722 10.8956 5.21008 10.919 5.27469 10.9168H6.68752C6.74362 10.9241 6.79545 10.9507 6.83423 10.9919C6.87301 11.0331 6.89635 11.0864 6.9003 11.1429V11.2806C6.89629 11.3356 6.87342 11.3875 6.83556 11.4276C6.7977 11.4677 6.74717 11.4935 6.69249 11.5006H5.99377C5.06304 11.5006 4.39959 12.1186 4.39959 12.9865V14.2302C4.38849 14.4285 4.41969 14.627 4.49111 14.8124C4.56253 14.9978 4.67254 15.1659 4.81385 15.3056C4.95516 15.4453 5.12455 15.5533 5.31077 15.6225C5.497 15.6918 5.69582 15.7206 5.89405 15.7072H7.83329C7.99479 15.7126 8.15182 15.6537 8.26999 15.5435C8.38817 15.4333 8.45783 15.2808 8.46373 15.1193V11.0624C8.46373 10.0781 7.95563 9.45714 6.7436 9.45714ZM6.91432 14.0879C6.91384 14.1011 6.91225 14.1142 6.90957 14.1271C6.90724 14.1389 6.90414 14.1505 6.9003 14.1619C6.88184 14.21 6.84902 14.2512 6.8063 14.28C6.76358 14.3088 6.71303 14.3238 6.66151 14.3229H6.21673C6.15221 14.325 6.0895 14.3014 6.0423 14.2574C5.99509 14.2134 5.96724 14.1524 5.96482 14.0879V13.1724C5.96747 13.108 5.99543 13.0473 6.04261 13.0035C6.08978 12.9597 6.15236 12.9362 6.21673 12.9383H6.66151C6.72621 12.9362 6.78912 12.9597 6.83649 13.0039C6.88386 13.048 6.91185 13.109 6.91432 13.1737V14.0879Z" fill="#0C2756"/>
</svg>
