<svg width="24" height="24" viewBox="0 0 24 24" fill="none" xmlns="http://www.w3.org/2000/svg">
<g clip-path="url(#clip0_45_4207)">
<path fill-rule="evenodd" clip-rule="evenodd" d="M20.719 0.311279H3.27922C1.64941 0.311279 0.309448 1.6649 0.309448 3.31889V20.6823C0.309448 22.3355 1.64941 23.6895 3.27922 23.6895H20.719C22.3586 23.6895 23.6896 22.3355 23.6896 20.6823V3.31928C23.6896 1.66529 22.3586 0.311279 20.719 0.311279Z" fill="#9E173B"/>
<path d="M3.2795 0.621321C1.81198 0.621321 0.619856 1.83138 0.619856 3.31958V20.6826C0.619856 22.1704 1.81198 23.38 3.2795 23.38H20.7193C22.1861 23.38 23.3825 22.1704 23.3825 20.6822V3.31958C23.3825 1.83138 22.1857 0.621321 20.7193 0.621321H3.2795ZM20.7193 23.9987H3.2795C1.47065 23.9987 0 22.5105 0 20.6822V3.31958C0 1.49044 1.47065 0.00146484 3.2795 0.00146484H20.7193C22.527 0.00146484 24 1.49044 24 3.31958V20.6826C24 22.5105 22.527 23.9987 20.7193 23.9987Z" fill="white"/>
<path fill-rule="evenodd" clip-rule="evenodd" d="M16.3837 3.36503H20.6407V20.6406H16.3837V15.7489C12.6337 17.1201 9.12717 17.241 5.9058 14.0848C4.57129 12.696 3.8188 10.8041 4.13361 7.50781C4.18744 7.00303 3.95144 4.6617 3.35889 3.36035H7.14005C8.91145 6.17291 6.59002 9.76254 9.30388 12.0539C13.0027 14.4483 16.2276 11.585 16.3837 8.99991V3.36503ZM12.1422 5.14775C14.1582 5.14775 15.7868 6.77873 15.7868 8.75571C15.7868 10.751 14.1582 12.366 12.1422 12.366C10.1266 12.366 8.4804 10.751 8.4804 8.75571C8.4804 6.77873 10.1266 5.14775 12.1422 5.14775Z" fill="#FAB90C"/>
</g>
<defs>
<clipPath id="clip0_45_4207">
<rect width="24" height="24" fill="white"/>
</clipPath>
</defs>
</svg>
