<svg width="24" height="24" viewBox="0 0 24 24" fill="none" xmlns="http://www.w3.org/2000/svg">
<path d="M20.3896 0H3.61035V24H20.3896V0Z" fill="#FBED21"/>
<path fill-rule="evenodd" clip-rule="evenodd" d="M8.26697 21.0024C8.20098 20.9458 8.04073 20.8327 8.05016 20.6442C8.05016 20.5499 8.11614 20.4651 8.1727 20.4085C8.23869 20.352 8.33295 20.3425 8.42722 20.3425C8.54976 20.3425 8.65346 20.3991 8.7383 20.5122C8.83256 20.6253 8.9174 20.7761 8.94568 21.0118H9.19077L9.27561 21.2098H8.98339V22.7369L8.7383 22.6143V21.2003H8.43665V22.718L8.18213 22.6143V22.0676C8.16328 22.0864 8.135 22.0959 8.12557 22.0959C8.10672 22.1053 8.09729 22.1147 8.06901 22.1147C8.01245 22.1336 7.96532 22.1336 7.92761 22.1336C7.8522 22.1336 7.70138 22.0864 7.59768 22.0016C7.47514 21.9073 7.41858 21.8036 7.41858 21.7094V21.2003H7.17349L7.07922 21.0024H8.26697ZM9.76579 22.4541L9.55841 22.6615L9.35102 22.4446L9.55841 22.2373L9.76579 22.4541ZM8.18213 21.2003H7.66367V21.7282C7.66367 21.8979 7.72023 21.9733 7.83335 21.9733C7.88048 21.9733 7.93704 21.9639 8.00303 21.9356C8.0313 21.9262 8.05958 21.9073 8.09729 21.8979C8.12557 21.8791 8.16328 21.8602 8.18213 21.8414V21.2003ZM8.40837 21.0118H8.85141C8.83256 20.8421 8.76658 20.7384 8.69116 20.6536C8.61575 20.5688 8.53091 20.5405 8.44607 20.5405C8.33295 20.5499 8.23869 20.6159 8.26697 20.8139C8.28582 20.8987 8.35181 20.9741 8.40837 21.0118ZM11.9245 21.2003C12.1319 21.4831 12.0376 21.568 11.915 21.6717C11.8962 21.7094 11.8396 21.7 11.8396 21.7188C11.8019 21.6622 11.7548 21.634 11.6888 21.6528C11.5757 21.6717 11.4908 21.8036 11.5097 21.8696C11.5286 21.9168 11.5757 22.0016 11.67 22.1241C11.7548 22.2278 11.9905 22.4729 12.2638 22.784L12.3298 22.6332L12.0847 22.3692C11.9905 22.2655 11.9339 22.209 11.9245 22.1996C11.8962 22.1713 11.8679 22.1336 11.8302 22.0864V22.077C11.8302 22.0676 11.8396 22.0676 11.8491 22.0582C11.8585 22.0487 11.8868 22.0393 11.9245 22.011C11.9528 21.9922 11.9716 21.9733 11.9999 21.945L12.0659 21.8696C12.113 21.9262 12.179 21.9733 12.2355 22.0016C12.3015 22.0299 12.3675 22.0487 12.4335 22.0487C12.4524 22.0487 12.4524 22.0487 12.4901 22.0299C12.5278 22.0205 12.5561 22.011 12.5843 22.0016C12.6126 21.9922 12.6315 21.9827 12.6409 21.9827V22.6143L12.9048 22.7274V21.2003H13.1028L13.0085 21.0024H9.89776L9.99203 21.2003H10.1994V22.011C10.1994 22.1053 10.2277 22.1901 10.3031 22.2278L11.2363 22.7652C11.2929 22.8029 11.3212 22.8311 11.3212 22.8594C11.3212 22.8783 11.3117 22.8877 11.3023 22.916C11.2929 22.9348 11.274 22.9537 11.2646 22.9725L11.4249 23.1234C11.4908 23.0197 11.5286 22.9537 11.5286 22.916C11.5286 22.8783 11.5097 22.85 11.4908 22.8217C11.472 22.7934 11.4249 22.7557 11.3589 22.718L10.5199 22.1713C10.5105 22.1619 10.5011 22.1524 10.4916 22.1241C10.4822 22.0959 10.4822 22.077 10.4822 22.0487V21.2003H10.9347V21.9262C10.9347 21.9639 10.9064 21.9922 10.8404 21.9922L10.6613 21.9827L10.831 22.143L10.9441 22.1713C10.9535 22.1713 10.963 22.1713 10.9818 22.1807C10.9912 22.1807 11.0007 22.1807 11.0195 22.1807H11.0572C11.1326 22.1807 11.1986 22.1336 11.1986 22.0487V21.2003H11.9245ZM12.0847 21.2003C12.179 21.3889 12.2073 21.5963 12.113 21.7754L12.2167 21.8319C12.2733 21.8602 12.3392 21.8696 12.3958 21.8696C12.4147 21.8696 12.4335 21.8696 12.4618 21.8696C12.4806 21.8696 12.4712 21.8508 12.5089 21.8319C12.5749 21.8036 12.622 21.7848 12.6597 21.7471V21.2003H12.0847ZM15.0447 21.0118C14.9881 20.9553 14.941 20.8327 14.9221 20.7573C14.9033 20.6725 14.9315 20.5028 15.0258 20.4368C15.0918 20.3802 15.1861 20.3425 15.2803 20.3425C15.4029 20.3425 15.5066 20.3991 15.5914 20.5122C15.6762 20.6253 15.7422 20.7667 15.7705 21.0024H16.0156L16.1193 21.2003H15.8459V22.7274L15.5725 22.6143V21.2003H15.2332V22.7274L14.9881 22.6143V22.1901C14.9315 22.2561 14.8844 22.275 14.8373 22.3033C14.7524 22.3504 14.6205 22.3787 14.5073 22.3787C14.4319 22.3787 14.3565 22.3692 14.3 22.3504C14.234 22.3221 14.1586 22.2844 14.102 22.2278C13.9983 22.1241 13.9418 21.9733 13.9418 21.8508C13.9418 21.7659 13.9889 21.6434 14.0643 21.568C14.1586 21.4643 14.3565 21.3983 14.5073 21.4077C14.6016 21.4172 14.7242 21.436 14.809 21.4926C14.8844 21.5397 14.9221 21.5586 14.9881 21.6528V21.2003H13.8663L13.7721 21.0024L15.0447 21.0118ZM14.743 22.0676C14.7901 22.0487 14.7996 22.0299 14.8278 21.9922C14.8561 21.9545 14.875 21.9073 14.875 21.8696C14.875 21.7754 14.8467 21.7094 14.7901 21.6528C14.743 21.6151 14.6865 21.5868 14.6299 21.5868H14.5356C14.5168 21.5868 14.4979 21.5868 14.4508 21.6057L14.743 22.0676ZM14.3282 21.6905C14.3 21.7094 14.2811 21.7282 14.2434 21.7848C14.2057 21.8414 14.1868 21.8885 14.1868 21.9356C14.1868 22.011 14.2057 22.0959 14.2623 22.1336C14.3094 22.1619 14.3754 22.1901 14.4508 22.1901C14.4885 22.1901 14.5262 22.1901 14.5356 22.1807L14.6299 22.1336L14.3282 21.6905ZM15.1672 21.0118H15.6951C15.6762 20.8421 15.6291 20.7479 15.5537 20.663C15.4783 20.5782 15.3934 20.5216 15.3086 20.5311C15.1012 20.5593 15.0447 20.8421 15.1672 21.0118ZM13.6684 22.4541L13.4704 22.6615L13.263 22.4446L13.461 22.2373L13.6684 22.4541Z" fill="#B31F31"/>
<path fill-rule="evenodd" clip-rule="evenodd" d="M13.2537 16.0158H13.1594L13.0746 16.0346L12.9897 16.0535C12.9426 16.0723 12.9049 16.0817 12.8672 16.1006C12.8295 16.1194 12.7918 16.1383 12.7541 16.1666C12.7164 16.1949 12.6881 16.2137 12.6504 16.2514C12.6221 16.2797 12.5938 16.3174 12.5655 16.3457C12.5373 16.3834 12.5184 16.4117 12.4901 16.4494C12.4713 16.4871 12.4524 16.5248 12.4336 16.5625C12.4147 16.6096 12.4053 16.6473 12.3864 16.685L12.3676 16.7699L12.3581 16.8641V16.9584L12.3676 17.0527L12.3864 17.1375C12.3959 17.1846 12.4147 17.2223 12.4336 17.2601C12.4524 17.2978 12.4713 17.3355 12.4901 17.3732C12.5184 17.4109 12.5373 17.4486 12.5655 17.4769C12.5938 17.5051 12.6221 17.5429 12.6504 17.5711C12.6881 17.5994 12.7164 17.6277 12.7541 17.656C12.7918 17.6842 12.8295 17.7031 12.8672 17.722C12.9049 17.7408 12.952 17.7502 12.9897 17.7691L13.0746 17.7879L13.1594 17.8068H13.2537H13.3479L13.4328 17.7879C13.4799 17.7785 13.5176 17.7691 13.5647 17.7502C13.6119 17.7314 13.6496 17.7125 13.6873 17.6937C13.725 17.6748 13.7627 17.6465 13.8004 17.6277C13.8381 17.5994 13.8664 17.5711 13.9041 17.5429C13.9324 17.5051 13.9607 17.4769 13.9889 17.4392C14.0172 17.4015 14.0361 17.3637 14.0549 17.326C14.0738 17.2883 14.0926 17.2412 14.1115 17.2035C14.1303 17.1564 14.1398 17.1187 14.1492 17.0715L14.168 16.9773V16.883V16.7887L14.1492 16.7039C14.1398 16.6568 14.1303 16.6191 14.1115 16.5719C14.0926 16.5342 14.0738 16.4871 14.0549 16.4494C14.0361 16.4117 14.0078 16.374 13.9889 16.3363C13.9607 16.2985 13.9324 16.2703 13.9041 16.242C13.8664 16.2137 13.8381 16.1854 13.8004 16.1571C13.7627 16.1289 13.725 16.11 13.6873 16.0817C13.6496 16.0629 13.6025 16.044 13.5647 16.0252C13.527 16.0063 13.4799 15.9969 13.4328 15.9875L13.3479 15.9686L13.2537 16.0158ZM7.39978 9.75652L7.41863 9.51143L7.43749 9.35118L7.46577 9.19093L7.49405 9.03068L7.53175 8.87985L7.57889 8.72903L7.62602 8.5782L7.68258 8.42738L7.73914 8.27655L7.80512 8.13515L7.87111 7.99376L7.94652 7.86178L8.03136 7.72981L8.1162 7.59784L8.21046 7.46587L8.30473 7.34332L8.399 7.22078L8.50269 7.10766L8.60638 6.99454L8.7195 6.88142L8.83262 6.77773L8.95516 6.67404L9.07771 6.57977L9.20968 6.48551L9.34165 6.40067L9.47362 6.31583L9.60559 6.24042L9.74699 6.165L9.88839 6.09902L10.0392 6.03303L10.19 5.97647L10.3974 5.90106V4.99611H10.454L10.586 4.98669L10.7179 4.96783L10.8499 4.94898L10.9724 4.9207L11.095 4.88299L11.2175 4.84529L11.3307 4.79815L11.4438 4.75102L11.5852 4.70389L11.6983 4.64733L11.802 4.58134L11.9057 4.51536L12.0094 4.43995L12.1131 4.36453L12.2073 4.27969L12.3016 4.19486L12.3959 4.11002L12.4807 4.02518L12.5655 3.93091L12.6504 3.83665L12.7352 3.74238L12.8106 3.63869L12.9614 3.44073L13.0934 3.23335L13.216 3.02596L13.3197 2.81858L13.3668 2.71489L13.5553 2.46037L13.7344 2.22471L13.8287 2.11159L13.923 2.00789L14.0078 1.9042L14.1021 1.80994L14.1963 1.7251L14.2906 1.64026L14.3849 1.56485L14.4791 1.48943L14.5734 1.42345L14.6677 1.35746L14.7619 1.3009L14.8656 1.25377L14.9693 1.20664L15.073 1.15951L15.1767 1.1218L15.2898 1.08409L15.4029 1.04639L15.5255 1.01811L15.648 0.989827L15.78 0.970974L15.912 0.952121L16.0534 0.933268L16.2042 0.914415L16.5058 0.895562C16.6472 0.886136 16.7886 0.886136 16.93 0.876709V3.00711L16.8358 2.98826L16.7415 2.97883L16.6472 2.9694H16.553H16.4681L16.3833 2.97883L16.2984 3.00711L16.2136 3.02596L16.1288 3.04482L16.0534 3.0731L15.9685 3.10138L15.8931 3.12965L15.8177 3.16736L15.7517 3.20507L15.6857 3.24277L15.6103 3.28991L15.5443 3.33704L15.4218 3.44073L15.3087 3.55385L15.1955 3.66697L15.1013 3.78951L15.007 3.92149L14.9222 4.05346L14.8562 4.19486C14.7242 4.43052 14.6017 4.66618 14.4697 4.90185C14.4226 4.97726 14.3754 5.05267 14.3189 5.13751C14.2812 5.19407 14.234 5.25063 14.1963 5.29776C14.1492 5.35432 14.1021 5.41088 14.0549 5.45801L13.9607 5.56171C13.9041 5.60884 13.8475 5.65597 13.791 5.7031L13.6684 5.78794L13.5365 5.87278L13.4611 5.91049L13.2442 6.02361L13.527 6.15558L13.659 6.22156L13.791 6.29698L13.923 6.37239L14.0549 6.46665L14.1775 6.55149L14.3 6.64576L14.4131 6.74002L14.5263 6.84372L14.6394 6.94741L14.7431 7.0511L14.8468 7.16422L14.9504 7.27734L15.0447 7.39046L15.139 7.513L15.2238 7.63555L15.3087 7.76752L15.3841 7.89949L15.4595 8.03146L15.5255 8.17286L15.5915 8.31426L15.648 8.45566L15.7046 8.59706L15.7517 8.74788L15.7988 8.8987L15.8365 9.04953L15.8743 9.20035L15.9025 9.35118L15.9214 9.51143L15.9402 9.67168L15.9497 9.83193V9.99218V10.1619L15.9402 10.3221L15.9214 10.4824L15.9025 10.6426L15.8743 10.8029L15.8365 10.9631L15.7988 11.1139L15.7517 11.2648L15.7046 11.4156L15.648 11.5664L15.5915 11.7078L15.5255 11.8492L15.4595 11.9906L15.3841 12.1226L15.2992 12.2546L15.2144 12.3865L15.1296 12.5091L15.0353 12.6316L14.941 12.7542L14.8373 12.8673L14.7336 12.9804L14.6205 13.0935L14.5074 13.1972L14.3943 13.3009L14.2717 13.3952L14.1492 13.4894L14.0172 13.5743L13.8852 13.6591L13.7533 13.7345L13.6119 13.8099L13.4705 13.8759L13.0086 14.0739L13.4988 14.1022L13.6402 14.1116L13.7816 14.1304L13.9135 14.1587L14.0455 14.1964L14.1775 14.2341L14.3094 14.2813L14.432 14.3378L14.5545 14.3944L14.6677 14.4604L14.7808 14.5264L14.8939 14.6018L14.9976 14.6866L15.1013 14.7714L15.1955 14.8563L15.2898 14.9506L15.3841 15.0448L15.4689 15.1485L15.5537 15.2522L15.6292 15.3653L15.7046 15.4784L15.7706 15.5916L15.8271 15.7141L15.8837 15.8366L15.9308 15.9592L15.9779 16.0912L16.0156 16.2231L16.0439 16.3551L16.0722 16.4871L16.0911 16.6285L16.1005 16.7699V16.9113V17.0527L16.0911 17.1941L16.0722 17.3355L16.0439 17.4769L16.0156 17.6088L15.9779 17.7408L15.9308 17.8728L15.8837 18.0048L15.8271 18.1273L15.7611 18.2498L15.6951 18.3724L15.6197 18.4855L15.5443 18.5986L15.4595 18.7023L15.3746 18.806L15.2804 18.9097L15.1767 19.004L15.073 19.0982L14.9693 19.1831L14.8562 19.2679L14.7431 19.3433L14.6299 19.4093L14.5074 19.4753L14.3849 19.5319L14.2529 19.579L14.1209 19.6261L13.9889 19.6638L13.857 19.6921L13.7156 19.7204L13.5742 19.7392L13.4328 19.7487H13.2914H13.15L13.0086 19.7392L12.8672 19.7204L12.7352 19.6921L12.6032 19.6638L12.4713 19.6261L12.3393 19.579L12.2167 19.5319L12.0942 19.4753L11.9717 19.4187L11.8585 19.3528L11.7454 19.2868L11.6323 19.2114L11.5286 19.1265L11.4249 19.0417L11.3212 18.9474L11.227 18.8531L11.1421 18.7495L11.0573 18.6458L10.9724 18.5421L10.897 18.4289L10.831 18.3158L10.7651 18.2027L10.7085 18.0802L10.6519 17.9576L10.6048 17.8351L10.5671 17.7031L10.5294 17.5711L10.5011 17.4392L10.4823 17.3072L10.4634 17.1658L10.454 16.9867V9.75652H12.377V12.1226L12.5655 12.0472L12.7164 11.9718L12.8578 11.8869L12.9992 11.7927L13.1311 11.689L13.2537 11.5758L13.3668 11.4533L13.4705 11.3213L13.5647 11.1894L13.6496 11.048L13.725 10.8971L13.791 10.7369L13.8193 10.6615L13.8664 10.5012L13.8852 10.4164L13.9041 10.3315L13.9135 10.2467L13.923 10.1619V10.077V9.99218V9.87907L13.9135 9.76595L13.8947 9.65283L13.8758 9.53971L13.8475 9.43602L13.8193 9.33233L13.7816 9.22863L13.7438 9.12494L13.6967 9.03068L13.6496 8.93641L13.593 8.84215L13.5365 8.74788L13.4705 8.66304L13.4045 8.5782L13.3385 8.49336L13.2631 8.41795L13.1877 8.34254L13.1028 8.27655L13.018 8.21057L12.9332 8.14458L12.8389 8.08802L12.7446 8.03146L12.6504 7.98433L12.5561 7.9372L12.4524 7.89949L12.3487 7.86178L12.245 7.8335L12.1413 7.80522L12.0282 7.78637L11.9151 7.76752L11.802 7.75809H11.6889H11.5852L11.4815 7.76752L11.3778 7.77695L11.2741 7.7958L11.1704 7.81465L11.0761 7.84293L10.9819 7.87121L10.8876 7.89949L10.7933 7.9372L10.7085 7.9749L10.6237 8.02204L10.5388 8.06917L10.454 8.12573L10.3691 8.18229L10.2937 8.23885L10.2183 8.30483L10.1429 8.37082L10.0769 8.4368L10.0109 8.51222L9.94495 8.58763L9.88839 8.66304L9.81298 8.75731L9.75642 8.84215L9.70929 8.92698L9.66215 9.01182L9.62445 9.09666L9.58674 9.19093L9.54903 9.28519L9.52075 9.37946L9.49248 9.47373L9.47362 9.57742L9.45477 9.68111V19.7769H7.39978V9.75652Z" fill="#B31F31"/>
</svg>
