<svg width="24" height="24" viewBox="0 0 24 24" fill="none" xmlns="http://www.w3.org/2000/svg">
<path d="M7.4238 5.79992V-6.67572e-06H2.85742V13.7173C2.85742 10.3405 4.69614 7.37723 7.4238 5.79992Z" fill="#21317D"/>
<path d="M12.5691 4.59254V9.18004C14.8246 9.46087 16.5742 11.3828 16.5742 13.7118C16.5742 16.2443 14.5294 18.2904 11.9998 18.2904C9.47822 18.2904 7.42877 16.2443 7.42877 13.7118H7.42371V21.6342C8.77128 22.4108 10.3347 22.8652 11.9998 22.8652C17.0501 22.8652 21.1427 18.7718 21.1427 13.7173C21.1427 8.86162 17.3538 4.88436 12.5691 4.59254Z" fill="#21317D"/>
<path d="M7.4238 5.79995C4.69614 7.37725 2.85742 10.3406 2.85742 13.7173V22.168V24H7.4238V22.8023V21.6338V13.7118H7.42887C7.42887 11.3828 9.17341 9.46133 11.4298 9.18007V4.59258C9.97663 4.67915 8.61132 5.10948 7.4238 5.79995Z" fill="#ED1C24"/>
</svg>
