<svg width="24" height="24" viewBox="0 0 24 24" fill="none" xmlns="http://www.w3.org/2000/svg">
<path d="M8.13418 0.45067C8.48077 0.0579513 9.04565 0.0146285 9.5357 0C9.91492 0.0270064 10.2986 0.046136 10.6677 0.142346C10.787 0.194109 10.9637 0.240245 10.9693 0.398345C10.8478 0.649279 10.5507 0.71342 10.3313 0.849577C9.52164 1.32894 8.69232 1.79424 7.97777 2.41201C7.98846 2.13238 7.94683 1.85444 7.96145 1.57481C7.96933 1.19954 7.85962 0.760118 8.13418 0.45067Z" fill="#AA0000"/>
<path d="M11.6719 0.850501C12.3583 0.466785 13.1995 0.709843 13.8144 1.11944C13.9782 1.22184 14.1216 1.45252 13.9753 1.62862C13.7728 1.86437 13.4724 1.9949 13.1781 2.07479C11.3 2.61098 9.53054 3.51514 7.98611 4.70904C7.98329 4.40803 7.98217 4.10703 7.98667 3.80602C9.04836 2.63124 10.3497 1.70796 11.6719 0.850501Z" fill="#AA0000"/>
<path d="M14.758 1.88936C15.1429 1.7487 15.5727 1.91074 15.8782 2.15549C16.0994 2.32934 16.3464 2.46944 16.5545 2.66017C16.7031 2.79858 16.8207 3.03432 16.6907 3.22393C16.4825 3.52381 16.1016 3.60765 15.7736 3.71173C13.0257 4.61589 10.3093 5.74678 7.96761 7.47294C7.94792 7.17643 7.94736 6.8788 7.91248 6.58342C9.18234 5.13295 10.796 4.03581 12.4614 3.08946C13.2125 2.66242 13.9872 2.2787 14.758 1.88936Z" fill="#AA0000"/>
<path d="M17.085 3.77859C17.422 3.64131 17.858 3.62949 18.1422 3.88549C18.3757 4.1218 18.6232 4.3446 18.8595 4.57753C19.0098 4.75082 19.1769 4.99107 19.0761 5.2285C18.9546 5.51657 18.6379 5.6471 18.3672 5.75625C16.0554 6.46404 13.7486 7.22472 11.5712 8.28585C10.3002 8.90362 9.07701 9.62773 7.96244 10.4976C7.96412 10.2286 7.95006 9.96025 7.94556 9.69131C9.11471 8.2414 10.6501 7.13864 12.2373 6.18835C13.7908 5.26619 15.4275 4.49314 17.085 3.77859Z" fill="#AA0000"/>
<path d="M18.8557 6.17092C19.1162 6.05276 19.3964 5.90873 19.6912 5.9785C20.0524 6.06064 20.3 6.37122 20.4615 6.68573C20.6595 7.06776 20.9836 7.4239 20.969 7.8802C20.969 8.22003 20.7045 8.48841 20.4249 8.64482C19.8437 8.96552 19.1753 9.05723 18.5288 9.15625C14.7507 9.80553 11.0998 11.2841 7.998 13.5465C8.00081 13.2376 7.96255 12.9298 7.96143 12.6215C9.19303 11.3055 10.6615 10.2331 12.1964 9.29916C14.3006 8.0293 16.5534 7.02275 18.8557 6.17092Z" fill="#AA0000"/>
<path d="M15.9952 10.4653C16.0317 10.7692 16.0121 11.0764 16.0391 11.3813C14.7174 12.7997 13.1201 13.9328 11.4564 14.9152C9.46637 16.077 7.35424 17.0195 5.19373 17.8167C4.95967 17.9112 4.73068 18.0547 4.46793 18.0389C4.04821 18.0496 3.72976 17.6969 3.55534 17.3497C3.34492 16.9497 3.00227 16.571 3.03265 16.0905C3.05009 15.7485 3.32916 15.4958 3.61104 15.3434C4.17199 15.048 4.80833 14.9529 5.42722 14.8573C9.21825 14.2153 12.8838 12.735 15.9952 10.4653Z" fill="#AA0000"/>
<path d="M12.4398 15.7176C13.7006 15.101 14.9198 14.3864 16.0243 13.5166C16.0204 13.7861 16.0609 14.0601 16.0479 14.3257C15.1342 15.4639 13.9786 16.381 12.7706 17.1884C10.9825 18.3671 9.04763 19.3016 7.08854 20.1568C6.7414 20.334 6.29861 20.4066 5.94865 20.1968C5.74497 20.0235 5.56212 19.8265 5.36407 19.6465C5.20485 19.5025 5.04562 19.3489 4.94716 19.1553C4.85489 18.968 4.89652 18.7294 5.05068 18.5876C5.31568 18.3367 5.67577 18.2303 6.01841 18.1325C8.20425 17.459 10.3794 16.7197 12.4398 15.7176Z" fill="#AA0000"/>
<path d="M8.40192 20.2406C11.0846 19.341 13.7391 18.2303 16.0262 16.5374C16.0324 16.835 16.0931 17.1326 16.074 17.4297C15.2897 18.3468 14.3428 19.1131 13.3514 19.795C12.1327 20.6277 10.8325 21.3321 9.50862 21.9797C9.33026 22.0889 9.13278 22.189 8.91729 22.1783C8.63766 22.1508 8.36197 22.05 8.14367 21.8706C7.89161 21.6669 7.5951 21.5144 7.37849 21.2697C7.22601 21.1149 7.21757 20.8387 7.38355 20.6907C7.65643 20.4195 8.05421 20.3661 8.40192 20.2406Z" fill="#AA0000"/>
<path d="M10.7758 21.9454C12.677 21.412 14.4639 20.4949 16.0274 19.292C16.0224 19.5913 16.0291 19.8912 16.0224 20.1905C15.1193 21.2066 14.0183 22.0219 12.8986 22.782C12.5942 22.9699 12.3163 23.2248 11.9568 23.3002C11.5213 23.4155 11.0577 23.3244 10.6549 23.1404C10.4202 23.0352 10.1625 22.926 10.0106 22.7083C9.90992 22.5705 9.98475 22.387 10.1057 22.2908C10.2987 22.1265 10.5333 22.0135 10.7758 21.9454Z" fill="#AA0000"/>
<path d="M14.7315 22.5221C15.1788 22.2351 15.6306 21.9476 16.0272 21.592C16.0188 22.0978 16.0396 22.6037 16.048 23.1089C16.0283 23.4735 15.729 23.7548 15.401 23.8696C14.9278 24.0356 14.4153 24.0119 13.9235 23.9669C13.6507 23.9236 13.3541 23.9225 13.1173 23.7627C13.0351 23.7216 13.0492 23.6254 13.0464 23.55C13.1257 23.4746 13.2045 23.3958 13.3041 23.3475C13.7964 23.1016 14.2628 22.809 14.7315 22.5221Z" fill="#AA0000"/>
</svg>
