<svg width="24" height="24" viewBox="0 0 24 24" fill="none" xmlns="http://www.w3.org/2000/svg">
<g clip-path="url(#clip0_45_4167)">
<path fill-rule="evenodd" clip-rule="evenodd" d="M17.3283 16.1008C17.2823 16.1008 17.2583 16.0817 17.2583 16.0429V7.96827C17.2583 7.92195 17.2822 7.89893 17.3283 7.89893H21.2545C24.3074 7.89893 24.3984 11.2131 22.7706 11.8671C23.4234 12.1467 23.9866 12.7286 24 13.7474C24 14.4703 23.7683 15.0431 23.3043 15.4663C22.8479 15.8892 22.3072 16.1008 21.681 16.1008H17.3283ZM18.7161 9.29541V11.2131H21.263C22.7863 11.1078 22.7663 9.26379 21.1155 9.29541H18.7161ZM18.7161 12.6128V14.6952H21.3791C22.956 14.6426 22.7831 12.5777 21.3791 12.6128H18.7161Z" fill="#C72E8F"/>
<path fill-rule="evenodd" clip-rule="evenodd" d="M2.68686 16.1008C2.64053 16.1008 2.61729 16.0817 2.61729 16.0429V9.29877H0.0696177C0.0232368 9.29877 0 9.27569 0 9.22954V7.96827C0 7.92195 0.0232372 7.89893 0.0696177 7.89893H6.69895C6.74547 7.89893 6.76871 7.92195 6.76871 7.96827V9.22954C6.76871 9.27568 6.74547 9.29877 6.69895 9.29877H4.16352V16.0429C4.16352 16.0817 4.14028 16.1008 4.09402 16.1008H2.68686Z" fill="#C72E8F"/>
<path fill-rule="evenodd" clip-rule="evenodd" d="M6.61511 16.0434C6.59366 16.0876 6.5664 16.1023 6.53355 16.1023H4.99937C4.9668 16.1023 4.94019 16.0758 4.94019 16.0434L8.16693 7.9517C8.17138 7.93511 8.19505 7.90073 8.22699 7.90073L9.78283 7.89282C9.81572 7.89282 9.84224 7.91946 9.84224 7.9517L6.61511 16.0434Z" fill="#C72E8F"/>
<path fill-rule="evenodd" clip-rule="evenodd" d="M11.427 16.0485C11.4409 16.0803 11.4706 16.1073 11.503 16.1073H13.0432C13.0756 16.1073 13.1131 16.0803 13.1024 16.0485L9.85801 7.9517C9.8421 7.90539 9.81065 7.89282 9.77825 7.89282H8.24253C8.20969 7.89282 8.17749 7.91085 8.16968 7.94327L11.427 16.0485Z" fill="#3052A1"/>
<path fill-rule="evenodd" clip-rule="evenodd" d="M14.8261 16.0345C14.8379 16.066 14.8634 16.0935 14.8964 16.0935H16.4418C16.4744 16.0935 16.5086 16.0672 16.5012 16.0345L13.2653 7.95169C13.2465 7.91706 13.2356 7.89859 13.2032 7.89859L11.6496 7.89282C11.6167 7.89282 11.5897 7.91946 11.5897 7.9517L14.8261 16.0345Z" fill="#3052A1"/>
<path fill-rule="evenodd" clip-rule="evenodd" d="M10.8707 9.84713C10.8998 9.91456 11.4894 11.4139 11.6321 11.7786C11.6482 11.8159 11.6886 11.8276 11.713 11.776C11.7362 11.7252 13.2561 7.9383 13.2561 7.9383C13.2483 7.91162 13.2192 7.89307 13.1889 7.89307H11.6321C11.61 7.89393 11.5834 7.92201 11.5727 7.95194L10.8644 9.71974C10.8644 9.71974 10.8383 9.7703 10.8707 9.84713Z" fill="#C72E8F"/>
</g>
<defs>
<clipPath id="clip0_45_4167">
<rect width="24" height="24" fill="white"/>
</clipPath>
</defs>
</svg>
