<svg width="24" height="24" viewBox="0 0 24 24" fill="none" xmlns="http://www.w3.org/2000/svg">
<g clip-path="url(#clip0_45_4213)">
<path fill-rule="evenodd" clip-rule="evenodd" d="M19.8925 24L23.8741 20.0144V4.09207L19.8698 0H4.13592L0.125732 4.11968V20.042L4.07869 24H19.8925Z" fill="white"/>
<path d="M19.8925 24L23.8741 20.0145V4.09213L19.8698 1.37705e-07H4.13592L0.125732 4.11977V20.0421L4.07871 24H19.8925Z" stroke="white" stroke-width="0.148077" stroke-miterlimit="2.613"/>
<path fill-rule="evenodd" clip-rule="evenodd" d="M19.8698 19.9642H15.9672V15.5711L19.2955 12.0967L12.4938 4.70884V6.57183L16.8207 11.6408L12.5244 16.0546V24H19.8925L23.8741 20.0144V4.09207L19.8698 0H4.13592L0.125732 4.11968V20.042L4.07869 24H11.506L11.5045 16.0546L7.2081 11.6408L11.535 6.57183V4.70884L4.73331 12.0967L8.06067 15.5711V19.9642H4.15704V4.03584H19.8426L19.8698 19.9642ZM8.95625 11.3734C8.95625 9.68996 10.319 8.32627 11.9994 8.32627C13.6809 8.32627 15.0426 9.68996 15.0426 11.3734C15.0426 13.0558 13.6809 14.4205 11.9994 14.4205C10.319 14.4205 8.95625 13.0558 8.95625 11.3734Z" fill="black"/>
<path d="M19.8698 19.9642H15.9672V15.5711L19.2955 12.0967L12.4938 4.70885V6.57186L16.8207 11.6408L12.5244 16.0546V24H19.8925L23.8741 20.0145V4.09213L19.8698 0H4.13592L0.125732 4.11977V20.0421L4.07871 24H11.506L11.5041 16.0546L7.20771 11.6408L11.5347 6.57186V4.70885L4.73292 12.0967L8.06026 15.5711V19.9642H4.15664V4.03588H19.8422L19.8698 19.9642ZM8.95626 11.3734C8.95626 9.68999 10.319 8.32633 11.9994 8.32633C13.6808 8.32633 15.0426 9.68999 15.0426 11.3734C15.0426 13.0558 13.6808 14.4205 11.9994 14.4205C10.319 14.4205 8.95626 13.0558 8.95626 11.3734Z" fill="#0044AA" stroke="black" stroke-width="0.148077" stroke-miterlimit="2.613"/>
</g>
<defs>
<clipPath id="clip0_45_4213">
<rect width="24" height="24" fill="white"/>
</clipPath>
</defs>
</svg>
