<svg width="24" height="24" viewBox="0 0 24 24" fill="none" xmlns="http://www.w3.org/2000/svg">
<path d="M21.3677 3.94483C21.4403 0.656291 22.7467 0.0150032 22.7467 0.0150032C22.7467 0.0150032 19.921 -0.0801787 19.2975 0.208936C16.4159 1.26308 15.9578 4.50164 15.9555 6.58969C15.9578 6.28273 15.9305 0.442132 9.64727 0.0340396C9.45334 0.0221419 1.25342 0.016193 1.25342 0.016193C1.25342 0.016193 2.57169 0.652722 2.63594 3.94602V13.8854C2.84296 11.6676 3.83642 9.02873 6.23143 6.00076C8.28141 8.59089 9.30462 10.8931 9.68653 12.8967C11.144 11.6795 13.1571 10.654 15.934 10.0424C15.934 10.0424 16.2493 13.8378 14.686 17.331C16.448 16.8729 18.5468 16.7872 21.0179 17.3274C21.2083 16.6683 21.3285 15.977 21.3665 15.2703L21.3677 3.94483Z" fill="#008572"/>
<path d="M5.97674 21.8842C5.89345 19.8878 6.15996 15.8378 9.68764 12.8967C9.30573 10.8931 8.28133 8.59087 6.23254 6.00073C3.83633 9.02871 2.84287 11.6676 2.63585 13.8854C2.63585 13.8854 2.03383 18.6361 5.97674 21.8842Z" fill="#F58232"/>
<path d="M15.9351 10.0413C13.1582 10.6528 11.1451 11.6796 9.68763 12.8955C6.15995 15.8366 5.89344 19.8866 5.97672 21.8831C6.07309 21.9783 7.44966 22.8765 7.44966 22.8765C8.53593 21.1169 10.8013 18.3328 14.6871 17.3298C16.2492 13.8378 15.9351 10.0413 15.9351 10.0413Z" fill="#FAA634"/>
<path d="M14.6871 17.3299C10.8013 18.3328 8.53597 21.1169 7.44971 22.8766C7.45447 22.8802 7.46041 22.8837 7.46755 22.8873C9.76382 24.1616 12.16 23.9926 12.16 23.9926C16.3647 23.989 19.9126 21.174 21.0191 17.3263C18.5491 16.7861 16.4492 16.8742 14.6871 17.3299Z" fill="#FDB933"/>
</svg>
