<svg width="24" height="24" viewBox="0 0 24 24" fill="none" xmlns="http://www.w3.org/2000/svg">
<g clip-path="url(#clip0_45_4194)">
<path d="M17.1258 9.47442C13.4243 13.0999 10.2463 16.1767 10.0578 16.3202C9.6285 16.6382 8.995 16.9459 8.48716 17.0843C7.84319 17.2587 7.27252 17.2638 5.51861 17.1099C4.64428 17.0382 3.8956 16.9817 3.84325 16.992C3.72283 17.0125 7.08404 20.197 7.54476 20.4995C7.9636 20.7764 8.58663 21.0021 9.1416 21.0841C10.2934 21.2533 11.5971 20.8123 12.4295 19.9662C12.7227 19.6739 24.0314 3.03371 24 2.95167C23.9843 2.91064 23.9477 2.87987 23.911 2.87987C23.8796 2.87987 20.8273 5.84896 17.1258 9.47442Z" fill="#CB2448"/>
<path d="M2.96629 13.0514C2.54861 13.1451 0.199148 13.9055 0.0477385 13.994C-0.0827872 14.0774 0.0581806 14.1919 0.423652 14.3065C1.25902 14.5565 1.94819 15.0148 3.00284 16.0303L3.47273 16.4782L5.40451 16.6449C7.5608 16.8272 7.86362 16.8376 8.11423 16.7334C8.4797 16.5824 8.71986 16.0564 8.61545 15.6554C8.52669 15.3273 8.47448 15.27 7.8584 14.7804C6.72543 13.8847 5.96838 13.4212 5.16957 13.1556C4.51694 12.9368 3.67113 12.9004 2.96629 13.0514Z" fill="#CB2448"/>
</g>
<defs>
<clipPath id="clip0_45_4194">
<rect width="24" height="24" fill="white"/>
</clipPath>
</defs>
</svg>
